<?xml version="1.0" encoding="utf-8"?>
<!-- Generator: Adobe Illustrator 19.0.0, SVG Export Plug-In . SVG Version: 6.00 Build 0)  -->
<!DOCTYPE svg PUBLIC "-//W3C//DTD SVG 1.1//EN" "http://www.w3.org/Graphics/SVG/1.1/DTD/svg11.dtd">
<svg version="1.1" id="Group_7_1_" xmlns="http://www.w3.org/2000/svg" xmlns:xlink="http://www.w3.org/1999/xlink" x="0px" y="0px"
	 viewBox="0 0 342.3 155.8" style="enable-background:new 0 0 342.3 155.8;" xml:space="preserve">
<style type="text/css">
	.st0{fill-rule:evenodd;clip-rule:evenodd;fill:#73DAF9;}
	.st1{opacity:0.302;}
	.st2{fill-rule:evenodd;clip-rule:evenodd;fill:#76F4DC;}
	.st3{display:none;}
	.st4{display:inline;}
	.st5{fill-rule:evenodd;clip-rule:evenodd;fill:#3BE2EA;}
	.st6{opacity:0.4;}
	.st7{fill-rule:evenodd;clip-rule:evenodd;fill:#8760F4;}
	.st8{opacity:0.36;}
	.st9{fill-rule:evenodd;clip-rule:evenodd;fill:#74F7CB;}
	.st10{opacity:0.902;}
	.st11{opacity:0.8;}
	.st12{opacity:0.32;}
	.st13{fill-rule:evenodd;clip-rule:evenodd;fill:#C5F277;}
	.st14{fill-rule:evenodd;clip-rule:evenodd;fill:#DEFF55;}
	.st15{opacity:0.31;fill:#313131;}
	.st16{font-family:'Roboto-Light';}
	.st17{font-size:9.1227px;}
	.st18{opacity:0.66;}
	.st19{fill-rule:evenodd;clip-rule:evenodd;fill:#60C7F4;}
	.st20{fill-rule:evenodd;clip-rule:evenodd;fill:#9D7AF9;}
	.st21{fill-rule:evenodd;clip-rule:evenodd;fill:#8A62D7;}
	.st22{opacity:0.67;}
	.st23{fill-rule:evenodd;clip-rule:evenodd;fill:#74F4F7;}
	.st24{fill-rule:evenodd;clip-rule:evenodd;fill:#5C79F8;}
	.st25{fill-rule:evenodd;clip-rule:evenodd;fill:#5E9CF7;}
	.st26{opacity:0.73;}
	.st27{fill-rule:evenodd;clip-rule:evenodd;fill:#5D51AF;}
	.st28{fill-rule:evenodd;clip-rule:evenodd;fill:#6C4CA4;}
	.st29{fill-rule:evenodd;clip-rule:evenodd;fill:#8F84FA;}
	.st30{fill-rule:evenodd;clip-rule:evenodd;fill:#8856B0;}
	.st31{fill-rule:evenodd;clip-rule:evenodd;fill:#5D4AAF;}
	.st32{fill-rule:evenodd;clip-rule:evenodd;fill:#A66AD7;}
	.st33{fill-rule:evenodd;clip-rule:evenodd;fill:#9481F9;}
	.st34{fill-rule:evenodd;clip-rule:evenodd;fill:#B96ED5;}
	.st35{fill-rule:evenodd;clip-rule:evenodd;fill:#BC83ED;}
	.st36{fill-rule:evenodd;clip-rule:evenodd;fill:#DC82FD;}
	.st37{fill-rule:evenodd;clip-rule:evenodd;fill:#C174E0;}
	.st38{fill-rule:evenodd;clip-rule:evenodd;fill:#7871D4;}
	.st39{fill-rule:evenodd;clip-rule:evenodd;fill:#77DBF2;}
	.st40{fill-rule:evenodd;clip-rule:evenodd;fill:#7772D4;}
	.st41{opacity:0.78;}
	.st42{fill-rule:evenodd;clip-rule:evenodd;fill:#8D85F9;}
	.st43{opacity:0.502;}
	.st44{fill-rule:evenodd;clip-rule:evenodd;fill:#724FA5;}
	.st45{fill-rule:evenodd;clip-rule:evenodd;fill:#BA6ED7;}
	.st46{fill-rule:evenodd;clip-rule:evenodd;fill:#878BFA;}
	.st47{fill-rule:evenodd;clip-rule:evenodd;fill:#9C7AF9;}
	.st48{fill-rule:evenodd;clip-rule:evenodd;fill:#F286FC;}
	.st49{fill-rule:evenodd;clip-rule:evenodd;fill:#A173FC;}
	.st50{fill-rule:evenodd;clip-rule:evenodd;fill:#7450B0;}
	.st51{fill-rule:evenodd;clip-rule:evenodd;fill:#8B63D7;}
	.st52{fill-rule:evenodd;clip-rule:evenodd;fill:#7250B0;}
	.st53{fill-rule:evenodd;clip-rule:evenodd;fill:#6B489B;}
	.st54{fill-rule:evenodd;clip-rule:evenodd;fill:#724DA4;}
	.st55{fill-rule:evenodd;clip-rule:evenodd;fill:#7B52B0;}
	.st56{fill-rule:evenodd;clip-rule:evenodd;fill:#7F52A5;}
	.st57{fill-rule:evenodd;clip-rule:evenodd;fill:#A569D7;}
	.st58{fill-rule:evenodd;clip-rule:evenodd;fill:#E480EE;}
	.st59{fill-rule:evenodd;clip-rule:evenodd;fill:#DBC6FF;}
	.st60{opacity:0.6;}
	.st61{opacity:0.57;}
	.st62{opacity:0.77;}
	.st63{fill-rule:evenodd;clip-rule:evenodd;fill:#6E39B2;}
	.st64{fill-rule:evenodd;clip-rule:evenodd;fill:#8655B5;}
	.st65{fill:#E2E2E2;}
	.st66{font-family:'Roboto-Thin';}
	.st67{font-size:26px;}
	.st68{display:none;fill-rule:evenodd;clip-rule:evenodd;fill:none;stroke:#DDDDDD;stroke-miterlimit:10;}
	.st69{display:none;opacity:0.52;fill-rule:evenodd;clip-rule:evenodd;fill:url(#SVGID_1_);}
</style>
<g id="Pink-4way_1_">
	<g id="Group_6_3_">
		<g id="_x32___x23_8a62d7">
			<g>
				<path class="st0" d="M26,116.7H3.8c-1.4,0-2.5,1.5-2.8,3.3v29c0.3,1.8,1.4,3.3,2.8,3.3H26c1.4,0,2.5-1.5,2.5-3.3v-29
					C28.5,118.2,27.4,116.7,26,116.7z"/>
			</g>
		</g>
		<g id="_x34___x23_7250b0" class="st1">
			<g>
				<path class="st2" d="M7.6,116.7H5.3c-0.1,0-0.3,1.5-0.3,3.3v29c0,1.8,0.1,3.3,0.3,3.3h2.3c0.1,0,0.3-1.5,0.3-3.3v-29
					C7.9,118.2,7.7,116.7,7.6,116.7z"/>
			</g>
		</g>
		<g id="_x33___x23_7450b0" class="st1">
			<g>
				<path class="st2" d="M4.6,116.7H2.2c-0.2,0-0.3,1.5-0.3,3.3v29c0,1.8,0.1,3.3,0.3,3.3h2.4c0.2,0,0.3-1.5,0.3-3.3v-29
					C4.9,118.2,4.8,116.7,4.6,116.7z"/>
			</g>
		</g>
		<g id="_x31___x23_8b63d7" class="st1">
			<g>
				<path class="st2" d="M8.9,116.7h-4c-0.2,0-0.5,1.5-0.5,3.3v29c0,1.8,0.2,3.3,0.5,3.3h4c0.2,0,0.5-1.5,0.5-3.3v-29
					C9.3,118.2,9.1,116.7,8.9,116.7z"/>
			</g>
		</g>
		<g id="_x32___x23_8a62d7_3_" class="st3">
			<g class="st4">
				<path class="st5" d="M314.9,152.4c-4.1-0.1-14.5-0.1-26.2-0.1H41.5c-11.6,0-22.5,0-26.6,0c-1.2,0.4-1.2,1.4-1.2,2v18.3
					c0,0.6,0,1.5,1.6,1.5c4.8,0.1,15.3,0.1,26.2,0.1h247.1c11.7,0,21.6-0.2,25.9,0c1.1-0.1,1.9-0.9,2-2v-17.9
					C316.5,153.6,316,152.7,314.9,152.4z"/>
			</g>
		</g>
	</g>
	<g id="Group_5_3_">
		<g id="_x32___x23_7250b0_21_" class="st1">
			<g>
				<path class="st2" d="M12.2,116.7H2.7c-0.6,0-1.1,1.5-1.1,3.3v29c0,1.8,0.5,3.3,1.1,3.3h9.4c0.6,0,1.1-1.5,1.1-3.3v-29
					C13.2,118.2,12.7,116.7,12.2,116.7z"/>
			</g>
		</g>
		<g id="_x33___x23_7551b1_15_" class="st1">
			<g>
				<path class="st2" d="M19.2,116.7h-6.4c-0.4,0-0.7,1.5-0.7,3.3v29c0,1.8,0.3,3.3,0.7,3.3h6.4c0.4,0,0.7-1.5,0.7-3.3v-29
					C19.9,118.2,19.6,116.7,19.2,116.7z"/>
			</g>
		</g>
		<g id="_x34___x23_7250b0_42_" class="st1">
			<g>
				<path class="st2" d="M16.6,116.7h-2.3c-0.1,0-0.3,1.5-0.3,3.3v29c0,1.8,0.1,3.3,0.3,3.3h2.3c0.1,0,0.3-1.5,0.3-3.3v-29
					C16.9,118.2,16.8,116.7,16.6,116.7z"/>
			</g>
		</g>
		<g id="_x31___x23_7450b0_17_" class="st1">
			<g>
				<path class="st2" d="M15.5,116.7H9.5c-0.4,0-0.7,1.5-0.7,3.3v29c0,1.8,0.3,3.3,0.7,3.3h6.1c0.4,0,0.7-1.5,0.7-3.3v-29
					C16.2,118.2,15.9,116.7,15.5,116.7z"/>
			</g>
		</g>
	</g>
	<g id="Group_4_3_">
		<g id="_x32___x23_6c4ca4" class="st1">
			<g>
				<path class="st2" d="M19.8,116.7h-1.5c-0.1,0-0.2,1.5-0.2,3.3v29c0,1.8,0.1,3.3,0.2,3.3h1.5c0.1,0,0.2-1.5,0.2-3.3v-29
					C19.9,118.2,19.9,116.7,19.8,116.7z"/>
			</g>
		</g>
		<g id="_x34___x23_6c4ca4" class="st1">
			<g>
				<path class="st2" d="M20.9,116.7h-4.2c-0.3,0-0.5,1.5-0.5,3.3v29c0,1.8,0.2,3.3,0.5,3.3h4.2c0.3,0,0.5-1.5,0.5-3.3v-29
					C21.4,118.2,21.2,116.7,20.9,116.7z"/>
			</g>
		</g>
	</g>
	<g id="Group_3_3_">
		<g id="_x34___x23_7b52b0_23_" class="st1">
			<g>
				<path class="st2" d="M24,116.7h-2.3c-0.1,0-0.3,1.5-0.3,3.3v29c0,1.8,0.1,3.3,0.3,3.3H24c0.1,0,0.3-1.5,0.3-3.3v-29
					C24.2,118.2,24.1,116.7,24,116.7z"/>
			</g>
		</g>
		<g id="_x33___x23_8856b0_17_" class="st1">
			<g>
				<path class="st2" d="M23.1,116.7h-2c-0.1,0-0.2,1.5-0.2,3.3v29c0,1.8,0.1,3.3,0.2,3.3h2c0.1,0,0.2-1.5,0.2-3.3v-29
					C23.3,118.2,23.2,116.7,23.1,116.7z"/>
			</g>
		</g>
		<g id="_x31___x23_7f52a5_7_" class="st1">
			<g>
				<path class="st2" d="M23.3,116.7H21c-0.1,0-0.3,1.5-0.3,3.3v29c0,1.8,0.1,3.3,0.3,3.3h2.3c0.1,0,0.3-1.5,0.3-3.3v-29
					C23.6,118.2,23.5,116.7,23.3,116.7z"/>
			</g>
		</g>
	</g>
	<g id="Group_2_3_">
		<g id="_x34___x23_a66ad7" class="st1">
			<g>
				<path class="st2" d="M33,116.7h-2.3c-0.1,0-0.3,1.5-0.3,3.3v29c0,1.8,0.1,3.3,0.3,3.3H33c0.1,0,0.3-1.5,0.3-3.3v-29
					C33.2,118.2,33.1,116.7,33,116.7z"/>
			</g>
		</g>
		<g id="_x33___x23_ba6ed7" class="st1">
			<g>
				<path class="st2" d="M29.9,116.7h-2.3c-0.1,0-0.3,1.5-0.3,3.3v29c0,1.8,0.1,3.3,0.3,3.3h2.3c0.1,0,0.3-1.5,0.3-3.3v-29
					C30.1,118.2,30,116.7,29.9,116.7z"/>
			</g>
		</g>
		<g id="_x32___x23_a569d7" class="st1">
			<g>
				<path class="st2" d="M29.3,116.7h-1.6c-0.1,0-0.2,1.5-0.2,3.3v29c0,1.8,0.1,3.3,0.2,3.3h1.6c0.1,0,0.2-1.5,0.2-3.3v-29
					C29.5,118.2,29.4,116.7,29.3,116.7z"/>
			</g>
		</g>
		<g id="_x31___x23_b96ed5" class="st1">
			<g>
				<path class="st2" d="M32.3,116.7H30c-0.1,0-0.3,1.5-0.3,3.3v29c0,1.8,0.1,3.3,0.3,3.3h2.3c0.1,0,0.3-1.5,0.3-3.3v-29
					C32.6,118.2,32.5,116.7,32.3,116.7z"/>
			</g>
		</g>
	</g>
	<g id="Group_1_3_">
		<g id="_x34___x23_e480ee_7_" class="st1">
			<g>
				<path class="st2" d="M36.1,116.7h-2.3c-0.1,0-0.3,1.5-0.3,3.3v29c0,1.8,0.1,3.3,0.3,3.3h2.3c0.1,0,0.3-1.5,0.3-3.3v-29
					C36.3,118.2,36.2,116.7,36.1,116.7z"/>
			</g>
		</g>
		<g id="_x33___x23_dc82fd_19_" class="st1">
			<g>
				<path class="st2" d="M32.3,116.7H30c-0.1,0-0.3,1.5-0.3,3.3v29c0,1.8,0.1,3.3,0.3,3.3h2.3c0.1,0,0.3-1.5,0.3-3.3v-29
					C32.6,118.2,32.4,116.7,32.3,116.7z"/>
			</g>
		</g>
		<g id="_x32___x23_c174e0_7_" class="st1">
			<g>
				<path class="st2" d="M32.4,116.7h-1.1c-0.1,0-0.1,1.5-0.1,3.3v29c0,1.8,0.1,3.3,0.1,3.3h1.1c0.1,0,0.1-1.5,0.1-3.3v-29
					C32.6,118.2,32.5,116.7,32.4,116.7z"/>
			</g>
		</g>
		<g id="_x31___x23_f286fc_17_" class="st1">
			<g>
				<path class="st2" d="M35.4,116.7h-2.3c-0.1,0-0.3,1.5-0.3,3.3V149c0,1.8,0.1,3.3,0.3,3.3h2.3c0.1,0,0.3-1.5,0.3-3.3V120
					C35.7,118.2,35.6,116.7,35.4,116.7z"/>
			</g>
		</g>
	</g>
</g>
<g id="Pink-4way_copy_2_1_">
	<g id="_x32___x23_7250b0_17_" class="st6">
		<g>
			<path class="st7" d="M4.5,116.7H2.4c-0.1,0-0.2,1.5-0.2,3.3V149c0,1.8,0.1,3.3,0.2,3.3h2.1c0.1,0,0.2-1.5,0.2-3.3V120
				C4.7,118.2,4.6,116.7,4.5,116.7z"/>
		</g>
	</g>
	<g id="Group_6_2_">
		<g id="_x34___x23_7250b0_1_" class="st1">
			<g>
				<path class="st2" d="M7,116.7H5.4c-0.1,0-0.2,1.5-0.2,3.3v29c0,1.8,0.1,3.3,0.2,3.3H7c0.1,0,0.2-1.5,0.2-3.3v-29
					C7.1,118.2,7.1,116.7,7,116.7z"/>
			</g>
		</g>
		<g id="_x33___x23_7450b0_8_" class="st1">
			<g>
				<path class="st2" d="M6,116.7H3.7c-0.1,0-0.3,1.5-0.3,3.3v29c0,1.8,0.1,3.3,0.3,3.3H6c0.1,0,0.3-1.5,0.3-3.3v-29
					C6.2,118.2,6.1,116.7,6,116.7z"/>
			</g>
		</g>
		<g id="_x32___x23_8a62d7_8_" class="st1">
			<g>
				<path class="st2" d="M4.7,116.7H2.4c-0.1,0-0.3,1.5-0.3,3.3V149c0,1.8,0.1,3.3,0.3,3.3h2.3c0.1,0,0.3-1.5,0.3-3.3V120
					C4.9,118.2,4.8,116.7,4.7,116.7z"/>
			</g>
		</g>
	</g>
	<g id="Group_5_2_">
		<g id="_x34___x23_7250b0_30_" class="st1">
			<g>
				<path class="st2" d="M17.7,116.7h-2c-0.1,0-0.2,1.5-0.2,3.3v29c0,1.8,0.1,3.3,0.2,3.3h2c0.1,0,0.2-1.5,0.2-3.3v-29
					C18,118.2,17.9,116.7,17.7,116.7z"/>
			</g>
		</g>
		<g id="_x31___x23_7450b0_12_" class="st8">
			<g>
				<path class="st9" d="M24,116.7h-6.6c-0.4,0-0.7,1.5-0.7,3.3v29.1c0,1.8,0.3,3.3,0.7,3.3H24c0.4,0,0.7-1.5,0.7-3.3V120
					C24.7,118.2,24.4,116.7,24,116.7z"/>
			</g>
		</g>
	</g>
	<g id="Group_4_2_">
		<g id="_x33___x23_6b489b_1_" class="st1">
			<g>
				<path class="st2" d="M15.3,116.7h-0.8c0,0-0.1,1.5-0.1,3.3v29c0,1.8,0,3.3,0.1,3.3h0.8c0,0,0.1-1.5,0.1-3.3v-29
					C15.4,118.2,15.3,116.7,15.3,116.7z"/>
			</g>
		</g>
		<g id="_x32___x23_6c4ca4_1_" class="st1">
			<g>
				<path class="st2" d="M19.7,116.7h-0.6c0,0-0.1,1.5-0.1,3.3v29c0,1.8,0,3.3,0.1,3.3h0.6c0,0,0.1-1.5,0.1-3.3v-29
					C19.8,118.2,19.8,116.7,19.7,116.7z"/>
			</g>
		</g>
		<g id="_x31___x23_724da4_8_" class="st1">
			<g>
				<path class="st2" d="M19.8,116.7h-0.7c0,0-0.1,1.5-0.1,3.3v29c0,1.8,0,3.3,0.1,3.3h0.7c0,0,0.1-1.5,0.1-3.3v-29
					C19.9,118.2,19.9,116.7,19.8,116.7z"/>
			</g>
		</g>
	</g>
	<g id="Group_3_2_">
		<g id="_x34___x23_7b52b0_19_" class="st1">
			<g>
				<path class="st2" d="M26.9,116.7h-2.2c-0.1,0-0.3,1.5-0.3,3.3V149c0,1.8,0.1,3.3,0.3,3.3h2.2c0.1,0,0.3-1.5,0.3-3.3V120
					C27.2,118.2,27,116.7,26.9,116.7z"/>
			</g>
		</g>
		<g id="_x34___x23_7b52b0_11_" class="st1">
			<g>
				<path class="st2" d="M25.5,116.7h-4.9c-0.3,0-0.6,1.5-0.6,3.3V149c0,1.8,0.2,3.3,0.6,3.3h4.9c0.3,0,0.6-1.5,0.6-3.3V120
					C26.1,118.2,25.8,116.7,25.5,116.7z"/>
			</g>
		</g>
		<g id="_x33___x23_8856b0_13_" class="st1">
			<g>
				<path class="st2" d="M22.4,116.7h-1.8c-0.1,0-0.2,1.5-0.2,3.3v29c0,1.8,0.1,3.3,0.2,3.3h1.8c0.1,0,0.2-1.5,0.2-3.3v-29
					C22.6,118.2,22.5,116.7,22.4,116.7z"/>
			</g>
		</g>
		<g id="_x32___x23_724fa5_11_" class="st1">
			<g>
				<path class="st2" d="M21.8,116.8H21c-0.1,0-0.1,1.5-0.1,3.3v29c0,1.8,0,3.3,0.1,3.3h0.9c0.1,0,0.1-1.5,0.1-3.3v-29
					C21.9,118.3,21.9,116.8,21.8,116.8z"/>
			</g>
		</g>
	</g>
	<g id="Group_2_2_" class="st10">
		<g id="_x34___x23_a66ad7_8_" class="st1">
			<g>
				<path class="st2" d="M33.2,116.7h-2.3c-0.1,0-0.3,1.5-0.3,3.3v29c0,1.8,0.1,3.3,0.3,3.3h2.3c0.1,0,0.3-1.5,0.3-3.3v-29
					C33.4,118.2,33.3,116.7,33.2,116.7z"/>
			</g>
		</g>
		<g id="_x33___x23_ba6ed7_3_" class="st1">
			<g>
				<path class="st2" d="M31.3,116.7h-2.3c-0.1,0-0.3,1.5-0.3,3.3v29c0,1.8,0.1,3.3,0.3,3.3h2.3c0.1,0,0.3-1.5,0.3-3.3v-29
					C31.6,118.2,31.5,116.7,31.3,116.7z"/>
			</g>
		</g>
		<g id="_x32___x23_a569d7_3_" class="st8">
			<g>
				<path class="st0" d="M27.4,116.7h-5.6c-0.3,0-0.6,1.5-0.6,3.3v29c0,1.8,0.3,3.3,0.6,3.3h5.6c0.3,0,0.6-1.5,0.6-3.3v-29
					C28,118.2,27.7,116.7,27.4,116.7z"/>
			</g>
		</g>
		<g id="_x31___x23_b96ed5_8_" class="st1">
			<g>
				<path class="st2" d="M32.5,116.7h-2.3c-0.1,0-0.3,1.5-0.3,3.3V149c0,1.8,0.1,3.3,0.3,3.3h2.3c0.1,0,0.3-1.5,0.3-3.3V120
					C32.8,118.2,32.7,116.7,32.5,116.7z"/>
			</g>
		</g>
		<g id="_x32___x23_a569d7_12_" class="st8">
			<g>
				<path class="st0" d="M36.1,116.7H12c-1.5,0-2.7,1.5-2.7,3.3v29c0,1.8,1.2,3.3,2.7,3.3h24.1c1.5,0,2.7-1.5,2.7-3.3v-29
					C38.8,118.2,37.6,116.7,36.1,116.7z"/>
			</g>
		</g>
	</g>
	<g id="Group_1_2_" class="st11">
		<g id="_x31___x23_f286fc_13_" class="st1">
			<g>
				<path class="st2" d="M36.9,116.7h-2.3c-0.1,0-0.3,1.5-0.3,3.3V149c0,1.8,0.1,3.3,0.3,3.3h2.3c0.1,0,0.3-1.5,0.3-3.3V120
					C37.2,118.2,37.1,116.7,36.9,116.7z"/>
			</g>
		</g>
		<g id="_x33___x23_dc82fd_11_" class="st12">
			<g>
				<path class="st13" d="M33.8,116.7h-1.8c-0.1,0-0.2,1.5-0.2,3.3v29c0,1.8,0.1,3.3,0.2,3.3h1.8c0.1,0,0.2-1.5,0.2-3.3v-29
					C34,118.2,34,116.7,33.8,116.7z"/>
			</g>
		</g>
		<g id="_x33___x23_dc82fd_9_" class="st12">
			<g>
				<path class="st14" d="M32.3,116.7h-0.4c0,0,0,1.5,0,3.3v29c0,1.8,0,3.3,0,3.3h0.4c0,0,0-1.5,0-3.3v-29
					C32.3,118.2,32.3,116.7,32.3,116.7z"/>
			</g>
		</g>
	</g>
</g>
<text transform="matrix(1 0 0 1 63.2378 138.7499)" class="st15 st16 st17">THIS IS YOU, CRUSHING THE COMPETITION.</text>
<g id="Layer_16">
</g>
<g>
	<g id="_x34___x23_7250b0_26_" class="st18">
		<g>
			<path class="st19" d="M182.7,60.1h-16.7c-1,0-1.9,1.5-1.9,3.3v29c0,1.8,0.8,3.3,1.9,3.3h16.7c1,0,1.9-1.5,1.9-3.3v-29
				C184.6,61.6,183.8,60.1,182.7,60.1z"/>
		</g>
	</g>
	<g id="_x31___x23_f286fc_7_">
		<g>
			<path class="st20" d="M31.4,60.1H4.1c-1.7,0-3.1,1.5-3.1,3.3v29.1c0,1.8,1.4,3.3,3.1,3.3h27.3c1.7,0,3.1-1.5,3.1-3.3V63.4
				C34.4,61.6,33.1,60.1,31.4,60.1z"/>
		</g>
	</g>
	<g id="_x32___x23_8a62d7_18_">
		<g>
			<path class="st0" d="M303.6,60.1h-19.4c-1.2,0-2.2,1.5-2.2,3.3v29c0,1.8,1,3.3,2.2,3.3h19.4c1.2,0,2.2-1.5,2.2-3.3v-29
				C305.8,61.6,304.8,60.1,303.6,60.1z"/>
		</g>
	</g>
	<g id="_x34___x23_7250b0_21_">
		<g>
			<path class="st21" d="M271.6,60.1h-19.4c-1.2,0-2.2,1.5-2.2,3.3v29c0,1.8,1,3.3,2.2,3.3h19.4c1.2,0,2.2-1.5,2.2-3.3v-29
				C273.8,61.6,272.8,60.1,271.6,60.1z"/>
		</g>
	</g>
	<g id="_x33___x23_7450b0_16_" class="st1">
		<g>
			<path class="st2" d="M298,60.1h-20.8c-1.3,0-2.3,1.5-2.3,3.3v29c0,1.8,1,3.3,2.3,3.3H298c1.3,0,2.3-1.5,2.3-3.3v-29
				C300.3,61.6,299.3,60.1,298,60.1z"/>
		</g>
	</g>
	<g id="_x31___x23_8b63d7_6_" class="st22">
		<g>
			<path class="st23" d="M275.5,60.1h-33.9c-2.1,0-3.8,1.5-3.8,3.3v29c0,1.8,1.7,3.3,3.8,3.3h33.9c2.1,0,3.8-1.5,3.8-3.3v-29
				C279.3,61.6,277.6,60.1,275.5,60.1z"/>
		</g>
	</g>
	<g id="_x34___x23_7250b0_14_" class="st18">
		<g>
			<path class="st24" d="M269.8,60.1h-20.6c-1.3,0-2.3,1.5-2.3,3.3v29c0,1.8,1,3.3,2.3,3.3h20.6c1.3,0,2.3-1.5,2.3-3.3v-29
				C272.2,61.6,271.1,60.1,269.8,60.1z"/>
		</g>
	</g>
	<g id="_x33___x23_7551b1_7_" class="st18">
		<g>
			<path class="st24" d="M213.2,60.1h-11.9c-0.7,0-1.3,1.5-1.3,3.3v29c0,1.8,0.6,3.3,1.3,3.3h11.9c0.7,0,1.3-1.5,1.3-3.3v-29
				C214.5,61.6,213.9,60.1,213.2,60.1z"/>
		</g>
	</g>
	<g id="_x32___x23_7250b0_9_" class="st18">
		<g>
			<path class="st25" d="M253.2,60.1h-21.3c-1.3,0-2.4,1.5-2.4,3.3v29c0,1.8,1.1,3.3,2.4,3.3h21.3c1.3,0,2.4-1.5,2.4-3.3v-29
				C255.6,61.6,254.6,60.1,253.2,60.1z"/>
		</g>
	</g>
	<g id="_x34___x23_7250b0_12_" class="st26">
		<g>
			<path class="st27" d="M195,60.1h-19.4c-1.2,0-2.2,1.5-2.2,3.3v29c0,1.8,1,3.3,2.2,3.3H195c1.2,0,2.2-1.5,2.2-3.3v-29
				C197.2,61.6,196.2,60.1,195,60.1z"/>
		</g>
	</g>
	<g id="_x31___x23_7450b0_7_" class="st18">
		<g>
			<path class="st25" d="M202,60.1h-20.8c-1.3,0-2.3,1.5-2.3,3.3v29c0,1.8,1.1,3.3,2.3,3.3H202c1.3,0,2.3-1.5,2.3-3.3v-29
				C204.4,61.6,203.3,60.1,202,60.1z"/>
		</g>
	</g>
	<g id="_x32___x23_6c4ca4_16_">
		<g>
			<path class="st28" d="M161.3,60.1h-12.5c-0.8,0-1.4,1.5-1.4,3.3v29c0,1.8,0.6,3.3,1.4,3.3h12.5c0.8,0,1.4-1.5,1.4-3.3v-29
				C162.7,61.6,162.1,60.1,161.3,60.1z"/>
		</g>
	</g>
	<g id="_x34___x23_6c4ca4_10_" class="st18">
		<g>
			<path class="st25" d="M174.6,60.1H139c-2.2,0-4,1.5-4,3.3v29c0,1.8,1.8,3.3,4,3.3h35.6c2.2,0,4-1.5,4-3.3v-29
				C178.6,61.6,176.8,60.1,174.6,60.1z"/>
		</g>
	</g>
	<g id="_x34___x23_7b52b0_9_">
		<g>
			<path class="st29" d="M132.7,60.1h-19.6c-1.2,0-2.2,1.5-2.2,3.3v29c0,1.8,1,3.3,2.2,3.3h19.6c1.2,0,2.2-1.5,2.2-3.3v-29
				C134.9,61.6,133.9,60.1,132.7,60.1z"/>
		</g>
	</g>
	<g id="_x33___x23_8856b0_7_">
		<g>
			<path class="st30" d="M137.5,60.1h-17.2c-1.1,0-1.9,1.5-1.9,3.3v29c0,1.8,0.9,3.3,1.9,3.3h17.2c1.1,0,1.9-1.5,1.9-3.3v-29
				C139.5,61.6,138.6,60.1,137.5,60.1z"/>
		</g>
	</g>
	<g id="_x31___x23_7f52a5_3_">
		<g>
			<path class="st31" d="M138.1,60.1h-19.4c-1.2,0-2.2,1.5-2.2,3.3v29c0,1.8,1,3.3,2.2,3.3h19.4c1.2,0,2.2-1.5,2.2-3.3v-29
				C140.3,61.6,139.3,60.1,138.1,60.1z"/>
		</g>
	</g>
	<g id="_x34___x23_a66ad7_16_">
		<g>
			<path class="st32" d="M56,60.1H36.6c-1.2,0-2.2,1.5-2.2,3.3v29c0,1.8,1,3.3,2.2,3.3H56c1.2,0,2.2-1.5,2.2-3.3v-29
				C58.2,61.6,57.2,60.1,56,60.1z"/>
		</g>
	</g>
	<g id="_x33___x23_ba6ed7_16_" class="st18">
		<g>
			<path class="st25" d="M82.5,60.1H63.1c-1.2,0-2.2,1.5-2.2,3.3v29c0,1.8,1,3.3,2.2,3.3h19.4c1.2,0,2.2-1.5,2.2-3.3v-29
				C84.7,61.6,83.7,60.1,82.5,60.1z"/>
		</g>
	</g>
	<g id="_x32___x23_a569d7_20_">
		<g>
			<path class="st33" d="M81.6,60.1H67.9c-0.8,0-1.5,1.5-1.5,3.3v29c0,1.8,0.7,3.3,1.5,3.3h13.6c0.8,0,1.5-1.5,1.5-3.3v-29
				C83.1,61.6,82.4,60.1,81.6,60.1z"/>
		</g>
	</g>
	<g id="_x31___x23_b96ed5_16_">
		<g>
			<path class="st34" d="M61.5,60.1H42c-1.2,0-2.2,1.5-2.2,3.3v29c0,1.8,1,3.3,2.2,3.3h19.4c1.2,0,2.2-1.5,2.2-3.3v-29
				C63.7,61.6,62.7,60.1,61.5,60.1z"/>
		</g>
	</g>
	<g id="_x34___x23_e480ee_3_">
		<g>
			<path class="st35" d="M29.7,60.1H10.3c-1.2,0-2.2,1.5-2.2,3.3v29c0,1.8,1,3.3,2.2,3.3h19.4c1.2,0,2.2-1.5,2.2-3.3v-29
				C31.9,61.6,30.9,60.1,29.7,60.1z"/>
		</g>
	</g>
	<g id="_x33___x23_dc82fd_7_">
		<g>
			<path class="st36" d="M61.7,60.1H42.3c-1.2,0-2.2,1.5-2.2,3.3v29c0,1.8,1,3.3,2.2,3.3h19.4c1.2,0,2.2-1.5,2.2-3.3v-29
				C63.9,61.6,63,60.1,61.7,60.1z"/>
		</g>
	</g>
	<g id="_x32___x23_c174e0_3_">
		<g>
			<path class="st37" d="M50.9,60.1h-9.7c-0.6,0-1.1,1.5-1.1,3.3v29c0,1.8,0.5,3.3,1.1,3.3h9.7c0.6,0,1.1-1.5,1.1-3.3v-29
				C52,61.6,51.5,60.1,50.9,60.1z"/>
		</g>
	</g>
	<g id="_x31___x23_f286fc_5_">
		<g>
			<path class="st38" d="M35.2,60.1H15.8c-1.2,0-2.2,1.5-2.2,3.3v29.1c0,1.8,1,3.3,2.2,3.3h19.4c1.2,0,2.2-1.5,2.2-3.3V63.4
				C37.4,61.6,36.4,60.1,35.2,60.1z"/>
		</g>
	</g>
	<g id="_x33___x23_7450b0_12_" class="st18">
		<g>
			<path class="st19" d="M285.6,60.1h-19.4c-1.2,0-2.2,1.5-2.2,3.3v29c0,1.8,1,3.3,2.2,3.3h19.4c1.2,0,2.2-1.5,2.2-3.3v-29
				C287.8,61.6,286.8,60.1,285.6,60.1z"/>
		</g>
	</g>
	<g id="_x32___x23_8a62d7_14_" class="st1">
		<g>
			<path class="st2" d="M296.5,60.1h-19.4c-1.2,0-2.2,1.5-2.2,3.3v29.1c0,1.8,1,3.3,2.2,3.3h19.4c1.2,0,2.2-1.5,2.2-3.3V63.4
				C298.7,61.6,297.7,60.1,296.5,60.1z"/>
		</g>
	</g>
	<g id="_x33___x23_7551b1_5_" class="st18">
		<g>
			<path class="st25" d="M238.5,60.1h-19.4c-1.2,0-2.2,1.5-2.2,3.3v29c0,1.8,1,3.3,2.2,3.3h19.4c1.2,0,2.2-1.5,2.2-3.3v-29
				C240.7,61.6,239.7,60.1,238.5,60.1z"/>
		</g>
	</g>
	<g id="_x32___x23_7250b0_6_" class="st1">
		<g>
			<path class="st39" d="M299.8,60.1h-17.4c-1.1,0-2,1.5-2,3.3v29.1c0,1.8,0.9,3.3,2,3.3h17.4c1.1,0,2-1.5,2-3.3V63.4
				C301.7,61.6,300.8,60.1,299.8,60.1z"/>
		</g>
	</g>
	<g id="_x31___x23_7450b0_5_" class="st18">
		<g>
			<path class="st25" d="M174.3,60.1h-7.2c-0.4,0-0.8,1.5-0.8,3.3v29.1c0,1.8,0.4,3.3,0.8,3.3h7.2c0.4,0,0.8-1.5,0.8-3.3V63.4
				C175.1,61.6,174.8,60.1,174.3,60.1z"/>
		</g>
	</g>
	<g id="_x33___x23_6b489b_11_" class="st18">
		<g>
			<path class="st25" d="M193.8,60.1H187c-0.4,0-0.8,1.5-0.8,3.3v29c0,1.8,0.3,3.3,0.8,3.3h6.8c0.4,0,0.8-1.5,0.8-3.3v-29
				C194.6,61.6,194.2,60.1,193.8,60.1z"/>
		</g>
	</g>
	<g id="_x32___x23_6c4ca4_12_">
		<g>
			<path class="st28" d="M154.8,60.1h-5.5c-0.3,0-0.6,1.5-0.6,3.3v29c0,1.8,0.3,3.3,0.6,3.3h5.5c0.3,0,0.6-1.5,0.6-3.3v-29
				C155.4,61.6,155.1,60.1,154.8,60.1z"/>
		</g>
	</g>
	<g id="_x31___x23_724da4_11_">
		<g>
			<path class="st40" d="M154.7,60.1h-6.3c-0.4,0-0.7,1.5-0.7,3.3v29c0,1.8,0.3,3.3,0.7,3.3h6.3c0.4,0,0.7-1.5,0.7-3.3v-29
				C155.4,61.6,155.1,60.1,154.7,60.1z"/>
		</g>
	</g>
	<g id="_x34___x23_7b52b0_7_" class="st41">
		<g>
			<path class="st42" d="M107.3,60.1H88.2c-1.2,0-2.1,1.5-2.1,3.3v29.1c0,1.8,1,3.3,2.1,3.3h19.1c1.2,0,2.1-1.5,2.1-3.3V63.4
				C109.4,61.6,108.4,60.1,107.3,60.1z"/>
		</g>
	</g>
	<g id="_x34___x23_7b52b0_5_" class="st18">
		<g>
			<path class="st25" d="M108.1,60.1H96.7c-0.7,0-1.3,1.5-1.3,3.3v29.1c0,1.8,0.6,3.3,1.3,3.3h11.4c0.7,0,1.3-1.5,1.3-3.3V63.4
				C109.4,61.6,108.8,60.1,108.1,60.1z"/>
		</g>
	</g>
	<g id="_x33___x23_8856b0_5_">
		<g>
			<path class="st40" d="M142.2,60.1h-15.5c-1,0-1.7,1.5-1.7,3.3v29c0,1.8,0.8,3.3,1.7,3.3h15.5c1,0,1.7-1.5,1.7-3.3v-29
				C143.9,61.6,143.1,60.1,142.2,60.1z"/>
		</g>
	</g>
	<g id="_x32___x23_724fa5_5_" class="st43">
		<g>
			<path class="st44" d="M138.7,60.1h-7.4c-0.5,0-0.8,1.5-0.8,3.3v29c0,1.8,0.4,3.3,0.8,3.3h7.4c0.5,0,0.8-1.5,0.8-3.3v-29
				C139.5,61.6,139.2,60.1,138.7,60.1z"/>
		</g>
	</g>
	<g id="_x34___x23_a66ad7_12_">
		<g>
			<path class="st32" d="M54.4,60.1H34.9c-1.2,0-2.2,1.5-2.2,3.3v29c0,1.8,1,3.3,2.2,3.3h19.4c1.2,0,2.2-1.5,2.2-3.3v-29
				C56.5,61.6,55.6,60.1,54.4,60.1z"/>
		</g>
	</g>
	<g id="_x33___x23_ba6ed7_12_">
		<g>
			<path class="st45" d="M70,60.1H50.5c-1.2,0-2.2,1.5-2.2,3.3v29c0,1.8,1,3.3,2.2,3.3H70c1.2,0,2.2-1.5,2.2-3.3v-29
				C72.1,61.6,71.2,60.1,70,60.1z"/>
		</g>
	</g>
	<g id="_x32___x23_a569d7_16_" class="st18">
		<g>
			<path class="st25" d="M75.4,60.1H56c-1.2,0-2.2,1.5-2.2,3.3v29c0,1.8,1,3.3,2.2,3.3h19.4c1.2,0,2.2-1.5,2.2-3.3v-29
				C77.6,61.6,76.6,60.1,75.4,60.1z"/>
		</g>
	</g>
	<g id="_x31___x23_b96ed5_12_">
		<g>
			<path class="st46" d="M59.8,60.1H40.4c-1.2,0-2.2,1.5-2.2,3.3v29.1c0,1.8,1,3.3,2.2,3.3h19.4c1.2,0,2.2-1.5,2.2-3.3V63.4
				C62,61.6,61,60.1,59.8,60.1z"/>
		</g>
	</g>
	<g id="_x33___x23_dc82fd_5_">
		<g>
			<path class="st47" d="M44.2,60.1h-15c-0.9,0-1.7,1.5-1.7,3.3v29c0,1.8,0.8,3.3,1.7,3.3h15c0.9,0,1.7-1.5,1.7-3.3v-29
				C45.9,61.6,45.1,60.1,44.2,60.1z"/>
		</g>
	</g>
</g>
<g>
	<g id="_x31___x23_f286fc_3_">
		<g>
			<path class="st48" d="M30.7,3H4C2.3,3,1,4.5,1,6.3v29.1c0,1.8,1.3,3.3,3,3.3h26.7c1.7,0,3-1.5,3-3.3V6.3C33.7,4.5,32.4,3,30.7,3z
				"/>
		</g>
	</g>
	<g id="_x32___x23_8a62d7_6_">
		<g>
			<path class="st49" d="M338.8,3H321c-1.1,0-2,1.5-2,3.3v29c0,1.8,0.9,3.3,2,3.3h17.8c1.1,0,2-1.5,2-3.3v-29
				C340.8,4.5,339.9,3,338.8,3z"/>
		</g>
	</g>
	<g id="_x34___x23_7250b0_10_">
		<g>
			<path class="st21" d="M309.5,3h-17.8c-1.1,0-2,1.5-2,3.3v29c0,1.8,0.9,3.3,2,3.3h17.8c1.1,0,2-1.5,2-3.3v-29
				C311.5,4.5,310.6,3,309.5,3z"/>
		</g>
	</g>
	<g id="_x33___x23_7450b0_5_">
		<g>
			<path class="st50" d="M333.6,3h-19c-1.2,0-2.1,1.5-2.1,3.3v29c0,1.8,1,3.3,2.1,3.3h19c1.2,0,2.1-1.5,2.1-3.3v-29
				C335.8,4.5,334.8,3,333.6,3z"/>
		</g>
	</g>
	<g id="_x31___x23_8b63d7_2_">
		<g>
			<path class="st51" d="M313,3h-31c-1.9,0-3.5,1.5-3.5,3.3v29c0,1.8,1.6,3.3,3.5,3.3h31c1.9,0,3.5-1.5,3.5-3.3v-29
				C316.5,4.5,315,3,313,3z"/>
		</g>
	</g>
	<g id="_x33___x23_7551b1_3_">
		<g>
			<path class="st51" d="M266.1,3h-10.9c-0.7,0-1.2,1.5-1.2,3.3v29c0,1.8,0.5,3.3,1.2,3.3h10.9c0.7,0,1.2-1.5,1.2-3.3v-29
				C267.4,4.5,266.8,3,266.1,3z"/>
		</g>
	</g>
	<g id="_x32___x23_7250b0_4_">
		<g>
			<path class="st52" d="M280.7,3h-19.5C260,3,259,4.5,259,6.3v29c0,1.8,1,3.3,2.2,3.3h19.5c1.2,0,2.2-1.5,2.2-3.3v-29
				C282.9,4.5,281.9,3,280.7,3z"/>
		</g>
	</g>
	<g id="_x34___x23_7250b0_8_">
		<g>
			<path class="st52" d="M249.5,3h-17.8c-1.1,0-2,1.5-2,3.3v29c0,1.8,0.9,3.3,2,3.3h17.8c1.1,0,2-1.5,2-3.3v-29
				C251.5,4.5,250.6,3,249.5,3z"/>
		</g>
	</g>
	<g id="_x31___x23_7450b0_3_">
		<g>
			<path class="st50" d="M256,3h-19c-1.2,0-2.1,1.5-2.1,3.3v29c0,1.8,1,3.3,2.1,3.3h19c1.2,0,2.1-1.5,2.1-3.3v-29
				C258.1,4.5,257.2,3,256,3z"/>
		</g>
	</g>
	<g id="_x32___x23_6c4ca4_6_">
		<g>
			<path class="st28" d="M217,3h-27c-1.7,0-3,1.5-3,3.3v29c0,1.8,1.4,3.3,3,3.3h27c1.7,0,3-1.5,3-3.3v-29C220,4.5,218.7,3,217,3z"/>
		</g>
	</g>
	<g id="_x34___x23_6c4ca4_4_">
		<g>
			<path class="st28" d="M192.5,3h-17.8c-1.1,0-2,1.5-2,3.3v29c0,1.8,0.9,3.3,2,3.3h17.8c1.1,0,2-1.5,2-3.3v-29
				C194.5,4.5,193.6,3,192.5,3z"/>
		</g>
	</g>
	<g id="_x33___x23_6b489b_5_">
		<g>
			<path class="st53" d="M210.7,3h-8.6c-0.5,0-1,1.5-1,3.3v29c0,1.8,0.4,3.3,1,3.3h8.6c0.5,0,1-1.5,1-3.3v-29
				C211.7,4.5,211.3,3,210.7,3z"/>
		</g>
	</g>
	<g id="_x31___x23_724da4_6_">
		<g>
			<path class="st54" d="M194.5,3h-15c-0.9,0-1.7,1.5-1.7,3.3v29c0,1.8,0.8,3.3,1.7,3.3h15c0.9,0,1.7-1.5,1.7-3.3v-29
				C196.2,4.5,195.4,3,194.5,3z"/>
		</g>
	</g>
	<g id="_x34___x23_7b52b0_3_">
		<g>
			<path class="st55" d="M144.6,3h-27.5c-1.7,0-3.1,1.5-3.1,3.3v29c0,1.8,1.4,3.3,3.1,3.3h27.5c1.7,0,3.1-1.5,3.1-3.3v-29
				C147.7,4.5,146.3,3,144.6,3z"/>
		</g>
	</g>
	<g id="_x33___x23_8856b0_3_">
		<g>
			<path class="st30" d="M157,3h-15.7c-1,0-1.8,1.5-1.8,3.3v29c0,1.8,0.8,3.3,1.8,3.3H157c1,0,1.8-1.5,1.8-3.3v-29
				C158.8,4.5,158,3,157,3z"/>
		</g>
	</g>
	<g id="_x32___x23_724fa5_3_">
		<g>
			<path class="st44" d="M165.8,3h-16.7c-1,0-1.9,1.5-1.9,3.3v29c0,1.8,0.8,3.3,1.9,3.3h16.7c1,0,1.9-1.5,1.9-3.3v-29
				C167.7,4.5,166.9,3,165.8,3z"/>
		</g>
	</g>
	<g id="_x31___x23_7f52a5_1_">
		<g>
			<path class="st56" d="M137.5,3h-17.7c-1.1,0-2,1.5-2,3.3v29c0,1.8,0.9,3.3,2,3.3h17.7c1.1,0,2-1.5,2-3.3v-29
				C139.5,4.5,138.6,3,137.5,3z"/>
		</g>
	</g>
	<g id="_x34___x23_a66ad7_5_">
		<g>
			<path class="st32" d="M75.4,3H58.9c-1,0-1.9,1.5-1.9,3.3v29c0,1.8,0.8,3.3,1.9,3.3h16.5c1,0,1.9-1.5,1.9-3.3v-29
				C77.2,4.5,76.4,3,75.4,3z"/>
		</g>
	</g>
	<g id="_x33___x23_ba6ed7_6_">
		<g>
			<path class="st45" d="M97.8,3H81.4c-1,0-1.9,1.5-1.9,3.3v29c0,1.8,0.8,3.3,1.9,3.3h16.5c1,0,1.9-1.5,1.9-3.3v-29
				C99.7,4.5,98.9,3,97.8,3z"/>
		</g>
	</g>
	<g id="_x32___x23_a569d7_6_">
		<g>
			<path class="st57" d="M102.5,3H86c-1,0-1.9,1.5-1.9,3.3v29c0,1.8,0.8,3.3,1.9,3.3h16.5c1,0,1.9-1.5,1.9-3.3v-29
				C104.3,4.5,103.5,3,102.5,3z"/>
		</g>
	</g>
	<g id="_x31___x23_b96ed5_5_">
		<g>
			<path class="st34" d="M80,3H63.6c-1,0-1.9,1.5-1.9,3.3v29c0,1.8,0.8,3.3,1.9,3.3H80c1,0,1.9-1.5,1.9-3.3v-29C81.9,4.5,81,3,80,3z
				"/>
		</g>
	</g>
	<g id="_x34___x23_e480ee_1_">
		<g>
			<path class="st58" d="M25.3,3H8.9C7.9,3,7,4.5,7,6.3v29c0,1.8,0.8,3.3,1.9,3.3h16.5c1,0,1.9-1.5,1.9-3.3v-29
				C27.2,4.5,26.4,3,25.3,3z"/>
		</g>
	</g>
	<g id="_x33___x23_dc82fd_3_">
		<g>
			<path class="st36" d="M52.4,3H36c-1,0-1.9,1.5-1.9,3.3v29c0,1.8,0.8,3.3,1.9,3.3h16.5c1,0,1.9-1.5,1.9-3.3v-29
				C54.3,4.5,53.5,3,52.4,3z"/>
		</g>
	</g>
	<g id="_x32___x23_c174e0_1_">
		<g>
			<path class="st37" d="M43.3,3h-8.2c-0.5,0-0.9,1.5-0.9,3.3v29c0,1.8,0.4,3.3,0.9,3.3h8.2c0.5,0,0.9-1.5,0.9-3.3v-29
				C44.2,4.5,43.8,3,43.3,3z"/>
		</g>
	</g>
	<g id="_x31___x23_f286fc_1_">
		<g>
			<path class="st48" d="M30,3H13.5c-1,0-1.9,1.5-1.9,3.3v29.1c0,1.8,0.8,3.3,1.9,3.3H30c1,0,1.9-1.5,1.9-3.3V6.3
				C31.8,4.5,31,3,30,3z"/>
		</g>
	</g>
	<g id="_x34___x23_7250b0_5_">
		<g>
			<path class="st28" d="M298.6,3h-12.5c-0.8,0-1.4,1.5-1.4,3.3v29c0,1.8,0.6,3.3,1.4,3.3h12.5c0.8,0,1.4-1.5,1.4-3.3v-29
				C300,4.5,299.4,3,298.6,3z"/>
		</g>
	</g>
	<g id="_x33___x23_7450b0_3_" class="st1">
		<g>
			<path class="st59" d="M322.3,3h-17.8c-1.1,0-2,1.5-2,3.3v29c0,1.8,0.9,3.3,2,3.3h17.8c1.1,0,2-1.5,2-3.3v-29
				C324.3,4.5,323.4,3,322.3,3z"/>
		</g>
	</g>
	<g id="_x32___x23_8a62d7_4_" class="st60">
		<g>
			<path class="st21" d="M332.3,3h-17.8c-1.1,0-2,1.5-2,3.3v29.1c0,1.8,0.9,3.3,2,3.3h17.8c1.1,0,2-1.5,2-3.3V6.3
				C334.3,4.5,333.4,3,332.3,3z"/>
		</g>
	</g>
	<g id="_x34___x23_7250b0_2_">
		<g>
			<path class="st30" d="M238.3,3h-15.2c-0.9,0-1.7,1.5-1.7,3.3v29c0,1.8,0.8,3.3,1.7,3.3h15.2c0.9,0,1.7-1.5,1.7-3.3v-29
				C240,4.5,239.3,3,238.3,3z"/>
		</g>
	</g>
	<g id="_x33___x23_7551b1_1_" class="st61">
		<g>
			<path class="st40" d="M246.3,3h-17.8c-1.1,0-2,1.5-2,3.3v29c0,1.8,0.9,3.3,2,3.3h17.8c1.1,0,2-1.5,2-3.3v-29
				C248.3,4.5,247.4,3,246.3,3z"/>
		</g>
	</g>
	<g id="_x32___x23_7250b0_1_" class="st1">
		<g>
			<path class="st49" d="M337.3,3h-17.8c-1.1,0-2,1.5-2,3.3v29.1c0,1.8,0.9,3.3,2,3.3h17.8c1.1,0,2-1.5,2-3.3V6.3
				C339.3,4.5,338.4,3,337.3,3z"/>
		</g>
	</g>
	<g id="_x31___x23_7450b0_1_">
		<g>
			<path class="st50" d="M230.6,3H224c-0.4,0-0.7,1.5-0.7,3.3v29.1c0,1.8,0.3,3.3,0.7,3.3h6.6c0.4,0,0.7-1.5,0.7-3.3V6.3
				C231.4,4.5,231,3,230.6,3z"/>
		</g>
	</g>
	<g id="_x33___x23_6b489b_3_" class="st62">
		<g>
			<path class="st63" d="M204.9,3h-12c-0.7,0-1.4,1.5-1.4,3.3v29c0,1.8,0.6,3.3,1.4,3.3h12c0.7,0,1.4-1.5,1.4-3.3v-29
				C206.3,4.5,205.7,3,204.9,3z"/>
		</g>
	</g>
	<g id="_x34___x23_6c4ca4_2_">
		<g>
			<path class="st28" d="M181,3h-17.8c-1.1,0-2,1.5-2,3.3v29c0,1.8,0.9,3.3,2,3.3H181c1.1,0,2-1.5,2-3.3v-29C183,4.5,182.1,3,181,3z
				"/>
		</g>
	</g>
	<g id="_x32___x23_6c4ca4_4_">
		<g>
			<path class="st28" d="M202.8,3h-5c-0.3,0-0.6,1.5-0.6,3.3v29c0,1.8,0.3,3.3,0.6,3.3h5c0.3,0,0.6-1.5,0.6-3.3v-29
				C203.4,4.5,203.1,3,202.8,3z"/>
		</g>
	</g>
	<g id="_x31___x23_724da4_4_" class="st43">
		<g>
			<path class="st57" d="M172.7,3h-5.8c-0.4,0-0.7,1.5-0.7,3.3v29c0,1.8,0.3,3.3,0.7,3.3h5.8c0.4,0,0.7-1.5,0.7-3.3v-29
				C173.4,4.5,173.1,3,172.7,3z"/>
		</g>
	</g>
	<g id="_x34___x23_7b52b0_1_">
		<g>
			<path class="st55" d="M108.6,3h-24c-1.5,0-2.7,1.5-2.7,3.3v29.1c0,1.8,1.2,3.3,2.7,3.3h24c1.5,0,2.7-1.5,2.7-3.3V6.3
				C111.3,4.5,110.1,3,108.6,3z"/>
		</g>
	</g>
	<g id="_x33___x23_8856b0_1_">
		<g>
			<path class="st64" d="M141.3,3h-14.1c-0.9,0-1.6,1.5-1.6,3.3v29c0,1.8,0.7,3.3,1.6,3.3h14.1c0.9,0,1.6-1.5,1.6-3.3v-29
				C142.9,4.5,142.2,3,141.3,3z"/>
		</g>
	</g>
	<g id="_x32___x23_724fa5_1_" class="st43">
		<g>
			<path class="st44" d="M138.1,3h-6.8c-0.4,0-0.8,1.5-0.8,3.3v29c0,1.8,0.3,3.3,0.8,3.3h6.8c0.4,0,0.8-1.5,0.8-3.3v-29
				C138.9,4.5,138.5,3,138.1,3z"/>
		</g>
	</g>
	<g id="_x34___x23_a66ad7_3_">
		<g>
			<path class="st32" d="M64.7,3H48.3c-1,0-1.9,1.5-1.9,3.3v29c0,1.8,0.8,3.3,1.9,3.3h16.5c1,0,1.9-1.5,1.9-3.3v-29
				C66.6,4.5,65.7,3,64.7,3z"/>
		</g>
	</g>
	<g id="_x33___x23_ba6ed7_4_">
		<g>
			<path class="st45" d="M87.2,3H70.7c-1,0-1.9,1.5-1.9,3.3v29c0,1.8,0.8,3.3,1.9,3.3h16.5c1,0,1.9-1.5,1.9-3.3v-29
				C89,4.5,88.2,3,87.2,3z"/>
		</g>
	</g>
	<g id="_x32___x23_a569d7_4_" class="st43">
		<g>
			<path class="st57" d="M91.8,3H75.4c-1,0-1.9,1.5-1.9,3.3v29c0,1.8,0.8,3.3,1.9,3.3h16.5c1,0,1.9-1.5,1.9-3.3v-29
				C93.7,4.5,92.8,3,91.8,3z"/>
		</g>
	</g>
	<g id="_x31___x23_b96ed5_3_">
		<g>
			<path class="st34" d="M69.3,3H52.9c-1,0-1.9,1.5-1.9,3.3v29.1c0,1.8,0.8,3.3,1.9,3.3h16.5c1,0,1.9-1.5,1.9-3.3V6.3
				C71.2,4.5,70.4,3,69.3,3z"/>
		</g>
	</g>
	<g id="_x33___x23_dc82fd_1_">
		<g>
			<path class="st36" d="M37.4,3H23.3c-0.9,0-1.6,1.5-1.6,3.3v29c0,1.8,0.7,3.3,1.6,3.3h14.1c0.9,0,1.6-1.5,1.6-3.3v-29
				C39,4.5,38.3,3,37.4,3z"/>
		</g>
	</g>
</g>
<g>
	<text transform="matrix(1 0 0 1 51.2619 143.3333)" class="st65 st66 st67">]</text>
</g>
<g id="_x31___x23_724da4_2_" class="st61">
	<g>
		<path class="st40" d="M173,3h-2.9c-0.2,0-0.3,1.5-0.3,3.3v29c0,1.8,0.1,3.3,0.3,3.3h2.9c0.2,0,0.3-1.5,0.3-3.3v-29
			C173.4,4.5,173.2,3,173,3z"/>
	</g>
</g>
<rect x="127.3" y="-38.3" class="st68" width="0" height="187.7"/>
<linearGradient id="SVGID_1_" gradientUnits="userSpaceOnUse" x1="69.1224" y1="48.4167" x2="369.3333" y2="48.4167">
	<stop  offset="0" style="stop-color:#FFFFFF;stop-opacity:0"/>
	<stop  offset="0.9979" style="stop-color:#F5F5F5"/>
</linearGradient>
<rect x="69.1" y="-59" class="st69" width="300.2" height="214.8"/>
</svg>
