<?xml version="1.0" encoding="utf-8"?>
<!-- Generator: Adobe Illustrator 19.0.0, SVG Export Plug-In . SVG Version: 6.00 Build 0)  -->
<!DOCTYPE svg PUBLIC "-//W3C//DTD SVG 1.1//EN" "http://www.w3.org/Graphics/SVG/1.1/DTD/svg11.dtd">
<svg version="1.1" xmlns="http://www.w3.org/2000/svg" xmlns:xlink="http://www.w3.org/1999/xlink" x="0px" y="0px"
	 viewBox="518 -118.4 1074 275.4" style="enable-background:new 518 -118.4 1074 275.4;" xml:space="preserve">
<style type="text/css">
	.st0{fill:url(#SVGID_1_);}
	.st1{opacity:0.34;fill:#288FEB;}
</style>
<g id="Layer_1">
	<linearGradient id="SVGID_1_" gradientUnits="userSpaceOnUse" x1="517.9999" y1="19.3" x2="1592" y2="19.3">
		<stop  offset="0" style="stop-color:#A368EB"/>
		<stop  offset="0.3569" style="stop-color:#288FEB"/>
		<stop  offset="1" style="stop-color:#48F0DE"/>
	</linearGradient>
	<path class="st0" d="M518,97.9V57.7h71.4c4.4-0.8,7-2.9,7.8-6.2c0.2-0.4,0.3-0.9,0.3-1.5v-3.2c0-4.1-2.2-6.7-6.6-7.7h-34.7
		c-6,0-11.7-1.5-17.2-4.5c-13.5-7.6-20.2-17.3-20.2-29.1v-29.4c0-2.8,0.4-5.9,1.2-9.3c4.2-17.6,16.6-26.4,37.3-26.4h80l0.9,40.2
		h-72.5c-0.8,0.2-1.8,0.6-3,1.2c-3,3-4.5,5-4.5,6.2v3.5c0,3.9,3.2,6.4,9.5,7.4h35.4c8.9,0,16.9,3.6,24,10.8
		c7,7.2,10.5,15.3,10.3,24.3v28.8c-0.2,6.4-2.1,12.6-5.6,18.4c-3.5,5.9-7.9,10.3-13.4,13.1c-4.6,2.4-10.7,3.6-18.3,3.6
		C600.1,97.8,518,97.8,518,97.9z M663.8,97.9v-120c0-2,0.2-4.4,0.6-7.2c3-20.2,15.3-30.3,36.9-30.3h55.5c21.6,0,33.9,10.1,36.9,30.3
		c0.4,2.8,0.6,5.2,0.6,7.2v120h-39.9V-8.3c0-1-0.1-1.8-0.3-2.4c-0.8-5.8-5.1-8.7-12.9-8.7h-24.6c-7.8,0-12.1,2.9-12.9,8.7V97.9
		H663.8L663.8,97.9z M821.9,62.2V30.1c0-11.8,3.4-20.9,10.3-27.5c6.9-6.5,16.2-9.8,28-9.8h53.2v-8.4c-0.2-3.4-3-5.5-8.5-6.3h-83
		v-37.7h91.5c1.2,0,3.5,0.2,6.8,0.6c18.7,2.2,29.5,12,32.5,29.4c0.4,2.4,0.6,4.7,0.6,6.9V61c0,2.8-0.2,5.2-0.6,7.2
		c-1.8,9-5.9,16.2-12.3,21.6c-6.4,5.4-14.1,8.1-23.1,8.1h-54.9c-23.2,0-36.5-9.5-39.9-28.5C822.7,67.9,822.5,65.5,821.9,62.2z
		 M863.7,55.4c1.3,1.7,3.3,2.9,6.1,3.5c0.6,0.2,1.3,0.3,2.1,0.3h31.2c6.8,0,10.2-3,10.2-9V39.1c0-3.8-1.7-6.5-5.1-8.1
		c-0.8-0.8-2.6-1.2-5.4-1.2h-35.1c-3.4,0.6-5.4,3.2-6,7.9v12.4C861.8,51.9,862.4,53.7,863.7,55.4z M980.9,157V-17.5
		c0-2,0.2-4.7,0.6-8.1c2.2-19,12.1-30.1,29.7-33.3c2.2-0.4,4-0.6,5.4-0.6h57.3c2.2,0,4.9,0.3,8.1,0.9c20.2,3.8,30.3,16.9,30.3,39.3
		v81.6c0,7-2.4,13.7-7.2,20.1c-1,1.2-2.5,2.8-4.5,4.8c-7.6,7.2-16.1,10.8-25.5,10.8h-54.3v59.1h-10.2C1004,157,994.1,157,980.9,157
		L980.9,157z M1021.1,48.2c0.8,5.4,4.1,8.4,9.9,9.2c0.4,0.2,1.2,0.3,2.4,0.3h30.3c2.6-0.6,4.7-1.8,6.3-3.6c1.6-2.6,2.4-4.5,2.4-5.7
		v-59.8c-0.8-4.2-3.3-6.7-7.5-7.7c-0.4-0.2-0.9-0.3-1.5-0.3h-31.2c-4.6,0-7.9,2.3-9.9,6.8c-1,1.8-1.5,3.5-1.5,5.1v53.3
		C1020.8,46.8,1020.9,47.6,1021.1,48.2L1021.1,48.2z M1139.9,97.8V-82.4c0-11.2,4.4-20.1,13.2-26.7c8-6,17.8-9,29.4-9h25.2V-80
		h-15.9c-0.6,0.2-1,0.3-1.2,0.3c-7.2,1.2-10.8,5.1-10.8,11.7v8.4h27.9v40.2h-27.9V97.9L1139.9,97.8L1139.9,97.8z M1222.7,62.1V30.1
		c0-11.8,3.4-20.9,10.3-27.5c6.9-6.5,16.2-9.8,28-9.8h53.2v-8.4c-0.2-3.4-3-5.5-8.5-6.3h-83v-37.7h91.5c1.2,0,3.5,0.2,6.8,0.6
		c18.7,2.2,29.5,12,32.5,29.4c0.4,2.4,0.6,4.7,0.6,6.9V61c0,2.8-0.2,5.2-0.6,7.2c-1.8,9-5.9,16.2-12.3,21.6
		c-6.4,5.4-14.1,8.1-23.1,8.1h-54.9c-23.2,0-36.5-9.5-39.9-28.5C1223.5,67.9,1223.3,65.5,1222.7,62.1z M1264.5,55.3
		c1.3,1.7,3.3,2.9,6.1,3.5c0.6,0.2,1.3,0.3,2.1,0.3h31.3c6.8,0,10.2-3,10.2-9V39.1c0-3.8-1.7-6.5-5.1-8.1c-0.8-0.8-2.6-1.2-5.4-1.2
		h-35.1c-3.4,0.6-5.4,3.2-6,7.9v12.4C1262.6,51.9,1263.2,53.7,1264.5,55.3z M1379.6,97.8V57.7h71.4c4.4-0.8,7-2.9,7.8-6.2
		c0.2-0.4,0.3-0.9,0.3-1.5v-3.2c0-4.1-2.2-6.7-6.6-7.7h-34.6c-6,0-11.7-1.5-17.2-4.5c-13.5-7.6-20.2-17.3-20.2-29.1v-29.4
		c0-2.8,0.4-5.9,1.2-9.3c4.2-17.6,16.6-26.4,37.3-26.4h80l0.9,40.2h-72.6c-0.8,0.2-1.8,0.6-3,1.2c-3,3-4.5,5-4.5,6.2v3.5
		c0,3.9,3.2,6.4,9.5,7.4h35.4c8.9,0,16.9,3.6,24,10.8c7,7.2,10.5,15.3,10.3,24.3v28.8c-0.2,6.4-2.1,12.6-5.5,18.4
		c-3.5,5.9-8,10.3-13.4,13.1c-4.6,2.4-10.7,3.6-18.3,3.6H1379.6L1379.6,97.8z M1525.4,97.8v-216.3h39.9v58.8h26.7v40.2h-26.7V97.9
		C1565.3,97.9,1525.4,97.9,1525.4,97.8z"/>
	<path class="st1" d="M518,97.9V57.7h71.4c4.4-0.8,7-2.9,7.8-6.2c0.2-0.4,0.3-0.9,0.3-1.5v-3.2c0-4.1-2.2-6.7-6.6-7.7h-34.7
		c-6,0-11.7-1.5-17.2-4.5c-13.5-7.6-20.2-17.3-20.2-29.1v-29.4c0-2.8,0.4-5.9,1.2-9.3c4.2-17.6,16.6-26.4,37.3-26.4h80l0.9,40.2
		h-72.5c-0.8,0.2-1.8,0.6-3,1.2c-3,3-4.5,5-4.5,6.2v3.5c0,3.9,3.2,6.4,9.5,7.4h35.4c8.9,0,16.9,3.6,24,10.8
		c7,7.2,10.5,15.3,10.3,24.3v28.8c-0.2,6.4-2.1,12.6-5.6,18.4c-3.5,5.9-7.9,10.3-13.4,13.1c-4.6,2.4-10.7,3.6-18.3,3.6
		C600.1,97.8,518,97.8,518,97.9z M663.8,97.9v-120c0-2,0.2-4.4,0.6-7.2c3-20.2,15.3-30.3,36.9-30.3h55.5c21.6,0,33.9,10.1,36.9,30.3
		c0.4,2.8,0.6,5.2,0.6,7.2v120h-39.9V-8.3c0-1-0.1-1.8-0.3-2.4c-0.8-5.8-5.1-8.7-12.9-8.7h-24.6c-7.8,0-12.1,2.9-12.9,8.7V97.9
		H663.8L663.8,97.9z M821.9,62.2V30.1c0-11.8,3.4-20.9,10.3-27.5c6.9-6.5,16.2-9.8,28-9.8h53.2v-8.4c-0.2-3.4-3-5.5-8.5-6.3h-83
		v-37.7h91.5c1.2,0,3.5,0.2,6.8,0.6c18.7,2.2,29.5,12,32.5,29.4c0.4,2.4,0.6,4.7,0.6,6.9V61c0,2.8-0.2,5.2-0.6,7.2
		c-1.8,9-5.9,16.2-12.3,21.6c-6.4,5.4-14.1,8.1-23.1,8.1h-54.9c-23.2,0-36.5-9.5-39.9-28.5C822.7,67.9,822.5,65.5,821.9,62.2z
		 M863.7,55.4c1.3,1.7,3.3,2.9,6.1,3.5c0.6,0.2,1.3,0.3,2.1,0.3h31.2c6.8,0,10.2-3,10.2-9V39.1c0-3.8-1.7-6.5-5.1-8.1
		c-0.8-0.8-2.6-1.2-5.4-1.2h-35.1c-3.4,0.6-5.4,3.2-6,7.9v12.4C861.8,51.9,862.4,53.7,863.7,55.4z M980.9,157V-17.5
		c0-2,0.2-4.7,0.6-8.1c2.2-19,12.1-30.1,29.7-33.3c2.2-0.4,4-0.6,5.4-0.6h57.3c2.2,0,4.9,0.3,8.1,0.9c20.2,3.8,30.3,16.9,30.3,39.3
		v81.6c0,7-2.4,13.7-7.2,20.1c-1,1.2-2.5,2.8-4.5,4.8c-7.6,7.2-16.1,10.8-25.5,10.8h-54.3v59.1h-10.2C1004,157,994.1,157,980.9,157
		L980.9,157z M1021.1,48.2c0.8,5.4,4.1,8.4,9.9,9.2c0.4,0.2,1.2,0.3,2.4,0.3h30.3c2.6-0.6,4.7-1.8,6.3-3.6c1.6-2.6,2.4-4.5,2.4-5.7
		v-59.8c-0.8-4.2-3.3-6.7-7.5-7.7c-0.4-0.2-0.9-0.3-1.5-0.3h-31.2c-4.6,0-7.9,2.3-9.9,6.8c-1,1.8-1.5,3.5-1.5,5.1v53.3
		C1020.8,46.8,1020.9,47.6,1021.1,48.2L1021.1,48.2z M1139.9,97.8V-82.4c0-11.2,4.4-20.1,13.2-26.7c8-6,17.8-9,29.4-9h25.2V-80
		h-15.9c-0.6,0.2-1,0.3-1.2,0.3c-7.2,1.2-10.8,5.1-10.8,11.7v8.4h27.9v40.2h-27.9V97.9L1139.9,97.8L1139.9,97.8z M1222.7,62.1V30.1
		c0-11.8,3.4-20.9,10.3-27.5c6.9-6.5,16.2-9.8,28-9.8h53.2v-8.4c-0.2-3.4-3-5.5-8.5-6.3h-83v-37.7h91.5c1.2,0,3.5,0.2,6.8,0.6
		c18.7,2.2,29.5,12,32.5,29.4c0.4,2.4,0.6,4.7,0.6,6.9V61c0,2.8-0.2,5.2-0.6,7.2c-1.8,9-5.9,16.2-12.3,21.6
		c-6.4,5.4-14.1,8.1-23.1,8.1h-54.9c-23.2,0-36.5-9.5-39.9-28.5C1223.5,67.9,1223.3,65.5,1222.7,62.1z M1264.5,55.3
		c1.3,1.7,3.3,2.9,6.1,3.5c0.6,0.2,1.3,0.3,2.1,0.3h31.3c6.8,0,10.2-3,10.2-9V39.1c0-3.8-1.7-6.5-5.1-8.1c-0.8-0.8-2.6-1.2-5.4-1.2
		h-35.1c-3.4,0.6-5.4,3.2-6,7.9v12.4C1262.6,51.9,1263.2,53.7,1264.5,55.3z M1379.6,97.8V57.7h71.4c4.4-0.8,7-2.9,7.8-6.2
		c0.2-0.4,0.3-0.9,0.3-1.5v-3.2c0-4.1-2.2-6.7-6.6-7.7h-34.6c-6,0-11.7-1.5-17.2-4.5c-13.5-7.6-20.2-17.3-20.2-29.1v-29.4
		c0-2.8,0.4-5.9,1.2-9.3c4.2-17.6,16.6-26.4,37.3-26.4h80l0.9,40.2h-72.6c-0.8,0.2-1.8,0.6-3,1.2c-3,3-4.5,5-4.5,6.2v3.5
		c0,3.9,3.2,6.4,9.5,7.4h35.4c8.9,0,16.9,3.6,24,10.8c7,7.2,10.5,15.3,10.3,24.3v28.8c-0.2,6.4-2.1,12.6-5.5,18.4
		c-3.5,5.9-8,10.3-13.4,13.1c-4.6,2.4-10.7,3.6-18.3,3.6H1379.6L1379.6,97.8z M1525.4,97.8v-216.3h39.9v58.8h26.7v40.2h-26.7V97.9
		C1565.3,97.9,1525.4,97.9,1525.4,97.8z"/>
</g>
<g id="Layer_2">
</g>
</svg>
