<?xml version="1.0" encoding="utf-8"?>
<!-- Generator: Adobe Illustrator 19.0.0, SVG Export Plug-In . SVG Version: 6.00 Build 0)  -->
<!DOCTYPE svg PUBLIC "-//W3C//DTD SVG 1.1//EN" "http://www.w3.org/Graphics/SVG/1.1/DTD/svg11.dtd">
<svg version="1.1" xmlns="http://www.w3.org/2000/svg" xmlns:xlink="http://www.w3.org/1999/xlink" x="0px" y="0px"
	 viewBox="518 -272.4 1074 583.4" style="enable-background:new 518 -272.4 1074 583.4;" xml:space="preserve">
<style type="text/css">
	.st0{fill:url(#snapfast_2_);}
	.st1{fill:url(#Tachometer_3_);}
	.st2{opacity:0.34;}
	.st3{fill:#288FEB;}
	.st4{opacity:0.34;fill:#288FEB;}
</style>
<g id="Layer_1">
	<g id="Text_1_">
		<linearGradient id="snapfast_2_" gradientUnits="userSpaceOnUse" x1="517.9999" y1="172.3" x2="1592" y2="172.3">
			<stop  offset="0" style="stop-color:#A368EB"/>
			<stop  offset="0.3569" style="stop-color:#288FEB"/>
			<stop  offset="1" style="stop-color:#48F0DE"/>
		</linearGradient>
		<path id="snapfast" class="st0" d="M518,250.9v-40.2h71.4c4.4-0.8,7-2.9,7.8-6.2c0.2-0.4,0.3-0.9,0.3-1.5v-3.2
			c0-4.1-2.2-6.7-6.6-7.7h-34.7c-6,0-11.7-1.5-17.2-4.5c-13.5-7.6-20.2-17.3-20.2-29.1v-29.4c0-2.8,0.4-5.9,1.2-9.3
			c4.2-17.6,16.6-26.4,37.3-26.4h80l0.9,40.2h-72.5c-0.8,0.2-1.8,0.6-3,1.2c-3,3-4.5,5-4.5,6.2v3.5c0,3.9,3.2,6.4,9.5,7.4h35.4
			c8.9,0,16.9,3.6,24,10.8c7,7.2,10.5,15.3,10.3,24.3v28.8c-0.2,6.4-2.1,12.6-5.6,18.4c-3.5,5.9-7.9,10.3-13.4,13.1
			c-4.6,2.4-10.7,3.6-18.3,3.6L518,250.9L518,250.9z M663.8,250.9v-120c0-2,0.2-4.4,0.6-7.2c3-20.2,15.3-30.3,36.9-30.3h55.5
			c21.6,0,33.9,10.1,36.9,30.3c0.4,2.8,0.6,5.2,0.6,7.2v120h-39.9V144.7c0-1-0.1-1.8-0.3-2.4c-0.8-5.8-5.1-8.7-12.9-8.7h-24.6
			c-7.8,0-12.1,2.9-12.9,8.7v108.6H663.8L663.8,250.9z M821.9,215.2v-32.1c0-11.8,3.4-20.9,10.3-27.5c6.9-6.5,16.2-9.8,28-9.8h53.2
			v-8.4c-0.2-3.4-3-5.5-8.5-6.3h-83V93.3h91.5c1.2,0,3.5,0.2,6.8,0.6c18.7,2.2,29.5,12,32.5,29.4c0.4,2.4,0.6,4.7,0.6,6.9v83.7
			c0,2.8-0.2,5.2-0.6,7.2c-1.8,9-5.9,16.2-12.3,21.6c-6.4,5.4-14.1,8.1-23.1,8.1h-54.9c-23.2,0-36.5-9.5-39.9-28.5
			C822.7,221,822.5,218.6,821.9,215.2z M863.7,208.4c1.3,1.7,3.3,2.9,6.1,3.5c0.6,0.2,1.3,0.3,2.1,0.3h31.2c6.8,0,10.2-3,10.2-9
			v-11.1c0-3.8-1.7-6.5-5.1-8.1c-0.8-0.8-2.6-1.2-5.4-1.2h-35.1c-3.4,0.6-5.4,3.2-6,7.9v12.4C861.8,204.9,862.4,206.7,863.7,208.4
			L863.7,208.4z M980.9,310V135.4c0-2,0.2-4.7,0.6-8.1c2.2-19,12.1-30.1,29.7-33.3c2.2-0.4,4-0.6,5.4-0.6h57.3
			c2.2,0,4.9,0.3,8.1,0.9c20.2,3.8,30.3,16.9,30.3,39.3v81.6c0,7-2.4,13.7-7.2,20.1c-1,1.2-2.5,2.8-4.5,4.8
			c-7.6,7.2-16.1,10.8-25.5,10.8h-54.3V310H980.9L980.9,310z M1021.1,201.2c0.8,5.4,4.1,8.4,9.9,9.2c0.4,0.2,1.2,0.3,2.4,0.3h30.3
			c2.6-0.6,4.7-1.8,6.3-3.6c1.6-2.6,2.4-4.5,2.4-5.7v-59.8c-0.8-4.2-3.3-6.7-7.5-7.7c-0.4-0.2-0.9-0.3-1.5-0.3h-31.2
			c-4.6,0-7.9,2.3-9.9,6.8c-1,1.8-1.5,3.5-1.5,5.1v53.3C1020.8,199.8,1020.9,200.6,1021.1,201.2L1021.1,201.2z M1139.9,250.9V70.6
			c0-11.2,4.4-20.1,13.2-26.7c8-6,17.8-9,29.4-9h25.2V73h-15.9c-0.6,0.2-1,0.3-1.2,0.3c-7.2,1.2-10.8,5.1-10.8,11.7v8.4h27.9v40.2
			h-27.9v117.3L1139.9,250.9L1139.9,250.9z M1222.7,215.2v-32.1c0-11.8,3.4-20.9,10.3-27.5c6.9-6.5,16.2-9.8,28-9.8h53.2v-8.4
			c-0.2-3.4-3-5.5-8.5-6.3h-83V93.3h91.5c1.2,0,3.5,0.2,6.8,0.6c18.7,2.2,29.5,12,32.5,29.4c0.4,2.4,0.6,4.7,0.6,6.9v83.7
			c0,2.8-0.2,5.2-0.6,7.2c-1.8,9-5.9,16.2-12.3,21.6c-6.4,5.4-14.1,8.1-23.1,8.1h-54.9c-23.2,0-36.5-9.5-39.9-28.5
			C1223.5,221,1223.3,218.6,1222.7,215.2z M1264.5,208.4c1.3,1.7,3.3,2.9,6.1,3.5c0.6,0.2,1.3,0.3,2.1,0.3h31.3c6.8,0,10.2-3,10.2-9
			v-11.1c0-3.8-1.7-6.5-5.1-8.1c-0.8-0.8-2.6-1.2-5.4-1.2h-35.1c-3.4,0.6-5.4,3.2-6,7.9v12.4
			C1262.6,204.9,1263.2,206.7,1264.5,208.4L1264.5,208.4z M1379.6,250.9v-40.2h71.4c4.4-0.8,7-2.9,7.8-6.2c0.2-0.4,0.3-0.9,0.3-1.5
			v-3.2c0-4.1-2.2-6.7-6.6-7.7h-34.6c-6,0-11.7-1.5-17.2-4.5c-13.5-7.6-20.2-17.3-20.2-29.1v-29.4c0-2.8,0.4-5.9,1.2-9.3
			c4.2-17.6,16.6-26.4,37.3-26.4h80l0.9,40.2h-72.6c-0.8,0.2-1.8,0.6-3,1.2c-3,3-4.5,5-4.5,6.2v3.5c0,3.9,3.2,6.4,9.5,7.4h35.4
			c8.9,0,16.9,3.6,24,10.8c7,7.2,10.5,15.3,10.3,24.3v28.8c-0.2,6.4-2.1,12.6-5.5,18.4c-3.5,5.9-8,10.3-13.4,13.1
			c-4.6,2.4-10.7,3.6-18.3,3.6L1379.6,250.9L1379.6,250.9z M1525.4,250.9V34.6h39.9v58.8h26.7v40.2h-26.7v117.3H1525.4z"/>
	</g>
	<linearGradient id="Tachometer_3_" gradientUnits="userSpaceOnUse" x1="628.1093" y1="-84.9509" x2="1547.4279" y2="-84.9509">
		<stop  offset="0" style="stop-color:#A368EB"/>
		<stop  offset="0.3569" style="stop-color:#288FEB"/>
		<stop  offset="1" style="stop-color:#48F0DE"/>
	</linearGradient>
	<path id="Tachometer_1_" class="st1" d="M1252.6-107L970.2,77.6c1.3,0.2,9.1,1.4,16.4,9.9c5.2,6,6.6,16,6.6,16l263.7-205.1l1.7-5.3
		C1258.6-106.9,1252.6-107,1252.6-107z M1547.2-43.4c-1.6-5-11.2-6.9-21.2-4.3l-144.3,36.8c-8.2,2.1-13.7,7.4-12.3,11.8
		s9.2,6.4,17.4,4.4l145-35.3C1541.8-32.5,1548.8-38.5,1547.2-43.4z M1501.1-125c-3.3-4.3-13.4-4.6-22.5-0.8l-185.2,76.6
		c-7,2.9-10.5,8.3-8,12c2.6,3.8,10.3,4.6,17.4,1.7l187.4-75C1499.4-114.2,1504.4-120.7,1501.1-125L1501.1-125z M1430.4-190.6
		c-4.5-3.3-14.5-2.1-22.3,2.6l-113.3,67.6c-6.5,3.9-8.7,9.6-4.9,12.7s12.2,2.6,18.9-1.3l115.5-67.3
		C1432.1-180.9,1435-187.3,1430.4-190.6L1430.4-190.6z M1341.9-237.7c5.3,2.2,4.5,8.1-1.9,13.2l-92.9,75.4c-5.4,4.4-13.4,6.1-18,3.9
		c-4.5-2.2-3.9-7.5,1.4-11.9l90.6-75.2C1327.4-237.3,1336.7-239.8,1341.9-237.7L1341.9-237.7z M1244-264.6c5.6,1,6.4,6.2,1.8,11.4
		l-68.9,78c-4.1,4.6-11.4,7.3-16.3,6c-4.9-1.3-5.6-6-1.7-10.6l66.9-77.3C1230.3-262.3,1238.5-265.7,1244-264.6L1244-264.6z
		 M1144.5-273.4c5.5,0.1,7.5,4.2,4.5,9.3l-65.9,108.5c-2.6,4.4-8.7,7.5-13.5,6.9c-4.8-0.5-6.6-4.4-4-8.7l63.7-107.1
		C1132.2-269.5,1139-273.5,1144.5-273.4L1144.5-273.4z M1050.4-266.2c5.1-0.7,8,2.5,6.3,7.1l-26.2,70.9c-1.6,4.3-6.8,8.1-11.6,8.4
		c-4.8,0.3-7.4-2.8-5.9-7l25.2-69.8C1039.8-261.2,1045.3-265.5,1050.4-266.2z M964-247c4.6-1.3,7.9,0.9,7.3,5l-9.6,63.8
		c-0.6,3.9-4.7,7.9-9.2,8.9c-4.4,1-7.5-1.4-7-5.2l9.1-62.7C955.2-241.4,959.4-245.7,964-247z M887.6-218.7c4-1.8,7.5-0.3,7.7,3.2
		l3.6,55.6c0.2,3.5-2.9,7.5-6.9,9s-7.4-0.1-7.6-3.5l-3.7-54.8C880.6-212.7,883.6-217,887.6-218.7z M821.5-183.8
		c-3.4,2-5.4,6.1-4.6,9l19.7,68c0.9,3,4.4,3.9,7.9,2.2c3.5-1.8,5.7-5.6,4.8-8.6l-20-68.9C828.4-185.1,824.9-185.8,821.5-183.8
		L821.5-183.8z M771.5-146.4c-2.4,1.9-3.4,5-2.4,7l17,33.5c1.1,2.2,4.1,2.5,6.6,0.6s3.7-5.2,2.5-7.4l-17.5-33.4
		C776.6-148.2,773.9-148.3,771.5-146.4L771.5-146.4z M732.3-112c-2,2.1-2.7,5.1-1.4,6.9l21.2,28.7c1.4,1.9,4.3,1.7,6.5-0.5
		s2.8-5.5,1.4-7.3l-21.7-28.4C737-114.4,734.3-114.1,732.3-112z M698.4-73.8c-1.7,2.3-2,5.3-0.5,6.7l24.9,23.8
		c1.6,1.6,4.5,0.9,6.4-1.5s2-5.6,0.4-7.2l-25.3-23.4C702.8-76.8,700.2-76.1,698.4-73.8L698.4-73.8z M669.9-32.3
		c-1.5,2.5-1.3,5.4,0.4,6.5l41.8,28.1c1.9,1.3,4.8,0.2,6.4-2.5s1.3-5.9-0.7-7.2l-42.2-27.4C673.9-35.9,671.4-34.8,669.9-32.3z
		 M646.5,13c-1.2,2.7-0.6,5.5,1.2,6.3l30.8,13.6c2,0.9,4.7-0.6,5.9-3.5c1.2-2.8,0.5-5.8-1.5-6.7l-31-13.1
		C650.1,8.8,647.6,10.4,646.5,13z M628.4,61.3c-0.8,2.8,0.1,5.5,2.1,6l33.2,8.1c2.2,0.5,4.7-1.5,5.5-4.5c0.9-3-0.3-5.8-2.4-6.3
		L633.6,57C631.5,56.6,629.2,58.5,628.4,61.3L628.4,61.3z"/>
</g>
<g id="Layer_2">
	<g id="Text_2_" class="st2">
		<path id="snapfast_1_" class="st3" d="M518,250.9v-40.2h71.4c4.4-0.8,7-2.9,7.8-6.2c0.2-0.4,0.3-0.9,0.3-1.5v-3.2
			c0-4.1-2.2-6.7-6.6-7.7h-34.7c-6,0-11.7-1.5-17.2-4.5c-13.5-7.6-20.2-17.3-20.2-29.1v-29.4c0-2.8,0.4-5.9,1.2-9.3
			c4.2-17.6,16.6-26.4,37.3-26.4h80l0.9,40.2h-72.5c-0.8,0.2-1.8,0.6-3,1.2c-3,3-4.5,5-4.5,6.2v3.5c0,3.9,3.2,6.4,9.5,7.4h35.4
			c8.9,0,16.9,3.6,24,10.8c7,7.2,10.5,15.3,10.3,24.3v28.8c-0.2,6.4-2.1,12.6-5.6,18.4c-3.5,5.9-7.9,10.3-13.4,13.1
			c-4.6,2.4-10.7,3.6-18.3,3.6L518,250.9L518,250.9z M663.8,250.9v-120c0-2,0.2-4.4,0.6-7.2c3-20.2,15.3-30.3,36.9-30.3h55.5
			c21.6,0,33.9,10.1,36.9,30.3c0.4,2.8,0.6,5.2,0.6,7.2v120h-39.9V144.7c0-1-0.1-1.8-0.3-2.4c-0.8-5.8-5.1-8.7-12.9-8.7h-24.6
			c-7.8,0-12.1,2.9-12.9,8.7v108.6H663.8L663.8,250.9z M821.9,215.2v-32.1c0-11.8,3.4-20.9,10.3-27.5c6.9-6.5,16.2-9.8,28-9.8h53.2
			v-8.4c-0.2-3.4-3-5.5-8.5-6.3h-83V93.3h91.5c1.2,0,3.5,0.2,6.8,0.6c18.7,2.2,29.5,12,32.5,29.4c0.4,2.4,0.6,4.7,0.6,6.9v83.7
			c0,2.8-0.2,5.2-0.6,7.2c-1.8,9-5.9,16.2-12.3,21.6c-6.4,5.4-14.1,8.1-23.1,8.1h-54.9c-23.2,0-36.5-9.5-39.9-28.5
			C822.7,221,822.5,218.6,821.9,215.2z M863.7,208.4c1.3,1.7,3.3,2.9,6.1,3.5c0.6,0.2,1.3,0.3,2.1,0.3h31.2c6.8,0,10.2-3,10.2-9
			v-11.1c0-3.8-1.7-6.5-5.1-8.1c-0.8-0.8-2.6-1.2-5.4-1.2h-35.1c-3.4,0.6-5.4,3.2-6,7.9v12.4C861.8,204.9,862.4,206.7,863.7,208.4
			L863.7,208.4z M980.9,310V135.4c0-2,0.2-4.7,0.6-8.1c2.2-19,12.1-30.1,29.7-33.3c2.2-0.4,4-0.6,5.4-0.6h57.3
			c2.2,0,4.9,0.3,8.1,0.9c20.2,3.8,30.3,16.9,30.3,39.3v81.6c0,7-2.4,13.7-7.2,20.1c-1,1.2-2.5,2.8-4.5,4.8
			c-7.6,7.2-16.1,10.8-25.5,10.8h-54.3V310H980.9L980.9,310z M1021.1,201.2c0.8,5.4,4.1,8.4,9.9,9.2c0.4,0.2,1.2,0.3,2.4,0.3h30.3
			c2.6-0.6,4.7-1.8,6.3-3.6c1.6-2.6,2.4-4.5,2.4-5.7v-59.8c-0.8-4.2-3.3-6.7-7.5-7.7c-0.4-0.2-0.9-0.3-1.5-0.3h-31.2
			c-4.6,0-7.9,2.3-9.9,6.8c-1,1.8-1.5,3.5-1.5,5.1v53.3C1020.8,199.8,1020.9,200.6,1021.1,201.2L1021.1,201.2z M1139.9,250.9V70.6
			c0-11.2,4.4-20.1,13.2-26.7c8-6,17.8-9,29.4-9h25.2V73h-15.9c-0.6,0.2-1,0.3-1.2,0.3c-7.2,1.2-10.8,5.1-10.8,11.7v8.4h27.9v40.2
			h-27.9v117.3L1139.9,250.9L1139.9,250.9z M1222.7,215.2v-32.1c0-11.8,3.4-20.9,10.3-27.5c6.9-6.5,16.2-9.8,28-9.8h53.2v-8.4
			c-0.2-3.4-3-5.5-8.5-6.3h-83V93.3h91.5c1.2,0,3.5,0.2,6.8,0.6c18.7,2.2,29.5,12,32.5,29.4c0.4,2.4,0.6,4.7,0.6,6.9v83.7
			c0,2.8-0.2,5.2-0.6,7.2c-1.8,9-5.9,16.2-12.3,21.6c-6.4,5.4-14.1,8.1-23.1,8.1h-54.9c-23.2,0-36.5-9.5-39.9-28.5
			C1223.5,221,1223.3,218.6,1222.7,215.2z M1264.5,208.4c1.3,1.7,3.3,2.9,6.1,3.5c0.6,0.2,1.3,0.3,2.1,0.3h31.3c6.8,0,10.2-3,10.2-9
			v-11.1c0-3.8-1.7-6.5-5.1-8.1c-0.8-0.8-2.6-1.2-5.4-1.2h-35.1c-3.4,0.6-5.4,3.2-6,7.9v12.4
			C1262.6,204.9,1263.2,206.7,1264.5,208.4L1264.5,208.4z M1379.6,250.9v-40.2h71.4c4.4-0.8,7-2.9,7.8-6.2c0.2-0.4,0.3-0.9,0.3-1.5
			v-3.2c0-4.1-2.2-6.7-6.6-7.7h-34.6c-6,0-11.7-1.5-17.2-4.5c-13.5-7.6-20.2-17.3-20.2-29.1v-29.4c0-2.8,0.4-5.9,1.2-9.3
			c4.2-17.6,16.6-26.4,37.3-26.4h80l0.9,40.2h-72.6c-0.8,0.2-1.8,0.6-3,1.2c-3,3-4.5,5-4.5,6.2v3.5c0,3.9,3.2,6.4,9.5,7.4h35.4
			c8.9,0,16.9,3.6,24,10.8c7,7.2,10.5,15.3,10.3,24.3v28.8c-0.2,6.4-2.1,12.6-5.5,18.4c-3.5,5.9-8,10.3-13.4,13.1
			c-4.6,2.4-10.7,3.6-18.3,3.6L1379.6,250.9L1379.6,250.9z M1525.4,250.9V34.6h39.9v58.8h26.7v40.2h-26.7v117.3H1525.4z"/>
	</g>
	<path id="Tachometer_2_" class="st4" d="M1252.6-107L970.2,77.6c1.3,0.2,9.1,1.4,16.4,9.9c5.2,6,6.6,16,6.6,16l263.7-205.1l1.7-5.3
		C1258.6-106.9,1252.6-107,1252.6-107z M1547.2-43.4c-1.6-5-11.2-6.9-21.2-4.3l-144.3,36.8c-8.2,2.1-13.7,7.4-12.3,11.8
		s9.2,6.4,17.4,4.4l145-35.3C1541.8-32.5,1548.8-38.5,1547.2-43.4z M1501.1-125c-3.3-4.3-13.4-4.6-22.5-0.8l-185.2,76.6
		c-7,2.9-10.5,8.3-8,12c2.6,3.8,10.3,4.6,17.4,1.7l187.4-75C1499.4-114.2,1504.4-120.7,1501.1-125L1501.1-125z M1430.4-190.6
		c-4.5-3.3-14.5-2.1-22.3,2.6l-113.3,67.6c-6.5,3.9-8.7,9.6-4.9,12.7s12.2,2.6,18.9-1.3l115.5-67.3
		C1432.1-180.9,1435-187.3,1430.4-190.6L1430.4-190.6z M1341.9-237.7c5.3,2.2,4.5,8.1-1.9,13.2l-92.9,75.4c-5.4,4.4-13.4,6.1-18,3.9
		c-4.5-2.2-3.9-7.5,1.4-11.9l90.6-75.2C1327.4-237.3,1336.7-239.8,1341.9-237.7L1341.9-237.7z M1244-264.6c5.6,1,6.4,6.2,1.8,11.4
		l-68.9,78c-4.1,4.6-11.4,7.3-16.3,6c-4.9-1.3-5.6-6-1.7-10.6l66.9-77.3C1230.3-262.3,1238.5-265.7,1244-264.6L1244-264.6z
		 M1144.5-273.4c5.5,0.1,7.5,4.2,4.5,9.3l-65.9,108.5c-2.6,4.4-8.7,7.5-13.5,6.9c-4.8-0.5-6.6-4.4-4-8.7l63.7-107.1
		C1132.2-269.5,1139-273.5,1144.5-273.4L1144.5-273.4z M1050.4-266.2c5.1-0.7,8,2.5,6.3,7.1l-26.2,70.9c-1.6,4.3-6.8,8.1-11.6,8.4
		c-4.8,0.3-7.4-2.8-5.9-7l25.2-69.8C1039.8-261.2,1045.3-265.5,1050.4-266.2z M964-247c4.6-1.3,7.9,0.9,7.3,5l-9.6,63.8
		c-0.6,3.9-4.7,7.9-9.2,8.9c-4.4,1-7.5-1.4-7-5.2l9.1-62.7C955.2-241.4,959.4-245.7,964-247z M887.6-218.7c4-1.8,7.5-0.3,7.7,3.2
		l3.6,55.6c0.2,3.5-2.9,7.5-6.9,9s-7.4-0.1-7.6-3.5l-3.7-54.8C880.6-212.7,883.6-217,887.6-218.7z M821.5-183.8
		c-3.4,2-5.4,6.1-4.6,9l19.7,68c0.9,3,4.4,3.9,7.9,2.2c3.5-1.8,5.7-5.6,4.8-8.6l-20-68.9C828.4-185.1,824.9-185.8,821.5-183.8
		L821.5-183.8z M771.5-146.4c-2.4,1.9-3.4,5-2.4,7l17,33.5c1.1,2.2,4.1,2.5,6.6,0.6s3.7-5.2,2.5-7.4l-17.5-33.4
		C776.6-148.2,773.9-148.3,771.5-146.4L771.5-146.4z M732.3-112c-2,2.1-2.7,5.1-1.4,6.9l21.2,28.7c1.4,1.9,4.3,1.7,6.5-0.5
		s2.8-5.5,1.4-7.3l-21.7-28.4C737-114.4,734.3-114.1,732.3-112z M698.4-73.8c-1.7,2.3-2,5.3-0.5,6.7l24.9,23.8
		c1.6,1.6,4.5,0.9,6.4-1.5s2-5.6,0.4-7.2l-25.3-23.4C702.8-76.8,700.2-76.1,698.4-73.8L698.4-73.8z M669.9-32.3
		c-1.5,2.5-1.3,5.4,0.4,6.5l41.8,28.1c1.9,1.3,4.8,0.2,6.4-2.5s1.3-5.9-0.7-7.2l-42.2-27.4C673.9-35.9,671.4-34.8,669.9-32.3z
		 M646.5,13c-1.2,2.7-0.6,5.5,1.2,6.3l30.8,13.6c2,0.9,4.7-0.6,5.9-3.5c1.2-2.8,0.5-5.8-1.5-6.7l-31-13.1
		C650.1,8.8,647.6,10.4,646.5,13z M628.4,61.3c-0.8,2.8,0.1,5.5,2.1,6l33.2,8.1c2.2,0.5,4.7-1.5,5.5-4.5c0.9-3-0.3-5.8-2.4-6.3
		L633.6,57C631.5,56.6,629.2,58.5,628.4,61.3L628.4,61.3z"/>
</g>
</svg>
