<?xml version="1.0" encoding="utf-8"?>
<!-- Generator: Adobe Illustrator 19.0.0, SVG Export Plug-In . SVG Version: 6.00 Build 0)  -->
<!DOCTYPE svg PUBLIC "-//W3C//DTD SVG 1.1//EN" "http://www.w3.org/Graphics/SVG/1.1/DTD/svg11.dtd">
<svg version="1.1" id="Layer_1" xmlns="http://www.w3.org/2000/svg" xmlns:xlink="http://www.w3.org/1999/xlink" x="0px" y="0px"
	 viewBox="0 0 51.1 51.1" style="enable-background:new 0 0 51.1 51.1;" xml:space="preserve">
<style type="text/css">
	.st0{clip-path:url(#XMLID_34_);fill:#288FEB;}
</style>
<g id="Telephone_3_">
	<defs>
		<rect id="XMLID_28_" x="0.1" y="0.5" width="50" height="50"/>
	</defs>
	<clipPath id="XMLID_34_">
		<use xlink:href="#XMLID_28_"  style="overflow:visible;"/>
	</clipPath>
	<path id="XMLID_29_" class="st0" d="M48.1,6.3l-4.9-4.9c-0.6-0.6-1.3-0.9-2.1-0.9c-0.8,0-1.5,0.3-2.1,0.9l-8.5,8.5
		c-1.2,1.2-1.2,3.1,0,4.2l4.9,4.9c0,0,2.1,3.5-5.6,11.3c-5,5-8.3,5.9-9.9,5.9c-0.9,0-1.3-0.3-1.3-0.3L13.6,31
		c-0.6-0.6-1.3-0.9-2.1-0.9c-0.8,0-1.5,0.3-2.1,0.9l-8.5,8.5c-1.2,1.2-1.2,3.1,0,4.2l4.9,4.9c1.2,1.2,3.3,1.9,6.2,1.9
		c5.9,0,14.9-3.3,24.8-13.2C51.7,22.5,51.7,9.9,48.1,6.3z M31.7,13c-0.5-0.5-0.5-1.4,0-2l8.5-8.5c0.3-0.3,0.6-0.4,1-0.4
		c0.4,0,0.7,0.1,1,0.4l2.1,2.1l0,0L33.8,15.1l0,0L31.7,13z M2.1,42.5c-0.5-0.5-0.5-1.4,0-2l8.5-8.4c0.3-0.3,0.6-0.4,1-0.4
		s0.7,0.1,1,0.4l2.1,2.1h0L4.2,44.7L2.1,42.5z M35.7,36.2C24.2,47.7,15.3,48.9,12,48.9c-2.2,0-4.1-0.5-5-1.5l-1.7-1.7l10.4-10.4
		l1.7,1.7l0.1,0.1l0.2,0.1c0.2,0.1,0.9,0.5,2.2,0.5c2.1,0,5.8-1.1,11.1-6.4c8.2-8.2,6.3-12.5,5.9-13.2L36.7,18l-0.1-0.1l-1.7-1.7
		L45.3,5.8L47,7.5c1.3,1.3,2.1,4.8,0.8,9.7C46.7,21.5,43.7,28.2,35.7,36.2z"/>
</g>
</svg>
