<svg id="Layer_1" xmlns="http://www.w3.org/2000/svg" viewBox="-403 404 193 193" enable-background="new -403 404 193 193"><style>.st0{fill:#FFFFFF;} .st1{fill:none;stroke:#FFFFFF;stroke-width:2;} .st2{fill:none;stroke:#FFFFFF;stroke-width:4.1818;} .st3{filter:url(#Adobe_OpacityMaskFilter);} .st4{mask:url(#mask-2);fill:#288FEB;stroke:#FFFFFF;stroke-width:2;} .st5{filter:url(#Adobe_OpacityMaskFilter_1_);} .st6{mask:url(#mask-4);fill:#FFFFFF;stroke:#FFFFFF;} .st7{filter:url(#Adobe_OpacityMaskFilter_2_);} .st8{mask:url(#mask-8);fill:none;stroke:#288FEB;stroke-width:2;} .st9{filter:url(#Adobe_OpacityMaskFilter_3_);} .st10{mask:url(#mask-10);fill:none;stroke:#288FEB;stroke-width:2;} .st11{filter:url(#Adobe_OpacityMaskFilter_4_);} .st12{mask:url(#mask-12);fill:none;stroke:#288FEB;stroke-width:2;} .st13{filter:url(#Adobe_OpacityMaskFilter_5_);} .st14{mask:url(#mask-16);fill:#FFFFFF;stroke:#288FEB;stroke-width:2;} .st15{filter:url(#Adobe_OpacityMaskFilter_6_);} .st16{mask:url(#mask-20);} .st17{fill:none;stroke:#FFFFFF;} .st18{fill:none;stroke:#1485E0;} .st19{fill:#288FEB;stroke:#FFFFFF;stroke-width:4;} .st20{fill:none;stroke:#FFFFFF;stroke-width:2;stroke-dasharray:2,2;}</style><ellipse id="path-17" class="st0" cx="-312.6" cy="528.9" rx="48.5" ry="48.6"/><ellipse id="path-13" class="st0" cx="-312.6" cy="528.9" rx="48.5" ry="48.6"/><ellipse id="path-5" class="st0" cx="-312.6" cy="528.9" rx="48.5" ry="48.6"/><title>clock</title><g id="Page-1"><g id="WINNER"><g id="Group-_x2B_-super-icons"><g id="super-icons"><g id="clock"><ellipse id="XMLID_12_" class="st1" cx="-312.6" cy="432.9" rx="26.2" ry="26.3"/><path id="XMLID_125_" class="st1" d="M-317.6 458.6h10.5v9.9h-10.5z"/><ellipse id="XMLID_124_" class="st2" cx="-312.6" cy="528.9" rx="60.3" ry="60.5"/><g id="XMLID_679_"><g id="XMLID_123_-Clipped" transform="translate(40.806 75.6)"><defs><filter id="Adobe_OpacityMaskFilter" filterUnits="userSpaceOnUse" x="-401.6" y="405" width="96.5" height="96.6"><feColorMatrix values="1 0 0 0 0 0 1 0 0 0 0 0 1 0 0 0 0 0 1 0"/></filter></defs><mask maskUnits="userSpaceOnUse" x="-401.6" y="405" width="96.5" height="96.6" id="mask-2"><g class="st3"><ellipse id="path-1" class="st0" cx="-353.4" cy="453.3" rx="48.5" ry="48.6"/></g></mask><ellipse id="XMLID_123_" class="st4" cx="-353.4" cy="453.3" rx="47.2" ry="47.3"/></g><g id="XMLID_122_-Clipped" transform="translate(40.806 75.6)"><defs><filter id="Adobe_OpacityMaskFilter_1_" filterUnits="userSpaceOnUse" x="-388" y="418.6" width="69.2" height="69.3"><feColorMatrix values="1 0 0 0 0 0 1 0 0 0 0 0 1 0 0 0 0 0 1 0"/></filter></defs><mask maskUnits="userSpaceOnUse" x="-388" y="418.6" width="69.2" height="69.3" id="mask-4"><g class="st5"><ellipse id="path-3" class="st0" cx="-353.4" cy="453.3" rx="48.5" ry="48.6"/></g></mask><ellipse id="XMLID_122_" class="st6" cx="-353.4" cy="453.3" rx="34.1" ry="34.2"/></g><g id="XMLID_120_-Clipped" transform="translate(40.806 75.6)"><defs><filter id="Adobe_OpacityMaskFilter_2_" filterUnits="userSpaceOnUse" x="-375.1" y="431.6" width="22.4" height="22.4"><feColorMatrix values="1 0 0 0 0 0 1 0 0 0 0 0 1 0 0 0 0 0 1 0"/></filter></defs><mask maskUnits="userSpaceOnUse" x="-375.1" y="431.6" width="22.4" height="22.4" id="mask-8"><g class="st7"><ellipse id="path-7" class="st0" cx="-353.4" cy="453.3" rx="48.5" ry="48.6"/></g></mask><path id="XMLID_120_" class="st8" d="M-353.4 453.3l-21-21"/></g><g id="XMLID_119_-Clipped" transform="translate(40.806 75.6)"><defs><filter id="Adobe_OpacityMaskFilter_3_" filterUnits="userSpaceOnUse" x="-353.2" y="452.9" width="30.2" height="2"><feColorMatrix values="1 0 0 0 0 0 1 0 0 0 0 0 1 0 0 0 0 0 1 0"/></filter></defs><mask maskUnits="userSpaceOnUse" x="-353.2" y="452.9" width="30.2" height="2" id="mask-10"><g class="st9"><ellipse id="path-9" class="st0" cx="-353.4" cy="453.3" rx="48.5" ry="48.6"/></g></mask><path id="XMLID_119_" class="st10" d="M-353.2 453.9h30.2"/></g><g id="XMLID_118_-Clipped" transform="translate(40.806 75.6)"><defs><filter id="Adobe_OpacityMaskFilter_4_" filterUnits="userSpaceOnUse" x="-354.1" y="438.1" width="17.1" height="15.9"><feColorMatrix values="1 0 0 0 0 0 1 0 0 0 0 0 1 0 0 0 0 0 1 0"/></filter></defs><mask maskUnits="userSpaceOnUse" x="-354.1" y="438.1" width="17.1" height="15.9" id="mask-12"><g class="st11"><ellipse id="path-11" class="st0" cx="-353.4" cy="453.3" rx="48.5" ry="48.6"/></g></mask><path id="XMLID_118_" class="st12" d="M-337.7 438.8l-15.7 14.5"/></g><g id="XMLID_116_-Clipped" transform="translate(40.806 75.6)"><defs><filter id="Adobe_OpacityMaskFilter_5_" filterUnits="userSpaceOnUse" x="-358.3" y="448.3" width="9.9" height="9.9"><feColorMatrix values="1 0 0 0 0 0 1 0 0 0 0 0 1 0 0 0 0 0 1 0"/></filter></defs><mask maskUnits="userSpaceOnUse" x="-358.3" y="448.3" width="9.9" height="9.9" id="mask-16"><g class="st13"><ellipse id="path-15" class="st0" cx="-353.4" cy="453.3" rx="48.5" ry="48.6"/></g></mask><ellipse id="XMLID_116_" class="st14" cx="-353.4" cy="453.3" rx="3.9" ry="3.9"/></g><g id="lignes_time_2_-Clipped" transform="translate(40.806 75.6)"><defs><filter id="Adobe_OpacityMaskFilter_6_" filterUnits="userSpaceOnUse" x="-396.7" y="409.9" width="86.6" height="86.7"><feColorMatrix values="1 0 0 0 0 0 1 0 0 0 0 0 1 0 0 0 0 0 1 0"/></filter></defs><mask maskUnits="userSpaceOnUse" x="-396.7" y="409.9" width="86.6" height="86.7" id="mask-20"><g class="st15"><ellipse id="path-19" class="st0" cx="-353.4" cy="453.3" rx="48.5" ry="48.6"/></g></mask><g id="lignes_time_2_" class="st16"><path id="XMLID_111_" class="st17" d="M-353.453 421.757v-11.8"/><path id="XMLID_110_" class="st18" d="M-357.353 415.457l-.5-5.3"/><path id="XMLID_109_" class="st18" d="M-361.253 415.957l-1-5.1"/><path id="XMLID_108_" class="st18" d="M-365.053 417.057l-1.7-5"/><path id="XMLID_107_" class="st18" d="M-368.853 418.457l-2.1-4.7"/><path id="XMLID_106_" class="st18" d="M-372.453 420.257l-2.6-4.6"/><path id="XMLID_105_" class="st18" d="M-375.753 422.357l-3.1-4.2"/><path id="XMLID_104_" class="st18" d="M-378.853 424.857l-3.4-3.8"/><path id="XMLID_103_" class="st18" d="M-381.653 427.757l-3.9-3.5"/><path id="XMLID_102_" class="st18" d="M-384.153 430.957l-4.3-3.2"/><path id="XMLID_101_" class="st18" d="M-386.353 434.257l-4.5-2.6"/><path id="XMLID_100_" class="st18" d="M-388.053 437.757l-4.9-2.1"/><path id="XMLID_99_" class="st18" d="M-389.453 441.457l-5-1.6"/><path id="XMLID_98_" class="st18" d="M-390.553 445.357l-5.1-1.2"/><path id="XMLID_97_" class="st18" d="M-391.153 449.357l-5.2-.5"/><path id="XMLID_96_" class="st17" d="M-384.853 453.257h-11.9"/><path id="XMLID_95_" class="st18" d="M-391.153 457.257l-5.2.5"/><path id="XMLID_94_" class="st18" d="M-390.553 461.157l-5.1 1.2"/><path id="XMLID_93_" class="st18" d="M-389.453 465.157l-5 1.6"/><path id="XMLID_92_" class="st18" d="M-388.053 468.757l-4.9 2.1"/><path id="XMLID_91_" class="st18" d="M-386.353 472.357l-4.5 2.6"/><path id="XMLID_90_" class="st18" d="M-384.153 475.657l-4.3 3.2"/><path id="XMLID_89_" class="st18" d="M-381.653 478.757l-3.9 3.5"/><path id="XMLID_88_" class="st18" d="M-378.853 481.657l-3.4 3.8"/><path id="XMLID_87_" class="st18" d="M-375.753 484.157l-3.1 4.2"/><path id="XMLID_86_" class="st18" d="M-372.453 486.257l-2.6 4.6"/><path id="XMLID_85_" class="st18" d="M-368.853 488.157l-2.1 4.7"/><path id="XMLID_84_" class="st18" d="M-365.053 489.557l-1.7 5"/><path id="XMLID_83_" class="st18" d="M-361.253 490.657l-1 5.1"/><path id="XMLID_82_" class="st18" d="M-357.353 491.157l-.5 5.3"/><path id="XMLID_81_" class="st17" d="M-353.453 484.857v11.8"/><path id="XMLID_80_" class="st18" d="M-349.353 491.157l.5 5.3"/><path id="XMLID_79_" class="st18" d="M-345.453 490.657l1 5.1"/><path id="XMLID_78_" class="st18" d="M-341.653 489.557l1.6 5"/><path id="XMLID_77_" class="st18" d="M-337.953 488.157l2.2 4.7"/><path id="XMLID_76_" class="st18" d="M-334.353 486.257l2.6 4.6"/><path id="XMLID_75_" class="st18" d="M-330.953 484.157l3 4.2"/><path id="XMLID_74_" class="st18" d="M-327.953 481.657l3.5 3.8"/><path id="XMLID_73_" class="st18" d="M-325.053 478.757l3.9 3.5"/><path id="XMLID_72_" class="st18" d="M-322.553 475.657l4.2 3.2"/><path id="XMLID_71_" class="st18" d="M-320.353 472.357l4.5 2.6"/><path id="XMLID_70_" class="st18" d="M-318.653 468.757l4.9 2.1"/><path id="XMLID_69_" class="st18" d="M-317.253 465.157l5 1.6"/><path id="XMLID_68_" class="st18" d="M-316.153 461.157l5.1 1.2"/><path id="XMLID_67_" class="st18" d="M-315.453 457.257l5.2.5"/><path id="XMLID_66_" class="st17" d="M-321.953 453.257h11.8"/><path id="XMLID_65_" class="st18" d="M-315.453 449.357l5.2-.5"/><path id="XMLID_64_" class="st18" d="M-316.153 445.357l5.1-1.2"/><path id="XMLID_63_" class="st18" d="M-317.253 441.457l5-1.6"/><path id="XMLID_62_" class="st18" d="M-318.653 437.757l4.9-2.1"/><path id="XMLID_61_" class="st18" d="M-320.353 434.257l4.5-2.6"/><path id="XMLID_60_" class="st18" d="M-322.553 430.957l4.2-3.2"/><path id="XMLID_59_" class="st18" d="M-325.053 427.757l3.9-3.5"/><path id="XMLID_58_" class="st18" d="M-327.953 424.857l3.5-3.8"/><path id="XMLID_57_" class="st18" d="M-330.953 422.357l3-4.2"/><path id="XMLID_56_" class="st18" d="M-334.353 420.257l2.6-4.6"/><path id="XMLID_55_" class="st18" d="M-337.953 418.457l2.2-4.7"/><path id="XMLID_54_" class="st18" d="M-341.653 417.057l1.6-5"/><path id="XMLID_53_" class="st18" d="M-345.453 415.957l1-5.1"/><path id="XMLID_52_" class="st18" d="M-349.353 415.457l.5-5.3"/></g></g></g><g id="XMLID_675_"><path id="XMLID_11_" class="st19" d="M-300.298 440.17h-23.1c-3 0-5.9.5-5.9 3.7v14.7h34.1v-14.7c-.1-3.2-2.1-3.7-5.1-3.7z"/><path id="XMLID_49_" class="st20" d="M-324.398 446.07h28.9"/><path id="XMLID_48_" class="st20" d="M-324.398 451.37h28.9"/></g></g></g></g></g></g></svg>