<?xml version="1.0" encoding="utf-8"?>
<!-- Generator: Adobe Illustrator 19.0.0, SVG Export Plug-In . SVG Version: 6.00 Build 0)  -->
<!DOCTYPE svg PUBLIC "-//W3C//DTD SVG 1.1//EN" "http://www.w3.org/Graphics/SVG/1.1/DTD/svg11.dtd">
<svg version="1.1" id="Layer_1" xmlns:sketch="http://www.bohemiancoding.com/sketch/ns"
	 xmlns="http://www.w3.org/2000/svg" xmlns:xlink="http://www.w3.org/1999/xlink" x="0px" y="0px" viewBox="27 -0.3 91.6 38.3"
	 style="enable-background:new 27 -0.3 91.6 38.3;" xml:space="preserve">
<style type="text/css">
	.st0{enable-background:new    ;}
	.st1{fill:#2D3238;}
</style>
<title>howd</title>
<desc>Created with Sketch Beta.</desc>
<g class="st0">
	<path class="st1" d="M38.1,21h2.4c1.4,0,2.5-0.2,3.6-0.7c1-0.5,1.8-1.1,2.3-2c0.5-0.8,0.8-1.8,0.8-2.9c0-1.8-0.5-3.3-1.6-4.3
		c-1-1-2.5-1.6-4.5-1.6c-1.8,0-3.4,0.5-4.5,1.6s-1.8,2.5-1.8,4.3h-2.4c0-1.5,0.4-2.8,1.1-4.1c0.8-1.2,1.8-2.2,3.1-2.9
		c1.3-0.7,2.8-1,4.4-1c2.6,0,4.7,0.7,6.2,2.1c1.5,1.4,2.3,3.4,2.3,5.8c0,1.4-0.4,2.7-1.3,3.8s-2.1,2-3.6,2.6
		c1.8,0.5,3.1,1.4,4.1,2.6c0.9,1.2,1.4,2.7,1.4,4.4c0,2.5-0.8,4.4-2.4,5.9c-1.6,1.5-3.8,2.2-6.4,2.2c-1.7,0-3.3-0.3-4.7-1
		c-1.4-0.7-2.5-1.6-3.3-2.9c-0.8-1.2-1.2-2.7-1.2-4.3h2.4c0,1.8,0.6,3.3,1.9,4.5s2.9,1.7,4.9,1.7c2,0,3.6-0.5,4.8-1.6
		s1.7-2.6,1.7-4.5c0-1.9-0.6-3.4-1.8-4.4c-1.2-1-3-1.5-5.4-1.5h-2.4V21z"/>
	<path class="st1" d="M70,23.4c-0.8,1.2-1.9,2.2-3.1,2.9c-1.2,0.7-2.6,1-4.1,1c-1.6,0-3.1-0.4-4.3-1.3s-2.2-2-2.9-3.5
		c-0.7-1.5-1-3.1-1-4.9c0-1.9,0.4-3.6,1.1-5.2s1.8-2.8,3.1-3.6C60,8,61.5,7.5,63.2,7.5c2.9,0,5.1,1,6.7,3s2.4,4.9,2.4,8.6v2.1
		c0,5.2-1.1,9.1-3.3,11.7s-5.6,3.9-10.1,3.9h-0.4l0-2.1h0.8c3.4-0.1,6-1,7.8-2.9C69,30,69.9,27.2,70,23.4z M63.1,25.2
		c1.6,0,3-0.5,4.3-1.4c1.3-0.9,2.1-2.2,2.7-3.7v-1.4c0-2.9-0.6-5.2-1.8-6.8c-1.2-1.6-2.9-2.4-4.9-2.4c-1.9,0-3.4,0.8-4.6,2.3
		s-1.8,3.4-1.8,5.7c0,2.2,0.6,4,1.7,5.5C59.7,24.5,61.2,25.2,63.1,25.2z"/>
	<path class="st1" d="M92.4,23.4c-0.8,1.2-1.9,2.2-3.1,2.9c-1.2,0.7-2.6,1-4.1,1c-1.6,0-3.1-0.4-4.3-1.3s-2.2-2-2.9-3.5
		c-0.7-1.5-1-3.1-1-4.9c0-1.9,0.4-3.6,1.1-5.2s1.8-2.8,3.1-3.6c1.3-0.9,2.8-1.3,4.5-1.3c2.9,0,5.1,1,6.7,3s2.4,4.9,2.4,8.6v2.1
		c0,5.2-1.1,9.1-3.3,11.7s-5.6,3.9-10.1,3.9h-0.4l0-2.1h0.8c3.4-0.1,6-1,7.8-2.9C91.4,30,92.3,27.2,92.4,23.4z M85.5,25.2
		c1.6,0,3-0.5,4.3-1.4c1.3-0.9,2.1-2.2,2.7-3.7v-1.4c0-2.9-0.6-5.2-1.8-6.8c-1.2-1.6-2.9-2.4-4.9-2.4c-1.9,0-3.4,0.8-4.6,2.3
		s-1.8,3.4-1.8,5.7c0,2.2,0.6,4,1.7,5.5C82.1,24.5,83.6,25.2,85.5,25.2z"/>
</g>
<g class="st0">
	<path class="st1" d="M95.2,37.4h-0.7l3.6-9.5h0.6L95.2,37.4z"/>
</g>
<g class="st0">
	<path class="st1" d="M100.9,27.9l3.5,8.4l3.5-8.4h1.1v9.5h-0.8v-4.1l0.1-4.2l-3.5,8.4h-0.6l-3.5-8.3l0.1,4.2v4.2h-0.8v-9.5H100.9z"
		/>
	<path class="st1" d="M118.4,33.2c0,0.9-0.2,1.6-0.5,2.3c-0.3,0.7-0.7,1.2-1.3,1.5c-0.6,0.4-1.2,0.5-1.9,0.5c-1.1,0-2-0.4-2.7-1.2
		c-0.7-0.8-1-1.9-1-3.2v-1c0-0.9,0.2-1.6,0.5-2.3s0.7-1.2,1.3-1.5c0.6-0.4,1.2-0.5,1.9-0.5c0.7,0,1.4,0.2,1.9,0.5
		c0.6,0.4,1,0.9,1.3,1.5c0.3,0.6,0.5,1.4,0.5,2.2V33.2z M117.6,32.2c0-1.1-0.3-2-0.8-2.7s-1.2-1-2.1-1c-0.9,0-1.6,0.3-2.1,1
		c-0.5,0.7-0.8,1.6-0.8,2.7v1c0,1.1,0.3,2,0.8,2.7c0.5,0.7,1.2,1,2.1,1c0.9,0,1.6-0.3,2.1-1c0.5-0.7,0.8-1.6,0.8-2.7V32.2z"/>
</g>
<g class="st0">
	<path class="st1" d="M32,8.4c0-0.4-0.1-0.7-0.4-0.9C31.4,7.2,31,7,30.4,6.8c-0.8-0.3-1.4-0.6-1.8-1S28,4.8,28,4.2
		c0-0.6,0.2-1.2,0.6-1.6c0.4-0.4,0.9-0.7,1.5-0.7V0.6H31v1.3c0.7,0.1,1.2,0.4,1.5,0.8s0.6,1.1,0.6,1.9H32c0-0.6-0.1-1-0.4-1.3
		C31.3,3,31,2.8,30.5,2.8c-0.5,0-0.8,0.1-1.1,0.4c-0.2,0.2-0.4,0.6-0.4,1c0,0.4,0.1,0.7,0.4,1c0.3,0.2,0.7,0.5,1.3,0.6
		c0.6,0.2,1.1,0.4,1.4,0.6c0.3,0.2,0.6,0.5,0.7,0.8c0.2,0.3,0.2,0.7,0.2,1.1c0,0.7-0.2,1.2-0.6,1.6s-1,0.6-1.7,0.7v1.1H30v-1.1
		c-0.7-0.1-1.3-0.3-1.7-0.8c-0.4-0.5-0.6-1.1-0.6-1.8h1.1c0,0.5,0.1,1,0.4,1.3c0.3,0.3,0.7,0.4,1.2,0.4c0.5,0,0.9-0.1,1.2-0.4
		S32,8.8,32,8.4z"/>
</g>
</svg>
