<?xml version="1.0" encoding="utf-8"?>
<!-- Generator: Adobe Illustrator 19.0.0, SVG Export Plug-In . SVG Version: 6.00 Build 0)  -->
<!DOCTYPE svg PUBLIC "-//W3C//DTD SVG 1.1//EN" "http://www.w3.org/Graphics/SVG/1.1/DTD/svg11.dtd">
<svg version="1.1" id="Layer_1" xmlns:sketch="http://www.bohemiancoding.com/sketch/ns"
	 xmlns="http://www.w3.org/2000/svg" xmlns:xlink="http://www.w3.org/1999/xlink" x="0px" y="0px" viewBox="27 -0.3 91.6 38.3"
	 style="enable-background:new 27 -0.3 91.6 38.3;" xml:space="preserve">
<style type="text/css">
	.st0{enable-background:new    ;}
	.st1{fill:#2D3238;}
</style>
<title>howd</title>
<desc>Created with Sketch Beta.</desc>
<g class="st0">
	<path class="st1" d="M50.8,36.4h-18v-1.8l9.9-11.2c1.6-1.9,2.8-3.4,3.4-4.7c0.6-1.2,0.9-2.4,0.9-3.6c0-1.8-0.5-3.3-1.6-4.3
		c-1.1-1.1-2.5-1.6-4.4-1.6c-1.9,0-3.5,0.6-4.7,1.9c-1.2,1.2-1.8,2.8-1.8,4.8h-2.3c0-1.6,0.4-3.1,1.1-4.4c0.7-1.3,1.8-2.4,3.1-3.1
		c1.3-0.8,2.9-1.1,4.6-1.1c2.6,0,4.7,0.7,6.2,2.1s2.2,3.3,2.2,5.6c0,1.3-0.4,2.8-1.3,4.4c-0.8,1.6-2.3,3.6-4.4,6l-8,9.1h15.1V36.4z"
		/>
	<path class="st1" d="M69.7,27.1h4.5v2h-4.5v7.3h-2.4v-7.3H53.9v-1.3L67.2,7.6h2.6V27.1z M56.8,27.1h10.6V10.7l-1,1.8L56.8,27.1z"/>
	<path class="st1" d="M92.4,23.1c-0.8,1.2-1.9,2.2-3.1,2.9c-1.2,0.7-2.6,1-4.1,1c-1.6,0-3.1-0.4-4.3-1.3s-2.2-2-2.9-3.5
		c-0.7-1.5-1-3.1-1-4.9c0-1.9,0.4-3.6,1.1-5.2s1.8-2.8,3.1-3.6c1.3-0.9,2.8-1.3,4.5-1.3c2.9,0,5.1,1,6.7,3s2.4,4.9,2.4,8.6V21
		c0,5.2-1.1,9.1-3.3,11.7s-5.6,3.9-10.1,3.9h-0.4l0-2.1h0.8c3.4-0.1,6-1,7.8-2.9C91.4,29.7,92.3,26.9,92.4,23.1z M85.5,24.9
		c1.6,0,3-0.5,4.3-1.4c1.3-0.9,2.1-2.2,2.7-3.7v-1.4c0-2.9-0.6-5.2-1.8-6.8c-1.2-1.6-2.9-2.4-4.9-2.4c-1.9,0-3.4,0.8-4.6,2.3
		s-1.8,3.4-1.8,5.7c0,2.2,0.6,4,1.7,5.5C82.1,24.2,83.6,24.9,85.5,24.9z"/>
</g>
<g class="st0">
	<path class="st1" d="M95.2,37.1h-0.7l3.6-9.5h0.6L95.2,37.1z"/>
</g>
<g class="st0">
	<path class="st1" d="M100.9,27.6l3.5,8.4l3.5-8.4h1.1v9.5h-0.8V33l0.1-4.2l-3.5,8.4h-0.6l-3.5-8.3l0.1,4.2v4.2h-0.8v-9.5H100.9z"/>
	<path class="st1" d="M118.4,32.9c0,0.9-0.2,1.6-0.5,2.3c-0.3,0.7-0.7,1.2-1.3,1.5c-0.6,0.4-1.2,0.5-1.9,0.5c-1.1,0-2-0.4-2.7-1.2
		c-0.7-0.8-1-1.9-1-3.2v-1c0-0.9,0.2-1.6,0.5-2.3s0.7-1.2,1.3-1.5c0.6-0.4,1.2-0.5,1.9-0.5c0.7,0,1.4,0.2,1.9,0.5
		c0.6,0.4,1,0.9,1.3,1.5c0.3,0.6,0.5,1.4,0.5,2.2V32.9z M117.6,31.9c0-1.1-0.3-2-0.8-2.7s-1.2-1-2.1-1c-0.9,0-1.6,0.3-2.1,1
		c-0.5,0.7-0.8,1.6-0.8,2.7v1c0,1.1,0.3,2,0.8,2.7c0.5,0.7,1.2,1,2.1,1c0.9,0,1.6-0.3,2.1-1c0.5-0.7,0.8-1.6,0.8-2.7V31.9z"/>
</g>
<g class="st0">
	<path class="st1" d="M32,8.1c0-0.4-0.1-0.7-0.4-0.9c-0.3-0.2-0.7-0.5-1.3-0.7c-0.8-0.3-1.4-0.6-1.8-1S28,4.5,28,3.9
		c0-0.6,0.2-1.2,0.6-1.6c0.4-0.4,0.9-0.7,1.5-0.7V0.3H31v1.3c0.7,0.1,1.2,0.4,1.5,0.8s0.6,1.1,0.6,1.9H32c0-0.6-0.1-1-0.4-1.3
		c-0.3-0.3-0.6-0.5-1.1-0.5c-0.5,0-0.8,0.1-1.1,0.4c-0.2,0.2-0.4,0.6-0.4,1c0,0.4,0.1,0.7,0.4,1c0.3,0.2,0.7,0.5,1.3,0.6
		c0.6,0.2,1.1,0.4,1.4,0.6c0.3,0.2,0.6,0.5,0.7,0.8c0.2,0.3,0.2,0.7,0.2,1.1c0,0.7-0.2,1.2-0.6,1.6s-1,0.6-1.7,0.7v1.1H30v-1.1
		c-0.7-0.1-1.3-0.3-1.7-0.8c-0.4-0.5-0.6-1.1-0.6-1.8h1.1c0,0.5,0.1,1,0.4,1.3c0.3,0.3,0.7,0.4,1.2,0.4c0.5,0,0.9-0.1,1.2-0.4
		S32,8.5,32,8.1z"/>
</g>
</svg>
