<?xml version="1.0" encoding="utf-8"?>
<!-- Generator: Adobe Illustrator 19.0.0, SVG Export Plug-In . SVG Version: 6.00 Build 0)  -->
<!DOCTYPE svg PUBLIC "-//W3C//DTD SVG 1.1//EN" "http://www.w3.org/Graphics/SVG/1.1/DTD/svg11.dtd">
<svg version="1.1" id="Layer_1" xmlns:sketch="http://www.bohemiancoding.com/sketch/ns"
	 xmlns="http://www.w3.org/2000/svg" xmlns:xlink="http://www.w3.org/1999/xlink" x="0px" y="0px" viewBox="-403 404 193 193"
	 style="enable-background:new -403 404 193 193;" xml:space="preserve">
<style type="text/css">
	.st0{fill:#FFFFFF;}
	.st1{fill:none;stroke:#FFFFFF;stroke-width:2;}
	.st2{fill:none;stroke:#FFFFFF;stroke-width:4.1818;}
	.st3{filter:url(#Adobe_OpacityMaskFilter);}
	.st4{mask:url(#mask-2);fill:#288FEB;stroke:#FFFFFF;stroke-width:2;}
	.st5{filter:url(#Adobe_OpacityMaskFilter_1_);}
	.st6{mask:url(#mask-4);fill:#FFFFFF;stroke:#FFFFFF;}
	.st7{filter:url(#Adobe_OpacityMaskFilter_2_);}
	.st8{mask:url(#mask-8);fill:none;stroke:#288FEB;stroke-width:2;}
	.st9{filter:url(#Adobe_OpacityMaskFilter_3_);}
	.st10{mask:url(#mask-10);fill:none;stroke:#288FEB;stroke-width:2;}
	.st11{filter:url(#Adobe_OpacityMaskFilter_4_);}
	.st12{mask:url(#mask-12);fill:none;stroke:#288FEB;stroke-width:2;}
	.st13{filter:url(#Adobe_OpacityMaskFilter_5_);}
	.st14{mask:url(#mask-16);fill:#FFFFFF;stroke:#288FEB;stroke-width:2;}
	.st15{filter:url(#Adobe_OpacityMaskFilter_6_);}
	.st16{mask:url(#mask-20);}
	.st17{fill:none;stroke:#FFFFFF;}
	.st18{fill:none;stroke:#1485E0;}
	.st19{fill:#288FEB;stroke:#FFFFFF;stroke-width:4;}
	.st20{fill:none;stroke:#FFFFFF;stroke-width:2;stroke-dasharray:2,2;}
</style>
<g>
	<ellipse id="path-17" class="st0" cx="-312.6" cy="528.9" rx="48.5" ry="48.6"/>
</g>
<g>
	<ellipse id="path-13" class="st0" cx="-312.6" cy="528.9" rx="48.5" ry="48.6"/>
</g>
<g>
	<ellipse id="path-5" class="st0" cx="-312.6" cy="528.9" rx="48.5" ry="48.6"/>
</g>
<title>clock</title>
<desc>Created with Sketch Beta.</desc>
<g id="Page-1" sketch:type="MSPage">
	<g id="WINNER" transform="translate(-991.000000, -3460.000000)" sketch:type="MSArtboardGroup">
		<g id="Group-_x2B_-super-icons" transform="translate(194.000000, 3302.000000)" sketch:type="MSLayerGroup">
			<g id="super-icons" transform="translate(65.000000, 158.000000)">
				<g id="clock" transform="translate(732.000000, 0.000000)">
					<ellipse id="XMLID_12_" sketch:type="MSShapeGroup" class="st1" cx="-312.6" cy="432.9" rx="26.2" ry="26.3">
					</ellipse>
					<rect id="XMLID_125_" x="-317.6" y="458.6" sketch:type="MSShapeGroup" class="st1" width="10.5" height="9.9">
					</rect>
					<ellipse id="XMLID_124_" sketch:type="MSShapeGroup" class="st2" cx="-312.6" cy="528.9" rx="60.3" ry="60.5">
					</ellipse>
					<g id="XMLID_679_" transform="translate(40.806452, 75.600000)">
						<g id="XMLID_123_-Clipped">
							<g id="XMLID_51_">
							</g>
							<defs>
								<filter id="Adobe_OpacityMaskFilter" filterUnits="userSpaceOnUse" x="-401.6" y="405" width="96.5" height="96.6">
									<feColorMatrix  type="matrix" values="1 0 0 0 0  0 1 0 0 0  0 0 1 0 0  0 0 0 1 0"/>
								</filter>
							</defs>
							<mask maskUnits="userSpaceOnUse" x="-401.6" y="405" width="96.5" height="96.6" id="mask-2">
								<g class="st3">
									<ellipse id="path-1" class="st0" cx="-353.4" cy="453.3" rx="48.5" ry="48.6"/>
								</g>
							</mask>
							<ellipse id="XMLID_123_" sketch:type="MSShapeGroup" class="st4" cx="-353.4" cy="453.3" rx="47.2" ry="47.3">
							</ellipse>
						</g>
						<g id="XMLID_122_-Clipped">
							<g id="XMLID_1_">
							</g>
							<defs>
								<filter id="Adobe_OpacityMaskFilter_1_" filterUnits="userSpaceOnUse" x="-388" y="418.6" width="69.2" height="69.3">
									<feColorMatrix  type="matrix" values="1 0 0 0 0  0 1 0 0 0  0 0 1 0 0  0 0 0 1 0"/>
								</filter>
							</defs>
							<mask maskUnits="userSpaceOnUse" x="-388" y="418.6" width="69.2" height="69.3" id="mask-4">
								<g class="st5">
									<ellipse id="path-3" class="st0" cx="-353.4" cy="453.3" rx="48.5" ry="48.6"/>
								</g>
							</mask>
							<ellipse id="XMLID_122_" sketch:type="MSShapeGroup" class="st6" cx="-353.4" cy="453.3" rx="34.1" ry="34.2">
							</ellipse>
						</g>
						<g id="XMLID_121_-Clipped">
							<g id="XMLID_2_">
							</g>
						</g>
						<g id="XMLID_120_-Clipped">
							<g id="XMLID_3_">
							</g>
							<defs>
								<filter id="Adobe_OpacityMaskFilter_2_" filterUnits="userSpaceOnUse" x="-375.1" y="431.6" width="22.4" height="22.4">
									<feColorMatrix  type="matrix" values="1 0 0 0 0  0 1 0 0 0  0 0 1 0 0  0 0 0 1 0"/>
								</filter>
							</defs>
							<mask maskUnits="userSpaceOnUse" x="-375.1" y="431.6" width="22.4" height="22.4" id="mask-8">
								<g class="st7">
									<ellipse id="path-7" class="st0" cx="-353.4" cy="453.3" rx="48.5" ry="48.6"/>
								</g>
							</mask>
							<path id="XMLID_120_" sketch:type="MSShapeGroup" class="st8" d="M-353.4,453.3l-21-21"/>
						</g>
						<g id="XMLID_119_-Clipped">
							<g id="XMLID_4_">
							</g>
							<defs>
								<filter id="Adobe_OpacityMaskFilter_3_" filterUnits="userSpaceOnUse" x="-353.2" y="452.9" width="30.2" height="2">
									<feColorMatrix  type="matrix" values="1 0 0 0 0  0 1 0 0 0  0 0 1 0 0  0 0 0 1 0"/>
								</filter>
							</defs>
							<mask maskUnits="userSpaceOnUse" x="-353.2" y="452.9" width="30.2" height="2" id="mask-10">
								<g class="st9">
									<ellipse id="path-9" class="st0" cx="-353.4" cy="453.3" rx="48.5" ry="48.6"/>
								</g>
							</mask>
							<path id="XMLID_119_" sketch:type="MSShapeGroup" class="st10" d="M-353.2,453.9h30.2"/>
						</g>
						<g id="XMLID_118_-Clipped">
							<g id="XMLID_5_">
							</g>
							<defs>
								<filter id="Adobe_OpacityMaskFilter_4_" filterUnits="userSpaceOnUse" x="-354.1" y="438.1" width="17.1" height="15.9">
									<feColorMatrix  type="matrix" values="1 0 0 0 0  0 1 0 0 0  0 0 1 0 0  0 0 0 1 0"/>
								</filter>
							</defs>
							<mask maskUnits="userSpaceOnUse" x="-354.1" y="438.1" width="17.1" height="15.9" id="mask-12">
								<g class="st11">
									<ellipse id="path-11" class="st0" cx="-353.4" cy="453.3" rx="48.5" ry="48.6"/>
								</g>
							</mask>
							<path id="XMLID_118_" sketch:type="MSShapeGroup" class="st12" d="M-337.7,438.8l-15.7,14.5"/>
						</g>
						<g id="XMLID_117_-Clipped">
							<g id="XMLID_6_">
							</g>
						</g>
						<g id="XMLID_116_-Clipped">
							<g id="XMLID_7_">
							</g>
							<defs>
								<filter id="Adobe_OpacityMaskFilter_5_" filterUnits="userSpaceOnUse" x="-358.3" y="448.3" width="9.9" height="9.9">
									<feColorMatrix  type="matrix" values="1 0 0 0 0  0 1 0 0 0  0 0 1 0 0  0 0 0 1 0"/>
								</filter>
							</defs>
							<mask maskUnits="userSpaceOnUse" x="-358.3" y="448.3" width="9.9" height="9.9" id="mask-16">
								<g class="st13">
									<ellipse id="path-15" class="st0" cx="-353.4" cy="453.3" rx="48.5" ry="48.6"/>
								</g>
							</mask>
							<ellipse id="XMLID_116_" sketch:type="MSShapeGroup" class="st14" cx="-353.4" cy="453.3" rx="3.9" ry="3.9">
							</ellipse>
						</g>
						<g id="XMLID_741_-Clipped">
							<g id="XMLID_8_">
							</g>
						</g>
						<g id="lignes_time_2_-Clipped">
							<g id="XMLID_9_">
							</g>
							<defs>
								<filter id="Adobe_OpacityMaskFilter_6_" filterUnits="userSpaceOnUse" x="-396.7" y="409.9" width="86.6" height="86.7">
									<feColorMatrix  type="matrix" values="1 0 0 0 0  0 1 0 0 0  0 0 1 0 0  0 0 0 1 0"/>
								</filter>
							</defs>
							<mask maskUnits="userSpaceOnUse" x="-396.7" y="409.9" width="86.6" height="86.7" id="mask-20">
								<g class="st15">
									<ellipse id="path-19" class="st0" cx="-353.4" cy="453.3" rx="48.5" ry="48.6"/>
								</g>
							</mask>
							<g id="lignes_time_2_" sketch:type="MSShapeGroup" class="st16">
								<g transform="translate(5.247312, 5.257143)">
									<path id="XMLID_111_" class="st17" d="M-358.7,416.5v-11.8"/>
									<path id="XMLID_110_" class="st18" d="M-362.6,410.2l-0.5-5.3"/>
									<path id="XMLID_109_" class="st18" d="M-366.5,410.7l-1-5.1"/>
									<path id="XMLID_108_" class="st18" d="M-370.3,411.8l-1.7-5"/>
									<path id="XMLID_107_" class="st18" d="M-374.1,413.2l-2.1-4.7"/>
									<path id="XMLID_106_" class="st18" d="M-377.7,415l-2.6-4.6"/>
									<path id="XMLID_105_" class="st18" d="M-381,417.1l-3.1-4.2"/>
									<path id="XMLID_104_" class="st18" d="M-384.1,419.6l-3.4-3.8"/>
									<path id="XMLID_103_" class="st18" d="M-386.9,422.5l-3.9-3.5"/>
									<path id="XMLID_102_" class="st18" d="M-389.4,425.7l-4.3-3.2"/>
									<path id="XMLID_101_" class="st18" d="M-391.6,429l-4.5-2.6"/>
									<path id="XMLID_100_" class="st18" d="M-393.3,432.5l-4.9-2.1"/>
									<path id="XMLID_99_" class="st18" d="M-394.7,436.2l-5-1.6"/>
									<path id="XMLID_98_" class="st18" d="M-395.8,440.1l-5.1-1.2"/>
									<path id="XMLID_97_" class="st18" d="M-396.4,444.1l-5.2-0.5"/>
									<path id="XMLID_96_" class="st17" d="M-390.1,448H-402"/>
									<path id="XMLID_95_" class="st18" d="M-396.4,452l-5.2,0.5"/>
									<path id="XMLID_94_" class="st18" d="M-395.8,455.9l-5.1,1.2"/>
									<path id="XMLID_93_" class="st18" d="M-394.7,459.9l-5,1.6"/>
									<path id="XMLID_92_" class="st18" d="M-393.3,463.5l-4.9,2.1"/>
									<path id="XMLID_91_" class="st18" d="M-391.6,467.1l-4.5,2.6"/>
									<path id="XMLID_90_" class="st18" d="M-389.4,470.4l-4.3,3.2"/>
									<path id="XMLID_89_" class="st18" d="M-386.9,473.5l-3.9,3.5"/>
									<path id="XMLID_88_" class="st18" d="M-384.1,476.4l-3.4,3.8"/>
									<path id="XMLID_87_" class="st18" d="M-381,478.9l-3.1,4.2"/>
									<path id="XMLID_86_" class="st18" d="M-377.7,481l-2.6,4.6"/>
									<path id="XMLID_85_" class="st18" d="M-374.1,482.9l-2.1,4.7"/>
									<path id="XMLID_84_" class="st18" d="M-370.3,484.3l-1.7,5"/>
									<path id="XMLID_83_" class="st18" d="M-366.5,485.4l-1,5.1"/>
									<path id="XMLID_82_" class="st18" d="M-362.6,485.9l-0.5,5.3"/>
									<path id="XMLID_81_" class="st17" d="M-358.7,479.6v11.8"/>
									<path id="XMLID_80_" class="st18" d="M-354.6,485.9l0.5,5.3"/>
									<path id="XMLID_79_" class="st18" d="M-350.7,485.4l1,5.1"/>
									<path id="XMLID_78_" class="st18" d="M-346.9,484.3l1.6,5"/>
									<path id="XMLID_77_" class="st18" d="M-343.2,482.9l2.2,4.7"/>
									<path id="XMLID_76_" class="st18" d="M-339.6,481l2.6,4.6"/>
									<path id="XMLID_75_" class="st18" d="M-336.2,478.9l3,4.2"/>
									<path id="XMLID_74_" class="st18" d="M-333.2,476.4l3.5,3.8"/>
									<path id="XMLID_73_" class="st18" d="M-330.3,473.5l3.9,3.5"/>
									<path id="XMLID_72_" class="st18" d="M-327.8,470.4l4.2,3.2"/>
									<path id="XMLID_71_" class="st18" d="M-325.6,467.1l4.5,2.6"/>
									<path id="XMLID_70_" class="st18" d="M-323.9,463.5l4.9,2.1"/>
									<path id="XMLID_69_" class="st18" d="M-322.5,459.9l5,1.6"/>
									<path id="XMLID_68_" class="st18" d="M-321.4,455.9l5.1,1.2"/>
									<path id="XMLID_67_" class="st18" d="M-320.7,452l5.2,0.5"/>
									<path id="XMLID_66_" class="st17" d="M-327.2,448h11.8"/>
									<path id="XMLID_65_" class="st18" d="M-320.7,444.1l5.2-0.5"/>
									<path id="XMLID_64_" class="st18" d="M-321.4,440.1l5.1-1.2"/>
									<path id="XMLID_63_" class="st18" d="M-322.5,436.2l5-1.6"/>
									<path id="XMLID_62_" class="st18" d="M-323.9,432.5l4.9-2.1"/>
									<path id="XMLID_61_" class="st18" d="M-325.6,429l4.5-2.6"/>
									<path id="XMLID_60_" class="st18" d="M-327.8,425.7l4.2-3.2"/>
									<path id="XMLID_59_" class="st18" d="M-330.3,422.5l3.9-3.5"/>
									<path id="XMLID_58_" class="st18" d="M-333.2,419.6l3.5-3.8"/>
									<path id="XMLID_57_" class="st18" d="M-336.2,417.1l3-4.2"/>
									<path id="XMLID_56_" class="st18" d="M-339.6,415l2.6-4.6"/>
									<path id="XMLID_55_" class="st18" d="M-343.2,413.2l2.2-4.7"/>
									<path id="XMLID_54_" class="st18" d="M-346.9,411.8l1.6-5"/>
									<path id="XMLID_53_" class="st18" d="M-350.7,410.7l1-5.1"/>
									<path id="XMLID_52_" class="st18" d="M-354.6,410.2l0.5-5.3"/>
								</g>
							</g>
						</g>
					</g>
					<g id="XMLID_675_" transform="translate(73.602151, 36.171429)" sketch:type="MSShapeGroup">
						<path id="XMLID_11_" class="st19" d="M-373.9,404H-397c-3,0-5.9,0.5-5.9,3.7v14.7h34.1v-14.7
							C-368.9,404.5-370.9,404-373.9,404L-373.9,404z"/>
						<path id="XMLID_49_" class="st20" d="M-398,409.9h28.9"/>
						<path id="XMLID_48_" class="st20" d="M-398,415.2h28.9"/>
					</g>
				</g>
			</g>
		</g>
	</g>
</g>
</svg>
