<?xml version="1.0" encoding="utf-8"?>
<!-- Generator: Adobe Illustrator 19.0.0, SVG Export Plug-In . SVG Version: 6.00 Build 0)  -->
<!DOCTYPE svg PUBLIC "-//W3C//DTD SVG 1.1//EN" "http://www.w3.org/Graphics/SVG/1.1/DTD/svg11.dtd">
<svg version="1.1" id="Layer_1" xmlns:sketch="http://www.bohemiancoding.com/sketch/ns"
	 xmlns="http://www.w3.org/2000/svg" xmlns:xlink="http://www.w3.org/1999/xlink" x="0px" y="0px" viewBox="37 -3.2 112.2 45.2"
	 style="enable-background:new 37 -3.2 112.2 45.2;" xml:space="preserve">
<style type="text/css">
	.st0{enable-background:new    ;}
	.st1{fill:#2D3238;}
</style>
<title>howd</title>
<desc>Created with Sketch Beta.</desc>
<g class="st0">
	<path class="st1" d="M53.3,40.2H51V14.3l-7.8,2.9V15l9.8-3.6h0.4V40.2z"/>
	<path class="st1" d="M79.2,31h4.5v2h-4.5v7.3h-2.4V33H63.4v-1.3l13.3-20.1h2.6V31z M66.3,31h10.6V14.6l-1,1.8L66.3,31z"/>
	<path class="st1" d="M101.9,26.9c-0.8,1.2-1.9,2.2-3.1,2.9c-1.2,0.7-2.6,1-4.1,1c-1.6,0-3.1-0.4-4.3-1.3s-2.2-2-2.9-3.5
		c-0.7-1.5-1-3.1-1-4.9c0-1.9,0.4-3.6,1.1-5.2s1.8-2.8,3.1-3.6c1.3-0.9,2.8-1.3,4.5-1.3c2.9,0,5.1,1,6.7,3s2.4,4.9,2.4,8.6v2.1
		c0,5.2-1.1,9.1-3.3,11.7s-5.6,3.9-10.1,3.9h-0.4l0-2.1h0.8c3.4-0.1,6-1,7.8-2.9C100.9,33.6,101.8,30.7,101.9,26.9z M95,28.8
		c1.6,0,3-0.5,4.3-1.4c1.3-0.9,2.1-2.2,2.7-3.7v-1.4c0-2.9-0.6-5.2-1.8-6.8c-1.2-1.6-2.9-2.4-4.9-2.4c-1.9,0-3.4,0.8-4.6,2.3
		s-1.8,3.4-1.8,5.7c0,2.2,0.6,4,1.7,5.5C91.6,28,93.1,28.8,95,28.8z"/>
	<path class="st1" d="M124.3,26.9c-0.8,1.2-1.9,2.2-3.1,2.9c-1.2,0.7-2.6,1-4.1,1c-1.6,0-3.1-0.4-4.3-1.3s-2.2-2-2.9-3.5
		c-0.7-1.5-1-3.1-1-4.9c0-1.9,0.4-3.6,1.1-5.2s1.8-2.8,3.1-3.6c1.3-0.9,2.8-1.3,4.5-1.3c2.9,0,5.1,1,6.7,3s2.4,4.9,2.4,8.6v2.1
		c0,5.2-1.1,9.1-3.3,11.7s-5.6,3.9-10.1,3.9h-0.4l0-2.1h0.8c3.4-0.1,6-1,7.8-2.9C123.3,33.6,124.2,30.7,124.3,26.9z M117.4,28.8
		c1.6,0,3-0.5,4.3-1.4c1.3-0.9,2.1-2.2,2.7-3.7v-1.4c0-2.9-0.6-5.2-1.8-6.8c-1.2-1.6-2.9-2.4-4.9-2.4c-1.9,0-3.4,0.8-4.6,2.3
		s-1.8,3.4-1.8,5.7c0,2.2,0.6,4,1.7,5.5C114,28,115.5,28.8,117.4,28.8z"/>
</g>
<g class="st0">
	<path class="st1" d="M125.7,41h-0.7l3.6-9.5h0.6L125.7,41z"/>
</g>
<g class="st0">
	<path class="st1" d="M131.4,31.5l3.5,8.4l3.5-8.4h1.1V41h-0.8v-4.1l0.1-4.2l-3.5,8.4h-0.6l-3.5-8.3l0.1,4.2V41h-0.8v-9.5H131.4z"/>
	<path class="st1" d="M148.9,36.8c0,0.9-0.2,1.6-0.5,2.3c-0.3,0.7-0.7,1.2-1.3,1.5c-0.6,0.4-1.2,0.5-1.9,0.5c-1.1,0-2-0.4-2.7-1.2
		c-0.7-0.8-1-1.9-1-3.2v-1c0-0.9,0.2-1.6,0.5-2.3s0.7-1.2,1.3-1.5c0.6-0.4,1.2-0.5,1.9-0.5c0.7,0,1.4,0.2,1.9,0.5
		c0.6,0.4,1,0.9,1.3,1.5c0.3,0.6,0.5,1.4,0.5,2.2V36.8z M148.1,35.7c0-1.1-0.3-2-0.8-2.7s-1.2-1-2.1-1c-0.9,0-1.6,0.3-2.1,1
		c-0.5,0.7-0.8,1.6-0.8,2.7v1c0,1.1,0.3,2,0.8,2.7c0.5,0.7,1.2,1,2.1,1c0.9,0,1.6-0.3,2.1-1c0.5-0.7,0.8-1.6,0.8-2.7V35.7z"/>
</g>
<g class="st0">
	<path class="st1" d="M41.5,11.9c0-0.4-0.1-0.7-0.4-0.9c-0.3-0.2-0.7-0.5-1.3-0.7c-0.8-0.3-1.4-0.6-1.8-1s-0.6-0.9-0.6-1.6
		c0-0.6,0.2-1.2,0.6-1.6c0.4-0.4,0.9-0.7,1.5-0.7V4.2h0.9v1.3c0.7,0.1,1.2,0.4,1.5,0.8s0.6,1.1,0.6,1.9h-1.1c0-0.6-0.1-1-0.4-1.3
		c-0.3-0.3-0.6-0.5-1.1-0.5c-0.5,0-0.8,0.1-1.1,0.4c-0.2,0.2-0.4,0.6-0.4,1c0,0.4,0.1,0.7,0.4,1c0.3,0.2,0.7,0.5,1.3,0.6
		c0.6,0.2,1.1,0.4,1.4,0.6c0.3,0.2,0.6,0.5,0.7,0.8c0.2,0.3,0.2,0.7,0.2,1.1c0,0.7-0.2,1.2-0.6,1.6s-1,0.6-1.7,0.7v1.1h-0.9v-1.1
		c-0.7-0.1-1.3-0.3-1.7-0.8c-0.4-0.5-0.6-1.1-0.6-1.8h1.1c0,0.5,0.1,1,0.4,1.3c0.3,0.3,0.7,0.4,1.2,0.4c0.5,0,0.9-0.1,1.2-0.4
		S41.5,12.4,41.5,11.9z"/>
</g>
</svg>
