<?xml version="1.0" encoding="utf-8"?>
<!-- Generator: Adobe Illustrator 19.0.0, SVG Export Plug-In . SVG Version: 6.00 Build 0)  -->
<!DOCTYPE svg PUBLIC "-//W3C//DTD SVG 1.1//EN" "http://www.w3.org/Graphics/SVG/1.1/DTD/svg11.dtd">
<svg version="1.1" id="Group_7_1_" xmlns="http://www.w3.org/2000/svg" xmlns:xlink="http://www.w3.org/1999/xlink" x="0px" y="0px"
	 viewBox="0 0 369.3 220.3" style="enable-background:new 0 0 369.3 220.3;" xml:space="preserve">
<style type="text/css">
	.st0{fill-rule:evenodd;clip-rule:evenodd;fill:#A173FC;}
	.st1{fill-rule:evenodd;clip-rule:evenodd;fill:#8A62D7;}
	.st2{fill-rule:evenodd;clip-rule:evenodd;fill:#7450B0;}
	.st3{fill-rule:evenodd;clip-rule:evenodd;fill:#8B63D7;}
	.st4{fill-rule:evenodd;clip-rule:evenodd;fill:#7250B0;}
	.st5{fill-rule:evenodd;clip-rule:evenodd;fill:#6C4CA4;}
	.st6{fill-rule:evenodd;clip-rule:evenodd;fill:#6B489B;}
	.st7{fill-rule:evenodd;clip-rule:evenodd;fill:#724DA4;}
	.st8{fill-rule:evenodd;clip-rule:evenodd;fill:#7B52B0;}
	.st9{fill-rule:evenodd;clip-rule:evenodd;fill:#8856B0;}
	.st10{fill-rule:evenodd;clip-rule:evenodd;fill:#724FA5;}
	.st11{fill-rule:evenodd;clip-rule:evenodd;fill:#7F52A5;}
	.st12{fill-rule:evenodd;clip-rule:evenodd;fill:#A66AD7;}
	.st13{fill-rule:evenodd;clip-rule:evenodd;fill:#BA6ED7;}
	.st14{fill-rule:evenodd;clip-rule:evenodd;fill:#A569D7;}
	.st15{fill-rule:evenodd;clip-rule:evenodd;fill:#B96ED5;}
	.st16{fill-rule:evenodd;clip-rule:evenodd;fill:#E480EE;}
	.st17{fill-rule:evenodd;clip-rule:evenodd;fill:#DC82FD;}
	.st18{fill-rule:evenodd;clip-rule:evenodd;fill:#C174E0;}
	.st19{fill-rule:evenodd;clip-rule:evenodd;fill:#F286FC;}
	.st20{opacity:0.302;}
	.st21{fill-rule:evenodd;clip-rule:evenodd;fill:#DBC6FF;}
	.st22{opacity:0.6;}
	.st23{opacity:0.6588;}
	.st24{opacity:0.77;}
	.st25{fill-rule:evenodd;clip-rule:evenodd;fill:#6E39B2;}
	.st26{fill-rule:evenodd;clip-rule:evenodd;fill:#8655B5;}
	.st27{opacity:0.502;}
	.st28{opacity:0.902;}
	.st29{opacity:0.8;}
</style>
<g id="Pink-4way_1_">
	<g id="Group_6_3_">
		<g id="_x32___x23_8a62d7">
			<g>
				<path class="st0" d="M357.8,3.4H340c-1.1,0-2,0.9-2,2v17.9c0,1.1,0.9,2,2,2h17.8c1.1,0,2-0.9,2-2V5.4
					C359.8,4.3,358.9,3.4,357.8,3.4z"/>
			</g>
		</g>
		<g id="_x34___x23_7250b0">
			<g>
				<path class="st1" d="M328.5,3.4h-17.8c-1.1,0-2,0.9-2,2v17.9c0,1.1,0.9,2,2,2h17.8c1.1,0,2-0.9,2-2V5.4
					C330.5,4.3,329.6,3.4,328.5,3.4z"/>
			</g>
		</g>
		<g id="_x33___x23_7450b0">
			<g>
				<path class="st2" d="M352.6,3.4h-19c-1.2,0-2.1,0.9-2.1,2v17.9c0,1.1,1,2,2.1,2h19c1.2,0,2.1-0.9,2.1-2V5.4
					C354.8,4.3,353.8,3.4,352.6,3.4z"/>
			</g>
		</g>
		<g id="_x31___x23_8b63d7">
			<g>
				<path class="st3" d="M332,3.4h-31c-1.9,0-3.5,0.9-3.5,2v17.9c0,1.1,1.6,2,3.5,2h31c1.9,0,3.5-0.9,3.5-2V5.4
					C335.5,4.3,333.9,3.4,332,3.4z"/>
			</g>
		</g>
	</g>
	<g id="Group_5_3_">
		<g id="_x33___x23_7551b1">
			<g>
				<path class="st3" d="M285.1,3.4h-10.9c-0.7,0-1.2,0.9-1.2,2v17.9c0,1.1,0.5,2,1.2,2h10.9c0.7,0,1.2-0.9,1.2-2V5.4
					C286.3,4.3,285.8,3.4,285.1,3.4z"/>
			</g>
		</g>
		<g id="_x32___x23_7250b0">
			<g>
				<path class="st4" d="M299.7,3.4h-19.5c-1.2,0-2.2,0.9-2.2,2v17.9c0,1.1,1,2,2.2,2h19.5c1.2,0,2.2-0.9,2.2-2V5.4
					C301.9,4.3,300.9,3.4,299.7,3.4z"/>
			</g>
		</g>
		<g id="_x34___x23_7250b0_1_">
			<g>
				<path class="st4" d="M268.5,3.4h-17.8c-1.1,0-2,0.9-2,2v17.9c0,1.1,0.9,2,2,2h17.8c1.1,0,2-0.9,2-2V5.4
					C270.5,4.3,269.6,3.4,268.5,3.4z"/>
			</g>
		</g>
		<g id="_x31___x23_7450b0">
			<g>
				<path class="st2" d="M274.9,3.4h-19c-1.2,0-2.1,0.9-2.1,2v17.9c0,1.1,1,2,2.1,2h19c1.2,0,2.1-0.9,2.1-2V5.4
					C277.1,4.3,276.1,3.4,274.9,3.4z"/>
			</g>
		</g>
	</g>
	<g id="Group_4_3_">
		<g id="_x32___x23_6c4ca4">
			<g>
				<path class="st5" d="M237.7,3.4h-11.4c-0.7,0-1.3,0.9-1.3,2v17.9c0,1.1,0.6,2,1.3,2h11.4c0.7,0,1.3-0.9,1.3-2V5.4
					C239,4.3,238.4,3.4,237.7,3.4z"/>
			</g>
		</g>
		<g id="_x34___x23_6c4ca4">
			<g>
				<path class="st5" d="M211.5,3.4h-17.8c-1.1,0-2,0.9-2,2v17.9c0,1.1,0.9,2,2,2h17.8c1.1,0,2-0.9,2-2V5.4
					C213.5,4.3,212.6,3.4,211.5,3.4z"/>
			</g>
		</g>
		<g id="_x33___x23_6b489b">
			<g>
				<path class="st6" d="M229.7,3.4h-8.6c-0.5,0-1,0.9-1,2v17.9c0,1.1,0.4,2,1,2h8.6c0.5,0,1-0.9,1-2V5.4
					C230.7,4.3,230.2,3.4,229.7,3.4z"/>
			</g>
		</g>
		<g id="_x31___x23_724da4">
			<g>
				<path class="st7" d="M213.5,3.4h-15c-0.9,0-1.7,0.9-1.7,2v17.9c0,1.1,0.8,2,1.7,2h15c0.9,0,1.7-0.9,1.7-2V5.4
					C215.2,4.3,214.4,3.4,213.5,3.4z"/>
			</g>
		</g>
	</g>
	<g id="Group_3_3_">
		<g id="_x34___x23_7b52b0">
			<g>
				<path class="st8" d="M151.6,3.4h-17.9c-1.1,0-2,0.9-2,2v17.9c0,1.1,0.9,2,2,2h17.9c1.1,0,2-0.9,2-2V5.4
					C153.6,4.3,152.7,3.4,151.6,3.4z"/>
			</g>
		</g>
		<g id="_x33___x23_8856b0">
			<g>
				<path class="st9" d="M176,3.4h-15.7c-1,0-1.8,0.9-1.8,2v17.9c0,1.1,0.8,2,1.8,2H176c1,0,1.8-0.9,1.8-2V5.4
					C177.8,4.3,177,3.4,176,3.4z"/>
			</g>
		</g>
		<g id="_x32___x23_724fa5">
			<g>
				<path class="st10" d="M184.8,3.4h-16.7c-1,0-1.9,0.9-1.9,2v17.9c0,1.1,0.8,2,1.9,2h16.7c1,0,1.9-0.9,1.9-2V5.4
					C186.7,4.3,185.8,3.4,184.8,3.4z"/>
			</g>
		</g>
		<g id="_x31___x23_7f52a5">
			<g>
				<path class="st11" d="M156.5,3.4h-17.8c-1.1,0-2,0.9-2,2v17.9c0,1.1,0.9,2,2,2h17.8c1.1,0,2-0.9,2-2V5.4
					C158.5,4.3,157.6,3.4,156.5,3.4z"/>
			</g>
		</g>
	</g>
	<g id="Group_2_3_">
		<g id="_x34___x23_a66ad7">
			<g>
				<path class="st12" d="M91.5,3.4H73.8c-1.1,0-2,0.9-2,2v17.9c0,1.1,0.9,2,2,2h17.8c1.1,0,2-0.9,2-2V5.4
					C93.5,4.3,92.6,3.4,91.5,3.4z"/>
			</g>
		</g>
		<g id="_x33___x23_ba6ed7">
			<g>
				<path class="st13" d="M115.8,3.4H98c-1.1,0-2,0.9-2,2v17.9c0,1.1,0.9,2,2,2h17.8c1.1,0,2-0.9,2-2V5.4
					C117.8,4.3,116.9,3.4,115.8,3.4z"/>
			</g>
		</g>
		<g id="_x32___x23_a569d7">
			<g>
				<path class="st14" d="M120.8,3.4H103c-1.1,0-2,0.9-2,2v17.9c0,1.1,0.9,2,2,2h17.8c1.1,0,2-0.9,2-2V5.4
					C122.8,4.3,121.9,3.4,120.8,3.4z"/>
			</g>
		</g>
		<g id="_x31___x23_b96ed5">
			<g>
				<path class="st15" d="M96.5,3.4H78.8c-1.1,0-2,0.9-2,2v17.9c0,1.1,0.9,2,2,2h17.8c1.1,0,2-0.9,2-2V5.4
					C98.5,4.3,97.6,3.4,96.5,3.4z"/>
			</g>
		</g>
	</g>
	<g id="Group_1_3_">
		<g id="_x34___x23_e480ee">
			<g>
				<path class="st16" d="M37.5,3.4H19.8c-1.1,0-2,0.9-2,2v17.9c0,1.1,0.9,2,2,2h17.8c1.1,0,2-0.9,2-2V5.4
					C39.5,4.3,38.6,3.4,37.5,3.4z"/>
			</g>
		</g>
		<g id="_x33___x23_dc82fd">
			<g>
				<path class="st17" d="M66.8,3.4H49c-1.1,0-2,0.9-2,2v17.9c0,1.1,0.9,2,2,2h17.8c1.1,0,2-0.9,2-2V5.4C68.8,4.3,67.9,3.4,66.8,3.4
					z"/>
			</g>
		</g>
		<g id="_x32___x23_c174e0">
			<g>
				<path class="st18" d="M56.9,3.4H48c-0.6,0-1,0.9-1,2v17.9c0,1.1,0.4,2,1,2h8.9c0.6,0,1-0.9,1-2V5.4C57.9,4.3,57.4,3.4,56.9,3.4z
					"/>
			</g>
		</g>
		<g id="_x31___x23_f286fc">
			<g>
				<path class="st19" d="M42.5,3.4H24.8c-1.1,0-2,0.9-2,2v17.9c0,1.1,0.9,2,2,2h17.8c1.1,0,2-0.9,2-2V5.4
					C44.5,4.3,43.6,3.4,42.5,3.4z"/>
			</g>
		</g>
	</g>
</g>
<g id="Pink-4way_copy_2_1_">
	<g id="Group_6_2_">
		<g id="_x34___x23_7250b0_2_">
			<g>
				<path class="st5" d="M317.6,3.4h-12.5c-0.8,0-1.4,0.9-1.4,2v17.9c0,1.1,0.6,2,1.4,2h12.5c0.8,0,1.4-0.9,1.4-2V5.4
					C319,4.3,318.4,3.4,317.6,3.4z"/>
			</g>
		</g>
		<g id="_x33___x23_7450b0_1_" class="st20">
			<g>
				<path class="st21" d="M341.2,3.4h-17.8c-1.1,0-2,0.9-2,2v17.9c0,1.1,0.9,2,2,2h17.8c1.1,0,2-0.9,2-2V5.4
					C343.2,4.3,342.4,3.4,341.2,3.4z"/>
			</g>
		</g>
		<g id="_x32___x23_8a62d7_1_" class="st22">
			<g>
				<path class="st1" d="M351.2,3.4h-17.8c-1.1,0-2,0.9-2,2v17.9c0,1.1,0.9,2,2,2h17.8c1.1,0,2-0.9,2-2V5.4
					C353.2,4.3,352.4,3.4,351.2,3.4z"/>
			</g>
		</g>
	</g>
	<g id="Group_5_2_">
		<g id="_x34___x23_7250b0_3_">
			<g>
				<path class="st9" d="M257.3,3.4H242c-0.9,0-1.7,0.9-1.7,2v17.9c0,1.1,0.8,2,1.7,2h15.2c0.9,0,1.7-0.9,1.7-2V5.4
					C259,4.3,258.2,3.4,257.3,3.4z"/>
			</g>
		</g>
		<g id="_x33___x23_7551b1_1_" class="st23">
			<g>
				<path class="st1" d="M265.2,3.4h-17.8c-1.1,0-2,0.9-2,2v17.9c0,1.1,0.9,2,2,2h17.8c1.1,0,2-0.9,2-2V5.4
					C267.2,4.3,266.4,3.4,265.2,3.4z"/>
			</g>
		</g>
		<g id="_x32___x23_7250b0_1_" class="st20">
			<g>
				<path class="st0" d="M356.2,3.4h-17.8c-1.1,0-2,0.9-2,2v17.9c0,1.1,0.9,2,2,2h17.8c1.1,0,2-0.9,2-2V5.4
					C358.2,4.3,357.4,3.4,356.2,3.4z"/>
			</g>
		</g>
		<g id="_x31___x23_7450b0_1_">
			<g>
				<path class="st2" d="M249.6,3.4H243c-0.4,0-0.7,0.9-0.7,2v17.9c0,1.1,0.3,2,0.7,2h6.6c0.4,0,0.7-0.9,0.7-2V5.4
					C250.3,4.3,250,3.4,249.6,3.4z"/>
			</g>
		</g>
	</g>
	<g id="Group_4_2_">
		<g id="_x33___x23_6b489b_1_" class="st24">
			<g>
				<path class="st25" d="M223.9,3.4h-12c-0.7,0-1.4,0.9-1.4,2v17.9c0,1.1,0.6,2,1.4,2h12c0.7,0,1.4-0.9,1.4-2V5.4
					C225.2,4.3,224.6,3.4,223.9,3.4z"/>
			</g>
		</g>
		<g id="_x34___x23_6c4ca4_1_">
			<g>
				<path class="st5" d="M200,3.4h-17.8c-1.1,0-2,0.9-2,2v17.9c0,1.1,0.9,2,2,2H200c1.1,0,2-0.9,2-2V5.4C202,4.3,201.1,3.4,200,3.4z
					"/>
			</g>
		</g>
		<g id="_x32___x23_6c4ca4_1_">
			<g>
				<path class="st5" d="M221.8,3.4h-5c-0.3,0-0.6,0.9-0.6,2v17.9c0,1.1,0.3,2,0.6,2h5c0.3,0,0.6-0.9,0.6-2V5.4
					C222.3,4.3,222.1,3.4,221.8,3.4z"/>
			</g>
		</g>
		<g id="_x31___x23_724da4_1_">
			<g>
				<path class="st7" d="M191.7,3.4h-5.8c-0.4,0-0.7,0.9-0.7,2v17.9c0,1.1,0.3,2,0.7,2h5.8c0.4,0,0.7-0.9,0.7-2V5.4
					C192.3,4.3,192,3.4,191.7,3.4z"/>
			</g>
		</g>
	</g>
	<g id="Group_3_2_">
		<g id="_x34___x23_7b52b0_1_">
			<g>
				<path class="st8" d="M128.3,3.4h-17.4c-1.1,0-2,0.9-2,2v17.9c0,1.1,0.9,2,2,2h17.4c1.1,0,2-0.9,2-2V5.4
					C130.3,4.3,129.4,3.4,128.3,3.4z"/>
			</g>
		</g>
		<g id="_x33___x23_8856b0_1_">
			<g>
				<path class="st26" d="M160.2,3.4h-14.1c-0.9,0-1.6,0.9-1.6,2v17.9c0,1.1,0.7,2,1.6,2h14.1c0.9,0,1.6-0.9,1.6-2V5.4
					C161.8,4.3,161.1,3.4,160.2,3.4z"/>
			</g>
		</g>
		<g id="_x32___x23_724fa5_1_" class="st27">
			<g>
				<path class="st10" d="M157.1,3.4h-6.8c-0.4,0-0.8,0.9-0.8,2v17.8c0,1.1,0.3,2,0.8,2h6.8c0.4,0,0.8-0.9,0.8-2V5.4
					C157.8,4.3,157.5,3.4,157.1,3.4z"/>
			</g>
		</g>
	</g>
	<g id="Group_2_2_" class="st28">
		<g id="_x34___x23_a66ad7_1_">
			<g>
				<path class="st12" d="M80,3.4H62.2c-1.1,0-2,0.9-2,2v17.9c0,1.1,0.9,2,2,2H80c1.1,0,2-0.9,2-2V5.4C82,4.3,81.1,3.4,80,3.4z"/>
			</g>
		</g>
		<g id="_x33___x23_ba6ed7_1_">
			<g>
				<path class="st13" d="M104.2,3.4H86.5c-1.1,0-2,0.9-2,2v17.9c0,1.1,0.9,2,2,2h17.8c1.1,0,2-0.9,2-2V5.4
					C106.2,4.3,105.4,3.4,104.2,3.4z"/>
			</g>
		</g>
		<g id="_x32___x23_a569d7_1_" class="st27">
			<g>
				<path class="st14" d="M109.2,3.4H91.5c-1.1,0-2,0.9-2,2v17.9c0,1.1,0.9,2,2,2h17.8c1.1,0,2-0.9,2-2V5.4
					C111.2,4.3,110.4,3.4,109.2,3.4z"/>
			</g>
		</g>
		<g id="_x31___x23_b96ed5_1_">
			<g>
				<path class="st15" d="M85,3.4H67.2c-1.1,0-2,0.9-2,2v17.9c0,1.1,0.9,2,2,2H85c1.1,0,2-0.9,2-2V5.4C87,4.3,86.1,3.4,85,3.4z"/>
			</g>
		</g>
	</g>
	<g id="Group_1_2_" class="st29">
		<g id="_x33___x23_dc82fd_1_">
			<g>
				<path class="st17" d="M50.5,3.4H35.3c-0.9,0-1.7,0.9-1.7,2v17.9c0,1.1,0.8,2,1.7,2h15.2c0.9,0,1.7-0.9,1.7-2V5.4
					C52.2,4.3,51.5,3.4,50.5,3.4z"/>
			</g>
		</g>
		<g id="_x31___x23_f286fc_1_">
			<g>
				<path class="st19" d="M31,3.4H13.2c-1.1,0-2,0.9-2,2v17.9c0,1.1,0.9,2,2,2H31c1.1,0,2-0.9,2-2V5.4C33,4.3,32.1,3.4,31,3.4z"/>
			</g>
		</g>
	</g>
</g>
</svg>
