<?xml version="1.0" encoding="utf-8"?>
<!-- Generator: Adobe Illustrator 19.0.0, SVG Export Plug-In . SVG Version: 6.00 Build 0)  -->
<!DOCTYPE svg PUBLIC "-//W3C//DTD SVG 1.1//EN" "http://www.w3.org/Graphics/SVG/1.1/DTD/svg11.dtd">
<svg version="1.1" id="Group_7_1_" xmlns="http://www.w3.org/2000/svg" xmlns:xlink="http://www.w3.org/1999/xlink" x="0px" y="0px"
	 viewBox="152 -69.6 342.3 166.6" style="enable-background:new 152 -69.6 342.3 166.6;" xml:space="preserve">
<style type="text/css">
	.st0{fill:#73DAF9;}
	.st1{opacity:0.302;}
	.st2{fill:#76F4DC;}
	.st3{display:none;}
	.st4{display:inline;}
	.st5{fill:#3BE2EA;}
	.st6{opacity:0.4;}
	.st7{fill:#8760F4;}
	.st8{opacity:0.36;}
	.st9{fill:#74F7CB;}
	.st10{opacity:0.902;}
	.st11{opacity:0.8;}
	.st12{opacity:0.32;}
	.st13{fill:#C5F277;}
	.st14{fill:#DEFF55;}
	.st15{opacity:0.31;enable-background:new    ;}
	.st16{fill:#313131;}
	.st17{stroke:#000000;stroke-width:0.5;stroke-miterlimit:10;}
	.st18{opacity:0.31;fill:#FFFFFF;enable-background:new    ;}
	.st19{font-family:'Roboto-Light';}
	.st20{font-size:9.1227px;}
	.st21{opacity:0.66;}
	.st22{fill:#60C7F4;}
	.st23{fill:#9D7AF9;}
	.st24{fill:#8A62D7;}
	.st25{opacity:0.67;}
	.st26{fill:#74F4F7;}
	.st27{fill:#5C79F8;}
	.st28{fill:#5E9CF7;}
	.st29{opacity:0.73;}
	.st30{fill:#5D51AF;}
	.st31{fill:#6C4CA4;}
	.st32{fill:#8F84FA;}
	.st33{fill:#8856B0;}
	.st34{fill:#5D4AAF;}
	.st35{fill:#A66AD7;}
	.st36{fill:#9481F9;}
	.st37{fill:#B96ED5;}
	.st38{fill:#BC83ED;}
	.st39{fill:#DC82FD;}
	.st40{fill:#C174E0;}
	.st41{fill:#7871D4;}
	.st42{fill:#77DBF2;}
	.st43{fill:#7772D4;}
	.st44{opacity:0.78;}
	.st45{fill:#8D85F9;}
	.st46{opacity:0.502;}
	.st47{fill:#724FA5;}
	.st48{fill:#BA6ED7;}
	.st49{fill:#878BFA;}
	.st50{fill:#9C7AF9;}
	.st51{fill:#F286FC;}
	.st52{fill:#A173FC;}
	.st53{fill:#7450B0;}
	.st54{fill:#8B63D7;}
	.st55{fill:#7250B0;}
	.st56{fill:#6B489B;}
	.st57{fill:#724DA4;}
	.st58{fill:#7B52B0;}
	.st59{fill:#7F52A5;}
	.st60{fill:#A569D7;}
	.st61{fill:#E480EE;}
	.st62{fill:#DBC6FF;}
	.st63{opacity:0.6;}
	.st64{opacity:0.57;}
	.st65{opacity:0.77;}
	.st66{fill:#6E39B2;}
	.st67{fill:#8655B5;}
	.st68{enable-background:new    ;}
	.st69{fill:#E2E2E2;}
	.st70{display:none;fill:none;stroke:#DDDDDD;stroke-miterlimit:10;}
	.st71{display:none;opacity:0.52;fill:url(#SVGID_1_);enable-background:new    ;}
	.st72{fill:#575756;stroke:#575756;stroke-width:0.5;stroke-miterlimit:10;}
</style>
<g id="Pink-4way_1_">
	<g id="Group_6_3_">
		<g id="_x32___x23_8a62d7">
			<g>
				<path class="st0" d="M178,58.3h-22.2c-1.4,0-2.5,1.5-2.8,3.3v29c0.3,1.8,1.4,3.3,2.8,3.3H178c1.4,0,2.5-1.5,2.5-3.3v-29
					C180.5,59.8,179.4,58.3,178,58.3z"/>
			</g>
		</g>
		<g id="_x34___x23_7250b0" class="st1">
			<g>
				<path class="st2" d="M159.6,58.3h-2.3c-0.1,0-0.3,1.5-0.3,3.3v29c0,1.8,0.1,3.3,0.3,3.3h2.3c0.1,0,0.3-1.5,0.3-3.3v-29
					C159.9,59.8,159.7,58.3,159.6,58.3z"/>
			</g>
		</g>
		<g id="_x33___x23_7450b0" class="st1">
			<g>
				<path class="st2" d="M156.6,58.3h-2.4c-0.2,0-0.3,1.5-0.3,3.3v29c0,1.8,0.1,3.3,0.3,3.3h2.4c0.2,0,0.3-1.5,0.3-3.3v-29
					C156.9,59.8,156.8,58.3,156.6,58.3z"/>
			</g>
		</g>
		<g id="_x31___x23_8b63d7" class="st1">
			<g>
				<path class="st2" d="M160.9,58.3h-4c-0.2,0-0.5,1.5-0.5,3.3v29c0,1.8,0.2,3.3,0.5,3.3h4c0.2,0,0.5-1.5,0.5-3.3v-29
					C161.3,59.8,161.1,58.3,160.9,58.3z"/>
			</g>
		</g>
		<g id="_x32___x23_8a62d7_3_" class="st3">
			<g class="st4">
				<path class="st5" d="M466.9,91.6c-4.1-0.1-14.5-0.1-26.2-0.1H193.5c-11.6,0-22.5,0-26.6,0c-1.2,0.4-1.2,1.4-1.2,2v18.3
					c0,0.6,0,1.5,1.6,1.5c4.8,0.1,15.3,0.1,26.2,0.1h247.1c11.7,0,21.6-0.2,25.9,0c1.1-0.1,1.9-0.9,2-2V93.5
					C468.5,92.8,468,91.9,466.9,91.6z"/>
			</g>
		</g>
	</g>
	<g id="Group_5_3_">
		<g id="_x32___x23_7250b0_21_" class="st1">
			<g>
				<path class="st2" d="M164.2,58.3h-9.5c-0.6,0-1.1,1.5-1.1,3.3v29c0,1.8,0.5,3.3,1.1,3.3h9.4c0.6,0,1.1-1.5,1.1-3.3v-29
					C165.2,59.8,164.7,58.3,164.2,58.3z"/>
			</g>
		</g>
		<g id="_x33___x23_7551b1_15_" class="st1">
			<g>
				<path class="st2" d="M171.2,58.3h-6.4c-0.4,0-0.7,1.5-0.7,3.3v29c0,1.8,0.3,3.3,0.7,3.3h6.4c0.4,0,0.7-1.5,0.7-3.3v-29
					C171.9,59.8,171.6,58.3,171.2,58.3z"/>
			</g>
		</g>
		<g id="_x34___x23_7250b0_42_" class="st1">
			<g>
				<path class="st2" d="M168.6,58.3h-2.3c-0.1,0-0.3,1.5-0.3,3.3v29c0,1.8,0.1,3.3,0.3,3.3h2.3c0.1,0,0.3-1.5,0.3-3.3v-29
					C168.9,59.8,168.8,58.3,168.6,58.3z"/>
			</g>
		</g>
		<g id="_x31___x23_7450b0_17_" class="st1">
			<g>
				<path class="st2" d="M167.5,58.3h-6c-0.4,0-0.7,1.5-0.7,3.3v29c0,1.8,0.3,3.3,0.7,3.3h6.1c0.4,0,0.7-1.5,0.7-3.3v-29
					C168.2,59.8,167.9,58.3,167.5,58.3z"/>
			</g>
		</g>
	</g>
	<g id="Group_4_3_">
		<g id="_x32___x23_6c4ca4" class="st1">
			<g>
				<path class="st2" d="M171.8,58.3h-1.5c-0.1,0-0.2,1.5-0.2,3.3v29c0,1.8,0.1,3.3,0.2,3.3h1.5c0.1,0,0.2-1.5,0.2-3.3v-29
					C171.9,59.8,171.9,58.3,171.8,58.3z"/>
			</g>
		</g>
		<g id="_x34___x23_6c4ca4" class="st1">
			<g>
				<path class="st2" d="M172.9,58.3h-4.2c-0.3,0-0.5,1.5-0.5,3.3v29c0,1.8,0.2,3.3,0.5,3.3h4.2c0.3,0,0.5-1.5,0.5-3.3v-29
					C173.4,59.8,173.2,58.3,172.9,58.3z"/>
			</g>
		</g>
	</g>
	<g id="Group_3_3_">
		<g id="_x34___x23_7b52b0_23_" class="st1">
			<g>
				<path class="st2" d="M176,58.3h-2.3c-0.1,0-0.3,1.5-0.3,3.3v29c0,1.8,0.1,3.3,0.3,3.3h2.3c0.1,0,0.3-1.5,0.3-3.3v-29
					C176.2,59.8,176.1,58.3,176,58.3z"/>
			</g>
		</g>
		<g id="_x33___x23_8856b0_17_" class="st1">
			<g>
				<path class="st2" d="M175.1,58.3h-2c-0.1,0-0.2,1.5-0.2,3.3v29c0,1.8,0.1,3.3,0.2,3.3h2c0.1,0,0.2-1.5,0.2-3.3v-29
					C175.3,59.8,175.2,58.3,175.1,58.3z"/>
			</g>
		</g>
		<g id="_x31___x23_7f52a5_7_" class="st1">
			<g>
				<path class="st2" d="M175.3,58.3H173c-0.1,0-0.3,1.5-0.3,3.3v29c0,1.8,0.1,3.3,0.3,3.3h2.3c0.1,0,0.3-1.5,0.3-3.3v-29
					C175.6,59.8,175.5,58.3,175.3,58.3z"/>
			</g>
		</g>
	</g>
	<g id="Group_2_3_">
		<g id="_x34___x23_a66ad7" class="st1">
			<g>
				<path class="st2" d="M185,58.3h-2.3c-0.1,0-0.3,1.5-0.3,3.3v29c0,1.8,0.1,3.3,0.3,3.3h2.3c0.1,0,0.3-1.5,0.3-3.3v-29
					C185.2,59.8,185.1,58.3,185,58.3z"/>
			</g>
		</g>
		<g id="_x33___x23_ba6ed7" class="st1">
			<g>
				<path class="st2" d="M181.9,58.3h-2.3c-0.1,0-0.3,1.5-0.3,3.3v29c0,1.8,0.1,3.3,0.3,3.3h2.3c0.1,0,0.3-1.5,0.3-3.3v-29
					C182.1,59.8,182,58.3,181.9,58.3z"/>
			</g>
		</g>
		<g id="_x32___x23_a569d7" class="st1">
			<g>
				<path class="st2" d="M181.3,58.3h-1.6c-0.1,0-0.2,1.5-0.2,3.3v29c0,1.8,0.1,3.3,0.2,3.3h1.6c0.1,0,0.2-1.5,0.2-3.3v-29
					C181.5,59.8,181.4,58.3,181.3,58.3z"/>
			</g>
		</g>
		<g id="_x31___x23_b96ed5" class="st1">
			<g>
				<path class="st2" d="M184.3,58.3H182c-0.1,0-0.3,1.5-0.3,3.3v29c0,1.8,0.1,3.3,0.3,3.3h2.3c0.1,0,0.3-1.5,0.3-3.3v-29
					C184.6,59.8,184.5,58.3,184.3,58.3z"/>
			</g>
		</g>
	</g>
	<g id="Group_1_3_">
		<g id="_x34___x23_e480ee_7_" class="st1">
			<g>
				<path class="st2" d="M188.1,58.3h-2.3c-0.1,0-0.3,1.5-0.3,3.3v29c0,1.8,0.1,3.3,0.3,3.3h2.3c0.1,0,0.3-1.5,0.3-3.3v-29
					C188.3,59.8,188.2,58.3,188.1,58.3z"/>
			</g>
		</g>
		<g id="_x33___x23_dc82fd_19_" class="st1">
			<g>
				<path class="st2" d="M184.3,58.3H182c-0.1,0-0.3,1.5-0.3,3.3v29c0,1.8,0.1,3.3,0.3,3.3h2.3c0.1,0,0.3-1.5,0.3-3.3v-29
					C184.6,59.8,184.4,58.3,184.3,58.3z"/>
			</g>
		</g>
		<g id="_x32___x23_c174e0_7_" class="st1">
			<g>
				<path class="st2" d="M184.4,58.3h-1.1c-0.1,0-0.1,1.5-0.1,3.3v29c0,1.8,0.1,3.3,0.1,3.3h1.1c0.1,0,0.1-1.5,0.1-3.3v-29
					C184.6,59.8,184.5,58.3,184.4,58.3z"/>
			</g>
		</g>
		<g id="_x31___x23_f286fc_17_" class="st1">
			<g>
				<path class="st2" d="M187.4,58.3h-2.3c-0.1,0-0.3,1.5-0.3,3.3v29c0,1.8,0.1,3.3,0.3,3.3h2.3c0.1,0,0.3-1.5,0.3-3.3v-29
					C187.7,59.8,187.6,58.3,187.4,58.3z"/>
			</g>
		</g>
	</g>
</g>
<g id="Pink-4way_copy_2_1_">
	<g id="_x32___x23_7250b0_17_" class="st6">
		<g>
			<path class="st7" d="M156.5,58.3h-2.1c-0.1,0-0.2,1.5-0.2,3.3v29c0,1.8,0.1,3.3,0.2,3.3h2.1c0.1,0,0.2-1.5,0.2-3.3v-29
				C156.7,59.8,156.6,58.3,156.5,58.3z"/>
		</g>
	</g>
	<g id="Group_6_2_">
		<g id="_x34___x23_7250b0_1_" class="st1">
			<g>
				<path class="st2" d="M159,58.3h-1.6c-0.1,0-0.2,1.5-0.2,3.3v29c0,1.8,0.1,3.3,0.2,3.3h1.6c0.1,0,0.2-1.5,0.2-3.3v-29
					C159.1,59.8,159.1,58.3,159,58.3z"/>
			</g>
		</g>
		<g id="_x33___x23_7450b0_8_" class="st1">
			<g>
				<path class="st2" d="M158,58.3h-2.3c-0.1,0-0.3,1.5-0.3,3.3v29c0,1.8,0.1,3.3,0.3,3.3h2.3c0.1,0,0.3-1.5,0.3-3.3v-29
					C158.2,59.8,158.1,58.3,158,58.3z"/>
			</g>
		</g>
		<g id="_x32___x23_8a62d7_8_" class="st1">
			<g>
				<path class="st2" d="M156.7,58.3h-2.3c-0.1,0-0.3,1.5-0.3,3.3v29c0,1.8,0.1,3.3,0.3,3.3h2.3c0.1,0,0.3-1.5,0.3-3.3v-29
					C156.9,59.8,156.8,58.3,156.7,58.3z"/>
			</g>
		</g>
	</g>
	<g id="Group_5_2_">
		<g id="_x34___x23_7250b0_30_" class="st1">
			<g>
				<path class="st2" d="M169.7,58.3h-2c-0.1,0-0.2,1.5-0.2,3.3v29c0,1.8,0.1,3.3,0.2,3.3h2c0.1,0,0.2-1.5,0.2-3.3v-29
					C170,59.8,169.9,58.3,169.7,58.3z"/>
			</g>
		</g>
		<g id="_x31___x23_7450b0_12_" class="st8">
			<g>
				<path class="st9" d="M176,58.3h-6.6c-0.4,0-0.7,1.5-0.7,3.3v29.1c0,1.8,0.3,3.3,0.7,3.3h6.6c0.4,0,0.7-1.5,0.7-3.3V61.6
					C176.7,59.8,176.4,58.3,176,58.3z"/>
			</g>
		</g>
	</g>
	<g id="Group_4_2_">
		<g id="_x33___x23_6b489b_1_" class="st1">
			<g>
				<path class="st2" d="M167.3,58.3h-0.8c0,0-0.1,1.5-0.1,3.3v29c0,1.8,0,3.3,0.1,3.3h0.8c0,0,0.1-1.5,0.1-3.3v-29
					C167.4,59.8,167.3,58.3,167.3,58.3z"/>
			</g>
		</g>
		<g id="_x32___x23_6c4ca4_1_" class="st1">
			<g>
				<path class="st2" d="M171.7,58.3h-0.6c0,0-0.1,1.5-0.1,3.3v29c0,1.8,0,3.3,0.1,3.3h0.6c0,0,0.1-1.5,0.1-3.3v-29
					C171.8,59.8,171.8,58.3,171.7,58.3z"/>
			</g>
		</g>
		<g id="_x31___x23_724da4_8_" class="st1">
			<g>
				<path class="st2" d="M171.8,58.3h-0.7c0,0-0.1,1.5-0.1,3.3v29c0,1.8,0,3.3,0.1,3.3h0.7c0,0,0.1-1.5,0.1-3.3v-29
					C171.9,59.8,171.9,58.3,171.8,58.3z"/>
			</g>
		</g>
	</g>
	<g id="Group_3_2_">
		<g id="_x34___x23_7b52b0_19_" class="st1">
			<g>
				<path class="st2" d="M178.9,58.3h-2.2c-0.1,0-0.3,1.5-0.3,3.3v29c0,1.8,0.1,3.3,0.3,3.3h2.2c0.1,0,0.3-1.5,0.3-3.3v-29
					C179.2,59.8,179,58.3,178.9,58.3z"/>
			</g>
		</g>
		<g id="_x34___x23_7b52b0_11_" class="st1">
			<g>
				<path class="st2" d="M177.5,58.3h-4.9c-0.3,0-0.6,1.5-0.6,3.3v29c0,1.8,0.2,3.3,0.6,3.3h4.9c0.3,0,0.6-1.5,0.6-3.3v-29
					C178.1,59.8,177.8,58.3,177.5,58.3z"/>
			</g>
		</g>
		<g id="_x33___x23_8856b0_13_" class="st1">
			<g>
				<path class="st2" d="M174.4,58.3h-1.8c-0.1,0-0.2,1.5-0.2,3.3v29c0,1.8,0.1,3.3,0.2,3.3h1.8c0.1,0,0.2-1.5,0.2-3.3v-29
					C174.6,59.8,174.5,58.3,174.4,58.3z"/>
			</g>
		</g>
		<g id="_x32___x23_724fa5_11_" class="st1">
			<g>
				<path class="st2" d="M173.8,58.4H173c-0.1,0-0.1,1.5-0.1,3.3v29c0,1.8,0,3.3,0.1,3.3h0.9c0.1,0,0.1-1.5,0.1-3.3v-29
					C173.9,59.9,173.9,58.4,173.8,58.4z"/>
			</g>
		</g>
	</g>
	<g id="Group_2_2_" class="st10">
		<g id="_x34___x23_a66ad7_8_" class="st1">
			<g>
				<path class="st2" d="M185.2,58.3h-2.3c-0.1,0-0.3,1.5-0.3,3.3v29c0,1.8,0.1,3.3,0.3,3.3h2.3c0.1,0,0.3-1.5,0.3-3.3v-29
					C185.4,59.8,185.3,58.3,185.2,58.3z"/>
			</g>
		</g>
		<g id="_x33___x23_ba6ed7_3_" class="st1">
			<g>
				<path class="st2" d="M183.3,58.3H181c-0.1,0-0.3,1.5-0.3,3.3v29c0,1.8,0.1,3.3,0.3,3.3h2.3c0.1,0,0.3-1.5,0.3-3.3v-29
					C183.6,59.8,183.5,58.3,183.3,58.3z"/>
			</g>
		</g>
		<g id="_x32___x23_a569d7_3_" class="st8">
			<g>
				<path class="st0" d="M179.4,58.3h-5.6c-0.3,0-0.6,1.5-0.6,3.3v29c0,1.8,0.3,3.3,0.6,3.3h5.6c0.3,0,0.6-1.5,0.6-3.3v-29
					C180,59.8,179.7,58.3,179.4,58.3z"/>
			</g>
		</g>
		<g id="_x31___x23_b96ed5_8_" class="st1">
			<g>
				<path class="st2" d="M184.5,58.3h-2.3c-0.1,0-0.3,1.5-0.3,3.3v29c0,1.8,0.1,3.3,0.3,3.3h2.3c0.1,0,0.3-1.5,0.3-3.3v-29
					C184.8,59.8,184.7,58.3,184.5,58.3z"/>
			</g>
		</g>
		<g id="_x32___x23_a569d7_12_" class="st8">
			<g>
				<path class="st0" d="M188.1,58.3H164c-1.5,0-2.7,1.5-2.7,3.3v29c0,1.8,1.2,3.3,2.7,3.3h24.1c1.5,0,2.7-1.5,2.7-3.3v-29
					C190.8,59.8,189.6,58.3,188.1,58.3z"/>
			</g>
		</g>
	</g>
	<g id="Group_1_2_" class="st11">
		<g id="_x31___x23_f286fc_13_" class="st1">
			<g>
				<path class="st2" d="M188.9,58.3h-2.3c-0.1,0-0.3,1.5-0.3,3.3v29c0,1.8,0.1,3.3,0.3,3.3h2.3c0.1,0,0.3-1.5,0.3-3.3v-29
					C189.2,59.8,189.1,58.3,188.9,58.3z"/>
			</g>
		</g>
		<g id="_x33___x23_dc82fd_11_" class="st12">
			<g>
				<path class="st13" d="M185.8,58.3H184c-0.1,0-0.2,1.5-0.2,3.3v29c0,1.8,0.1,3.3,0.2,3.3h1.8c0.1,0,0.2-1.5,0.2-3.3v-29
					C186,59.8,186,58.3,185.8,58.3z"/>
			</g>
		</g>
		<g id="_x33___x23_dc82fd_9_" class="st12">
			<g>
				<path class="st14" d="M184.3,58.3h-0.4c0,0,0,1.5,0,3.3v29c0,1.8,0,3.3,0,3.3h0.4c0,0,0-1.5,0-3.3v-29
					C184.3,59.8,184.3,58.3,184.3,58.3z"/>
			</g>
		</g>
	</g>
</g>
<g class="st15">
	<path class="st16" d="M270.5,74.3h-2.2v6h-0.5v-6h-2.2v-0.5h5V74.3z"/>
	<path class="st16" d="M276.3,80.3h-0.6v-3.1h-3.7v3.1h-0.5v-6.5h0.5v2.9h3.7v-2.9h0.6V80.3z"/>
	<path class="st16" d="M278.6,80.3h-0.5v-6.5h0.5V80.3z"/>
	<path class="st16" d="M284.1,78.8c0-0.4-0.1-0.6-0.4-0.9c-0.3-0.2-0.7-0.4-1.4-0.6s-1.2-0.4-1.5-0.6c-0.4-0.3-0.7-0.7-0.7-1.2
		c0-0.5,0.2-0.9,0.6-1.2s0.9-0.5,1.6-0.5c0.4,0,0.8,0.1,1.2,0.2c0.3,0.2,0.6,0.4,0.8,0.7c0.2,0.3,0.3,0.6,0.3,1H284
		c0-0.4-0.2-0.8-0.5-1.1s-0.7-0.4-1.2-0.4c-0.5,0-0.9,0.1-1.2,0.3s-0.4,0.5-0.4,0.9c0,0.3,0.1,0.6,0.4,0.8c0.3,0.2,0.7,0.4,1.3,0.6
		c0.6,0.2,1,0.3,1.3,0.5s0.5,0.4,0.7,0.6c0.2,0.2,0.2,0.5,0.2,0.8c0,0.5-0.2,0.9-0.6,1.2c-0.4,0.3-0.9,0.5-1.6,0.5
		c-0.5,0-0.9-0.1-1.3-0.2c-0.4-0.2-0.7-0.4-0.9-0.7c-0.2-0.3-0.3-0.6-0.3-1h0.5c0,0.5,0.2,0.8,0.5,1.1s0.8,0.4,1.4,0.4
		c0.5,0,0.9-0.1,1.2-0.3S284.1,79.1,284.1,78.8z"/>
	<path class="st16" d="M288.7,80.3h-0.5v-6.5h0.5V80.3z"/>
	<path class="st16" d="M294.1,78.8c0-0.4-0.1-0.6-0.4-0.9c-0.3-0.2-0.7-0.4-1.4-0.6c-0.7-0.2-1.2-0.4-1.5-0.6
		c-0.4-0.3-0.7-0.7-0.7-1.2c0-0.5,0.2-0.9,0.6-1.2s0.9-0.5,1.6-0.5c0.4,0,0.8,0.1,1.2,0.2c0.3,0.2,0.6,0.4,0.8,0.7
		c0.2,0.3,0.3,0.6,0.3,1h-0.6c0-0.4-0.2-0.8-0.5-1.1c-0.3-0.3-0.7-0.4-1.2-0.4c-0.5,0-0.9,0.1-1.2,0.3s-0.4,0.5-0.4,0.9
		c0,0.3,0.1,0.6,0.4,0.8c0.3,0.2,0.7,0.4,1.3,0.6s1,0.3,1.3,0.5c0.3,0.2,0.5,0.4,0.7,0.6s0.2,0.5,0.2,0.8c0,0.5-0.2,0.9-0.6,1.2
		s-0.9,0.5-1.6,0.5c-0.5,0-0.9-0.1-1.3-0.2c-0.4-0.2-0.7-0.4-0.9-0.7c-0.2-0.3-0.3-0.6-0.3-1h0.5c0,0.5,0.2,0.8,0.5,1.1
		s0.8,0.4,1.4,0.4c0.5,0,0.9-0.1,1.2-0.3S294.1,79.1,294.1,78.8z"/>
	<path class="st17" d="M300,77.4l2-3.5h0.6l-2.3,4v2.4h-0.5v-2.4l-2.3-4h0.7L300,77.4z"/>
	<path class="st17" d="M308.2,77.5c0,0.6-0.1,1.1-0.3,1.6c-0.2,0.5-0.5,0.8-0.9,1c-0.4,0.2-0.8,0.4-1.3,0.4c-0.8,0-1.4-0.3-1.8-0.8
		c-0.5-0.5-0.7-1.3-0.7-2.2v-0.7c0-0.6,0.1-1.1,0.3-1.6c0.2-0.5,0.5-0.8,0.9-1.1c0.4-0.2,0.8-0.4,1.3-0.4c0.5,0,0.9,0.1,1.3,0.4
		s0.7,0.6,0.9,1c0.2,0.4,0.3,0.9,0.3,1.5V77.5z M307.6,76.8c0-0.8-0.2-1.4-0.5-1.8c-0.4-0.4-0.8-0.7-1.5-0.7c-0.6,0-1.1,0.2-1.4,0.7
		c-0.4,0.4-0.5,1.1-0.5,1.9v0.7c0,0.8,0.2,1.4,0.5,1.8c0.4,0.5,0.8,0.7,1.5,0.7c0.6,0,1.1-0.2,1.5-0.7c0.3-0.4,0.5-1.1,0.5-1.9V76.8
		z"/>
	<path class="st17" d="M314,73.9v4.4c0,0.4-0.1,0.8-0.3,1.1c-0.2,0.3-0.5,0.6-0.8,0.7c-0.3,0.2-0.7,0.3-1.2,0.3
		c-0.7,0-1.2-0.2-1.6-0.6c-0.4-0.4-0.6-0.9-0.6-1.5v-4.5h0.5v4.4c0,0.5,0.2,1,0.5,1.3c0.3,0.3,0.7,0.5,1.3,0.5c0.5,0,1-0.2,1.3-0.5
		c0.3-0.3,0.5-0.7,0.5-1.3v-4.4H314z"/>
	<path class="st16" d="M315.3,81.6l-0.3-0.2c0.3-0.4,0.4-0.7,0.4-1.1v-0.7h0.5v0.6C315.9,80.7,315.7,81.2,315.3,81.6z"/>
	<path class="st16" d="M324.1,78.3c-0.1,0.7-0.3,1.2-0.7,1.6c-0.4,0.4-1,0.5-1.7,0.5c-0.5,0-0.9-0.1-1.3-0.4c-0.4-0.2-0.7-0.6-0.9-1
		s-0.3-0.9-0.3-1.5v-0.8c0-0.6,0.1-1.1,0.3-1.5c0.2-0.4,0.5-0.8,0.9-1c0.4-0.2,0.8-0.4,1.3-0.4c0.7,0,1.2,0.2,1.6,0.6
		s0.6,0.9,0.7,1.6h-0.6c-0.1-1.1-0.7-1.7-1.8-1.7c-0.6,0-1.1,0.2-1.4,0.7c-0.3,0.4-0.5,1-0.5,1.8v0.8c0,0.7,0.2,1.3,0.5,1.8
		c0.3,0.4,0.8,0.7,1.4,0.7c0.6,0,1-0.1,1.3-0.4c0.3-0.3,0.5-0.7,0.5-1.2H324.1z"/>
	<path class="st16" d="M327.9,77.6H326v2.7h-0.6v-6.5h2.1c0.7,0,1.2,0.2,1.6,0.5c0.4,0.3,0.6,0.8,0.6,1.4c0,0.4-0.1,0.8-0.4,1.1
		s-0.6,0.5-1,0.7l1.6,2.8v0.1h-0.6L327.9,77.6z M326,77.2h1.7c0.5,0,0.8-0.1,1.1-0.4c0.3-0.3,0.4-0.6,0.4-1c0-0.5-0.1-0.8-0.4-1.1
		c-0.3-0.3-0.7-0.4-1.2-0.4H326V77.2z"/>
	<path class="st16" d="M335.7,73.9v4.4c0,0.4-0.1,0.8-0.3,1.1c-0.2,0.3-0.5,0.6-0.8,0.7c-0.3,0.2-0.7,0.3-1.2,0.3
		c-0.7,0-1.2-0.2-1.6-0.6c-0.4-0.4-0.6-0.9-0.6-1.5v-4.5h0.5v4.4c0,0.5,0.2,1,0.5,1.3c0.3,0.3,0.7,0.5,1.3,0.5c0.5,0,1-0.2,1.3-0.5
		c0.3-0.3,0.5-0.7,0.5-1.3v-4.4H335.7z"/>
	<path class="st16" d="M340.9,78.8c0-0.4-0.1-0.6-0.4-0.9c-0.3-0.2-0.7-0.4-1.4-0.6c-0.7-0.2-1.2-0.4-1.5-0.6
		c-0.4-0.3-0.7-0.7-0.7-1.2c0-0.5,0.2-0.9,0.6-1.2s0.9-0.5,1.6-0.5c0.4,0,0.8,0.1,1.2,0.2c0.3,0.2,0.6,0.4,0.8,0.7
		c0.2,0.3,0.3,0.6,0.3,1h-0.6c0-0.4-0.2-0.8-0.5-1.1c-0.3-0.3-0.7-0.4-1.2-0.4c-0.5,0-0.9,0.1-1.2,0.3s-0.4,0.5-0.4,0.9
		c0,0.3,0.1,0.6,0.4,0.8c0.3,0.2,0.7,0.4,1.3,0.6s1,0.3,1.3,0.5c0.3,0.2,0.5,0.4,0.7,0.6s0.2,0.5,0.2,0.8c0,0.5-0.2,0.9-0.6,1.2
		s-0.9,0.5-1.6,0.5c-0.5,0-0.9-0.1-1.3-0.2c-0.4-0.2-0.7-0.4-0.9-0.7c-0.2-0.3-0.3-0.6-0.3-1h0.5c0,0.5,0.2,0.8,0.5,1.1
		s0.8,0.4,1.4,0.4c0.5,0,0.9-0.1,1.2-0.3S340.9,79.1,340.9,78.8z"/>
	<path class="st16" d="M347.4,80.3h-0.6v-3.1h-3.7v3.1h-0.5v-6.5h0.5v2.9h3.7v-2.9h0.6V80.3z"/>
	<path class="st16" d="M349.8,80.3h-0.5v-6.5h0.5V80.3z"/>
	<path class="st16" d="M356.3,80.3h-0.5l-3.7-5.5v5.5h-0.6v-6.5h0.6l3.7,5.6v-5.6h0.5V80.3z"/>
	<path class="st16" d="M362.7,79.6c-0.2,0.3-0.5,0.5-0.9,0.6s-0.9,0.2-1.4,0.2c-0.5,0-1-0.1-1.4-0.4c-0.4-0.2-0.7-0.6-0.9-1
		s-0.3-1-0.3-1.5v-0.8c0-0.9,0.2-1.6,0.7-2.1c0.5-0.5,1.1-0.8,1.8-0.8c0.7,0,1.2,0.2,1.6,0.5c0.4,0.3,0.6,0.8,0.7,1.4h-0.5
		c-0.1-0.5-0.3-0.8-0.6-1.1c-0.3-0.2-0.7-0.4-1.2-0.4c-0.6,0-1.1,0.2-1.4,0.6c-0.4,0.4-0.5,1-0.5,1.8v0.8c0,0.5,0.1,0.9,0.3,1.3
		s0.4,0.7,0.7,0.9s0.7,0.3,1.1,0.3c0.5,0,0.9-0.1,1.2-0.2c0.2-0.1,0.4-0.2,0.5-0.3v-1.7h-1.7v-0.5h2.3V79.6z"/>
	<path class="st16" d="M370.7,74.3h-2.2v6h-0.5v-6h-2.2v-0.5h5V74.3z"/>
	<path class="st16" d="M376.5,80.3H376v-3.1h-3.7v3.1h-0.5v-6.5h0.5v2.9h3.7v-2.9h0.6V80.3z"/>
	<path class="st16" d="M381.8,77.2h-3v2.6h3.5v0.5h-4v-6.5h4v0.5h-3.5v2.5h3V77.2z"/>
	<path class="st16" d="M390.2,78.3c-0.1,0.7-0.3,1.2-0.7,1.6c-0.4,0.4-1,0.5-1.7,0.5c-0.5,0-0.9-0.1-1.3-0.4c-0.4-0.2-0.7-0.6-0.9-1
		s-0.3-0.9-0.3-1.5v-0.8c0-0.6,0.1-1.1,0.3-1.5c0.2-0.4,0.5-0.8,0.9-1c0.4-0.2,0.8-0.4,1.3-0.4c0.7,0,1.2,0.2,1.6,0.6
		s0.6,0.9,0.7,1.6h-0.6c-0.1-1.1-0.7-1.7-1.8-1.7c-0.6,0-1.1,0.2-1.4,0.7c-0.3,0.4-0.5,1-0.5,1.8v0.8c0,0.7,0.2,1.3,0.5,1.8
		c0.3,0.4,0.8,0.7,1.4,0.7c0.6,0,1-0.1,1.3-0.4c0.3-0.3,0.5-0.7,0.5-1.2H390.2z"/>
	<path class="st16" d="M396.3,77.5c0,0.6-0.1,1.1-0.3,1.6c-0.2,0.5-0.5,0.8-0.9,1c-0.4,0.2-0.8,0.4-1.3,0.4c-0.8,0-1.4-0.3-1.8-0.8
		c-0.5-0.5-0.7-1.3-0.7-2.2v-0.7c0-0.6,0.1-1.1,0.3-1.6c0.2-0.5,0.5-0.8,0.9-1.1c0.4-0.2,0.8-0.4,1.3-0.4c0.5,0,0.9,0.1,1.3,0.4
		s0.7,0.6,0.9,1c0.2,0.4,0.3,0.9,0.3,1.5V77.5z M395.8,76.8c0-0.8-0.2-1.4-0.5-1.8c-0.4-0.4-0.8-0.7-1.5-0.7c-0.6,0-1.1,0.2-1.4,0.7
		c-0.4,0.4-0.5,1.1-0.5,1.9v0.7c0,0.8,0.2,1.4,0.5,1.8c0.4,0.5,0.8,0.7,1.5,0.7c0.6,0,1.1-0.2,1.5-0.7c0.3-0.4,0.5-1.1,0.5-1.9V76.8
		z"/>
	<path class="st16" d="M398.4,73.9l2.4,5.7l2.4-5.7h0.7v6.5h-0.5v-2.8l0-2.9l-2.4,5.7h-0.4l-2.4-5.7l0,2.9v2.8h-0.5v-6.5H398.4z"/>
	<path class="st16" d="M406.1,77.7v2.6h-0.5v-6.5h2.2c0.7,0,1.2,0.2,1.6,0.5s0.6,0.8,0.6,1.4c0,0.6-0.2,1.1-0.6,1.4
		c-0.4,0.3-0.9,0.5-1.6,0.5H406.1z M406.1,77.2h1.7c0.5,0,0.9-0.1,1.2-0.4c0.3-0.3,0.4-0.6,0.4-1.1c0-0.4-0.1-0.8-0.4-1.1
		c-0.3-0.3-0.7-0.4-1.2-0.4h-1.7V77.2z"/>
	<path class="st16" d="M414.8,77.2h-3v2.6h3.5v0.5h-4v-6.5h4v0.5h-3.5v2.5h3V77.2z"/>
	<path class="st16" d="M420.9,74.3h-2.2v6h-0.5v-6h-2.2v-0.5h5V74.3z"/>
	<path class="st16" d="M422.6,80.3H422v-6.5h0.5V80.3z"/>
	<path class="st16" d="M428.6,74.3h-2.2v6h-0.5v-6h-2.2v-0.5h5V74.3z"/>
	<path class="st16" d="M430.3,80.3h-0.5v-6.5h0.5V80.3z"/>
	<path class="st16" d="M436.9,77.5c0,0.6-0.1,1.1-0.3,1.6c-0.2,0.5-0.5,0.8-0.9,1c-0.4,0.2-0.8,0.4-1.3,0.4c-0.8,0-1.4-0.3-1.8-0.8
		c-0.5-0.5-0.7-1.3-0.7-2.2v-0.7c0-0.6,0.1-1.1,0.3-1.6c0.2-0.5,0.5-0.8,0.9-1.1c0.4-0.2,0.8-0.4,1.3-0.4c0.5,0,0.9,0.1,1.3,0.4
		s0.7,0.6,0.9,1c0.2,0.4,0.3,0.9,0.3,1.5V77.5z M436.3,76.8c0-0.8-0.2-1.4-0.5-1.8c-0.4-0.4-0.8-0.7-1.5-0.7c-0.6,0-1.1,0.2-1.4,0.7
		c-0.4,0.4-0.5,1.1-0.5,1.9v0.7c0,0.8,0.2,1.4,0.5,1.8c0.4,0.5,0.8,0.7,1.5,0.7c0.6,0,1.1-0.2,1.5-0.7c0.3-0.4,0.5-1.1,0.5-1.9V76.8
		z"/>
	<path class="st16" d="M443.1,80.3h-0.5l-3.7-5.5v5.5h-0.6v-6.5h0.6l3.7,5.6v-5.6h0.5V80.3z"/>
	<path class="st16" d="M444.6,80c0-0.1,0-0.2,0.1-0.3c0.1-0.1,0.2-0.1,0.3-0.1s0.2,0,0.3,0.1c0.1,0.1,0.1,0.2,0.1,0.3
		c0,0.1,0,0.2-0.1,0.3c-0.1,0.1-0.2,0.1-0.3,0.1s-0.2,0-0.3-0.1C444.6,80.2,444.6,80.1,444.6,80z"/>
</g>
<text transform="matrix(1 0 0 1 215.2378 90.3499)" class="st18 st19 st20">THIS IS YOU, CRUSHING THE COMPETITION.</text>
<g id="Layer_16">
</g>
<g>
	<g id="_x34___x23_7250b0_26_" class="st21">
		<g>
			<path class="st22" d="M334.7,1.7H318c-1,0-1.9,1.5-1.9,3.3v29c0,1.8,0.8,3.3,1.9,3.3h16.7c1,0,1.9-1.5,1.9-3.3V5
				C336.6,3.2,335.8,1.7,334.7,1.7z"/>
		</g>
	</g>
	<g id="_x31___x23_f286fc_7_">
		<g>
			<path class="st23" d="M183.4,1.7h-27.3c-1.7,0-3.1,1.5-3.1,3.3v29.1c0,1.8,1.4,3.3,3.1,3.3h27.3c1.7,0,3.1-1.5,3.1-3.3V5
				C186.4,3.2,185.1,1.7,183.4,1.7z"/>
		</g>
	</g>
	<g id="_x32___x23_8a62d7_18_">
		<g>
			<path class="st0" d="M455.6,1.7h-19.4C435,1.7,434,3.2,434,5v29c0,1.8,1,3.3,2.2,3.3h19.4c1.2,0,2.2-1.5,2.2-3.3V5
				C457.8,3.2,456.8,1.7,455.6,1.7z"/>
		</g>
	</g>
	<g id="_x34___x23_7250b0_21_">
		<g>
			<path class="st24" d="M423.6,1.7h-19.4C403,1.7,402,3.2,402,5v29c0,1.8,1,3.3,2.2,3.3h19.4c1.2,0,2.2-1.5,2.2-3.3V5
				C425.8,3.2,424.8,1.7,423.6,1.7z"/>
		</g>
	</g>
	<g id="_x33___x23_7450b0_16_" class="st1">
		<g>
			<path class="st2" d="M450,1.7h-20.8c-1.3,0-2.3,1.5-2.3,3.3v29c0,1.8,1,3.3,2.3,3.3H450c1.3,0,2.3-1.5,2.3-3.3V5
				C452.3,3.2,451.3,1.7,450,1.7z"/>
		</g>
	</g>
	<g id="_x31___x23_8b63d7_6_" class="st25">
		<g>
			<path class="st26" d="M427.5,1.7h-33.9c-2.1,0-3.8,1.5-3.8,3.3v29c0,1.8,1.7,3.3,3.8,3.3h33.9c2.1,0,3.8-1.5,3.8-3.3V5
				C431.3,3.2,429.6,1.7,427.5,1.7z"/>
		</g>
	</g>
	<g id="_x34___x23_7250b0_14_" class="st21">
		<g>
			<path class="st27" d="M421.8,1.7h-20.6c-1.3,0-2.3,1.5-2.3,3.3v29c0,1.8,1,3.3,2.3,3.3h20.6c1.3,0,2.3-1.5,2.3-3.3V5
				C424.2,3.2,423.1,1.7,421.8,1.7z"/>
		</g>
	</g>
	<g id="_x33___x23_7551b1_7_" class="st21">
		<g>
			<path class="st27" d="M365.2,1.7h-11.9c-0.7,0-1.3,1.5-1.3,3.3v29c0,1.8,0.6,3.3,1.3,3.3h11.9c0.7,0,1.3-1.5,1.3-3.3V5
				C366.5,3.2,365.9,1.7,365.2,1.7z"/>
		</g>
	</g>
	<g id="_x32___x23_7250b0_9_" class="st21">
		<g>
			<path class="st28" d="M405.2,1.7h-21.3c-1.3,0-2.4,1.5-2.4,3.3v29c0,1.8,1.1,3.3,2.4,3.3h21.3c1.3,0,2.4-1.5,2.4-3.3V5
				C407.6,3.2,406.6,1.7,405.2,1.7z"/>
		</g>
	</g>
	<g id="_x34___x23_7250b0_12_" class="st29">
		<g>
			<path class="st30" d="M347,1.7h-19.4c-1.2,0-2.2,1.5-2.2,3.3v29c0,1.8,1,3.3,2.2,3.3H347c1.2,0,2.2-1.5,2.2-3.3V5
				C349.2,3.2,348.2,1.7,347,1.7z"/>
		</g>
	</g>
	<g id="_x31___x23_7450b0_7_" class="st21">
		<g>
			<path class="st28" d="M354,1.7h-20.8c-1.3,0-2.3,1.5-2.3,3.3v29c0,1.8,1.1,3.3,2.3,3.3H354c1.3,0,2.3-1.5,2.3-3.3V5
				C356.4,3.2,355.3,1.7,354,1.7z"/>
		</g>
	</g>
	<g id="_x32___x23_6c4ca4_16_">
		<g>
			<path class="st31" d="M313.3,1.7h-12.5c-0.8,0-1.4,1.5-1.4,3.3v29c0,1.8,0.6,3.3,1.4,3.3h12.5c0.8,0,1.4-1.5,1.4-3.3V5
				C314.7,3.2,314.1,1.7,313.3,1.7z"/>
		</g>
	</g>
	<g id="_x34___x23_6c4ca4_10_" class="st21">
		<g>
			<path class="st28" d="M326.6,1.7H291c-2.2,0-4,1.5-4,3.3v29c0,1.8,1.8,3.3,4,3.3h35.6c2.2,0,4-1.5,4-3.3V5
				C330.6,3.2,328.8,1.7,326.6,1.7z"/>
		</g>
	</g>
	<g id="_x34___x23_7b52b0_9_">
		<g>
			<path class="st32" d="M284.7,1.7h-19.6c-1.2,0-2.2,1.5-2.2,3.3v29c0,1.8,1,3.3,2.2,3.3h19.6c1.2,0,2.2-1.5,2.2-3.3V5
				C286.9,3.2,285.9,1.7,284.7,1.7z"/>
		</g>
	</g>
	<g id="_x33___x23_8856b0_7_">
		<g>
			<path class="st33" d="M289.5,1.7h-17.2c-1.1,0-1.9,1.5-1.9,3.3v29c0,1.8,0.9,3.3,1.9,3.3h17.2c1.1,0,1.9-1.5,1.9-3.3V5
				C291.5,3.2,290.6,1.7,289.5,1.7z"/>
		</g>
	</g>
	<g id="_x31___x23_7f52a5_3_">
		<g>
			<path class="st34" d="M290.1,1.7h-19.4c-1.2,0-2.2,1.5-2.2,3.3v29c0,1.8,1,3.3,2.2,3.3h19.4c1.2,0,2.2-1.5,2.2-3.3V5
				C292.3,3.2,291.3,1.7,290.1,1.7z"/>
		</g>
	</g>
	<g id="_x34___x23_a66ad7_16_">
		<g>
			<path class="st35" d="M208,1.7h-19.4c-1.2,0-2.2,1.5-2.2,3.3v29c0,1.8,1,3.3,2.2,3.3H208c1.2,0,2.2-1.5,2.2-3.3V5
				C210.2,3.2,209.2,1.7,208,1.7z"/>
		</g>
	</g>
	<g id="_x33___x23_ba6ed7_16_" class="st21">
		<g>
			<path class="st28" d="M234.5,1.7h-19.4c-1.2,0-2.2,1.5-2.2,3.3v29c0,1.8,1,3.3,2.2,3.3h19.4c1.2,0,2.2-1.5,2.2-3.3V5
				C236.7,3.2,235.7,1.7,234.5,1.7z"/>
		</g>
	</g>
	<g id="_x32___x23_a569d7_20_">
		<g>
			<path class="st36" d="M233.6,1.7h-13.7c-0.8,0-1.5,1.5-1.5,3.3v29c0,1.8,0.7,3.3,1.5,3.3h13.6c0.8,0,1.5-1.5,1.5-3.3V5
				C235.1,3.2,234.4,1.7,233.6,1.7z"/>
		</g>
	</g>
	<g id="_x31___x23_b96ed5_16_">
		<g>
			<path class="st37" d="M213.5,1.7H194c-1.2,0-2.2,1.5-2.2,3.3v29c0,1.8,1,3.3,2.2,3.3h19.4c1.2,0,2.2-1.5,2.2-3.3V5
				C215.7,3.2,214.7,1.7,213.5,1.7z"/>
		</g>
	</g>
	<g id="_x34___x23_e480ee_3_">
		<g>
			<path class="st38" d="M181.7,1.7h-19.4c-1.2,0-2.2,1.5-2.2,3.3v29c0,1.8,1,3.3,2.2,3.3h19.4c1.2,0,2.2-1.5,2.2-3.3V5
				C183.9,3.2,182.9,1.7,181.7,1.7z"/>
		</g>
	</g>
	<g id="_x33___x23_dc82fd_7_">
		<g>
			<path class="st39" d="M213.7,1.7h-19.4c-1.2,0-2.2,1.5-2.2,3.3v29c0,1.8,1,3.3,2.2,3.3h19.4c1.2,0,2.2-1.5,2.2-3.3V5
				C215.9,3.2,215,1.7,213.7,1.7z"/>
		</g>
	</g>
	<g id="_x32___x23_c174e0_3_">
		<g>
			<path class="st40" d="M202.9,1.7h-9.7c-0.6,0-1.1,1.5-1.1,3.3v29c0,1.8,0.5,3.3,1.1,3.3h9.7c0.6,0,1.1-1.5,1.1-3.3V5
				C204,3.2,203.5,1.7,202.9,1.7z"/>
		</g>
	</g>
	<g id="_x31___x23_f286fc_5_">
		<g>
			<path class="st41" d="M187.2,1.7h-19.4c-1.2,0-2.2,1.5-2.2,3.3v29.1c0,1.8,1,3.3,2.2,3.3h19.4c1.2,0,2.2-1.5,2.2-3.3V5
				C189.4,3.2,188.4,1.7,187.2,1.7z"/>
		</g>
	</g>
	<g id="_x33___x23_7450b0_12_" class="st21">
		<g>
			<path class="st22" d="M437.6,1.7h-19.4C417,1.7,416,3.2,416,5v29c0,1.8,1,3.3,2.2,3.3h19.4c1.2,0,2.2-1.5,2.2-3.3V5
				C439.8,3.2,438.8,1.7,437.6,1.7z"/>
		</g>
	</g>
	<g id="_x32___x23_8a62d7_14_" class="st1">
		<g>
			<path class="st2" d="M448.5,1.7h-19.4c-1.2,0-2.2,1.5-2.2,3.3v29.1c0,1.8,1,3.3,2.2,3.3h19.4c1.2,0,2.2-1.5,2.2-3.3V5
				C450.7,3.2,449.7,1.7,448.5,1.7z"/>
		</g>
	</g>
	<g id="_x33___x23_7551b1_5_" class="st21">
		<g>
			<path class="st28" d="M390.5,1.7h-19.4c-1.2,0-2.2,1.5-2.2,3.3v29c0,1.8,1,3.3,2.2,3.3h19.4c1.2,0,2.2-1.5,2.2-3.3V5
				C392.7,3.2,391.7,1.7,390.5,1.7z"/>
		</g>
	</g>
	<g id="_x32___x23_7250b0_6_" class="st1">
		<g>
			<path class="st42" d="M451.8,1.7h-17.4c-1.1,0-2,1.5-2,3.3v29.1c0,1.8,0.9,3.3,2,3.3h17.4c1.1,0,2-1.5,2-3.3V5
				C453.7,3.2,452.8,1.7,451.8,1.7z"/>
		</g>
	</g>
	<g id="_x31___x23_7450b0_5_" class="st21">
		<g>
			<path class="st28" d="M326.3,1.7h-7.2c-0.4,0-0.8,1.5-0.8,3.3v29.1c0,1.8,0.4,3.3,0.8,3.3h7.2c0.4,0,0.8-1.5,0.8-3.3V5
				C327.1,3.2,326.8,1.7,326.3,1.7z"/>
		</g>
	</g>
	<g id="_x33___x23_6b489b_11_" class="st21">
		<g>
			<path class="st28" d="M345.8,1.7H339c-0.4,0-0.8,1.5-0.8,3.3v29c0,1.8,0.3,3.3,0.8,3.3h6.8c0.4,0,0.8-1.5,0.8-3.3V5
				C346.6,3.2,346.2,1.7,345.8,1.7z"/>
		</g>
	</g>
	<g id="_x32___x23_6c4ca4_12_">
		<g>
			<path class="st31" d="M306.8,1.7h-5.5c-0.3,0-0.6,1.5-0.6,3.3v29c0,1.8,0.3,3.3,0.6,3.3h5.5c0.3,0,0.6-1.5,0.6-3.3V5
				C307.4,3.2,307.1,1.7,306.8,1.7z"/>
		</g>
	</g>
	<g id="_x31___x23_724da4_11_">
		<g>
			<path class="st43" d="M306.7,1.7h-6.3c-0.4,0-0.7,1.5-0.7,3.3v29c0,1.8,0.3,3.3,0.7,3.3h6.3c0.4,0,0.7-1.5,0.7-3.3V5
				C307.4,3.2,307.1,1.7,306.7,1.7z"/>
		</g>
	</g>
	<g id="_x34___x23_7b52b0_7_" class="st44">
		<g>
			<path class="st45" d="M259.3,1.7h-19.1c-1.2,0-2.1,1.5-2.1,3.3v29.1c0,1.8,1,3.3,2.1,3.3h19.1c1.2,0,2.1-1.5,2.1-3.3V5
				C261.4,3.2,260.4,1.7,259.3,1.7z"/>
		</g>
	</g>
	<g id="_x34___x23_7b52b0_5_" class="st21">
		<g>
			<path class="st28" d="M260.1,1.7h-11.4c-0.7,0-1.3,1.5-1.3,3.3v29.1c0,1.8,0.6,3.3,1.3,3.3h11.4c0.7,0,1.3-1.5,1.3-3.3V5
				C261.4,3.2,260.8,1.7,260.1,1.7z"/>
		</g>
	</g>
	<g id="_x33___x23_8856b0_5_">
		<g>
			<path class="st43" d="M294.2,1.7h-15.5c-1,0-1.7,1.5-1.7,3.3v29c0,1.8,0.8,3.3,1.7,3.3h15.5c1,0,1.7-1.5,1.7-3.3V5
				C295.9,3.2,295.1,1.7,294.2,1.7z"/>
		</g>
	</g>
	<g id="_x32___x23_724fa5_5_" class="st46">
		<g>
			<path class="st47" d="M290.7,1.7h-7.4c-0.5,0-0.8,1.5-0.8,3.3v29c0,1.8,0.4,3.3,0.8,3.3h7.4c0.5,0,0.8-1.5,0.8-3.3V5
				C291.5,3.2,291.2,1.7,290.7,1.7z"/>
		</g>
	</g>
	<g id="_x34___x23_a66ad7_12_">
		<g>
			<path class="st35" d="M206.4,1.7h-19.5c-1.2,0-2.2,1.5-2.2,3.3v29c0,1.8,1,3.3,2.2,3.3h19.4c1.2,0,2.2-1.5,2.2-3.3V5
				C208.5,3.2,207.6,1.7,206.4,1.7z"/>
		</g>
	</g>
	<g id="_x33___x23_ba6ed7_12_">
		<g>
			<path class="st48" d="M222,1.7h-19.5c-1.2,0-2.2,1.5-2.2,3.3v29c0,1.8,1,3.3,2.2,3.3H222c1.2,0,2.2-1.5,2.2-3.3V5
				C224.1,3.2,223.2,1.7,222,1.7z"/>
		</g>
	</g>
	<g id="_x32___x23_a569d7_16_" class="st21">
		<g>
			<path class="st28" d="M227.4,1.7H208c-1.2,0-2.2,1.5-2.2,3.3v29c0,1.8,1,3.3,2.2,3.3h19.4c1.2,0,2.2-1.5,2.2-3.3V5
				C229.6,3.2,228.6,1.7,227.4,1.7z"/>
		</g>
	</g>
	<g id="_x31___x23_b96ed5_12_">
		<g>
			<path class="st49" d="M211.8,1.7h-19.4c-1.2,0-2.2,1.5-2.2,3.3v29.1c0,1.8,1,3.3,2.2,3.3h19.4c1.2,0,2.2-1.5,2.2-3.3V5
				C214,3.2,213,1.7,211.8,1.7z"/>
		</g>
	</g>
	<g id="_x33___x23_dc82fd_5_">
		<g>
			<path class="st50" d="M196.2,1.7h-15c-0.9,0-1.7,1.5-1.7,3.3v29c0,1.8,0.8,3.3,1.7,3.3h15c0.9,0,1.7-1.5,1.7-3.3V5
				C197.9,3.2,197.1,1.7,196.2,1.7z"/>
		</g>
	</g>
</g>
<g>
	<g id="_x31___x23_f286fc_3_">
		<g>
			<path class="st51" d="M182.7-55.4H156c-1.7,0-3,1.5-3,3.3V-23c0,1.8,1.3,3.3,3,3.3h26.7c1.7,0,3-1.5,3-3.3v-29.1
				C185.7-53.9,184.4-55.4,182.7-55.4z"/>
		</g>
	</g>
	<g id="_x32___x23_8a62d7_6_">
		<g>
			<path class="st52" d="M492.8-55.4H473c-1.1,0-2,1.5-2,3.3v29c0,1.8,0.9,3.3,2,3.3h19.8"/>
		</g>
	</g>
	<g id="_x34___x23_7250b0_10_">
		<g>
			<path class="st24" d="M461.5-55.4h-17.8c-1.1,0-2,1.5-2,3.3v29c0,1.8,0.9,3.3,2,3.3h17.8c1.1,0,2-1.5,2-3.3v-29
				C463.5-53.9,462.6-55.4,461.5-55.4z"/>
		</g>
	</g>
	<g id="_x33___x23_7450b0_5_">
		<g>
			<path class="st53" d="M485.4-55.4h-20.9c-1.3,0-2.3,1.5-2.3,3.3v29c0,1.8,1.1,3.3,2.3,3.3h20.9c1.3,0,2.3-1.5,2.3-3.3v-29
				C487.8-53.9,486.7-55.4,485.4-55.4z"/>
		</g>
	</g>
	<g id="_x31___x23_8b63d7_2_">
		<g>
			<path class="st54" d="M465-55.4h-31c-1.9,0-3.5,1.5-3.5,3.3v29c0,1.8,1.6,3.3,3.5,3.3h31c1.9,0,3.5-1.5,3.5-3.3v-29
				C468.5-53.9,467-55.4,465-55.4z"/>
		</g>
	</g>
	<g id="_x33___x23_7551b1_3_">
		<g>
			<path class="st54" d="M418.1-55.4h-10.9c-0.7,0-1.2,1.5-1.2,3.3v29c0,1.8,0.5,3.3,1.2,3.3h10.9c0.7,0,1.2-1.5,1.2-3.3v-29
				C419.4-53.9,418.8-55.4,418.1-55.4z"/>
		</g>
	</g>
	<g id="_x32___x23_7250b0_4_">
		<g>
			<path class="st55" d="M432.7-55.4h-19.5c-1.2,0-2.2,1.5-2.2,3.3v29c0,1.8,1,3.3,2.2,3.3h19.5c1.2,0,2.2-1.5,2.2-3.3v-29
				C434.9-53.9,433.9-55.4,432.7-55.4z"/>
		</g>
	</g>
	<g id="_x34___x23_7250b0_8_">
		<g>
			<path class="st55" d="M401.5-55.4h-17.8c-1.1,0-2,1.5-2,3.3v29c0,1.8,0.9,3.3,2,3.3h17.8c1.1,0,2-1.5,2-3.3v-29
				C403.5-53.9,402.6-55.4,401.5-55.4z"/>
		</g>
	</g>
	<g id="_x31___x23_7450b0_3_">
		<g>
			<path class="st53" d="M408-55.4h-19c-1.2,0-2.1,1.5-2.1,3.3v29c0,1.8,1,3.3,2.1,3.3h19c1.2,0,2.1-1.5,2.1-3.3v-29
				C410.1-53.9,409.2-55.4,408-55.4z"/>
		</g>
	</g>
	<g id="_x32___x23_6c4ca4_6_">
		<g>
			<path class="st31" d="M369-55.4h-27c-1.7,0-3,1.5-3,3.3v29c0,1.8,1.4,3.3,3,3.3h27c1.7,0,3-1.5,3-3.3v-29
				C372-53.9,370.7-55.4,369-55.4z"/>
		</g>
	</g>
	<g id="_x34___x23_6c4ca4_4_">
		<g>
			<path class="st31" d="M344.5-55.4h-17.8c-1.1,0-2,1.5-2,3.3v29c0,1.8,0.9,3.3,2,3.3h17.8c1.1,0,2-1.5,2-3.3v-29
				C346.5-53.9,345.6-55.4,344.5-55.4z"/>
		</g>
	</g>
	<g id="_x33___x23_6b489b_5_">
		<g>
			<path class="st56" d="M362.7-55.4h-8.6c-0.5,0-1,1.5-1,3.3v29c0,1.8,0.4,3.3,1,3.3h8.6c0.5,0,1-1.5,1-3.3v-29
				C363.7-53.9,363.3-55.4,362.7-55.4z"/>
		</g>
	</g>
	<g id="_x31___x23_724da4_6_">
		<g>
			<path class="st57" d="M346.5-55.4h-15c-0.9,0-1.7,1.5-1.7,3.3v29c0,1.8,0.8,3.3,1.7,3.3h15c0.9,0,1.7-1.5,1.7-3.3v-29
				C348.2-53.9,347.4-55.4,346.5-55.4z"/>
		</g>
	</g>
	<g id="_x34___x23_7b52b0_3_">
		<g>
			<path class="st58" d="M296.6-55.4h-27.5c-1.7,0-3.1,1.5-3.1,3.3v29c0,1.8,1.4,3.3,3.1,3.3h27.5c1.7,0,3.1-1.5,3.1-3.3v-29
				C299.7-53.9,298.3-55.4,296.6-55.4z"/>
		</g>
	</g>
	<g id="_x33___x23_8856b0_3_">
		<g>
			<path class="st33" d="M309-55.4h-15.7c-1,0-1.8,1.5-1.8,3.3v29c0,1.8,0.8,3.3,1.8,3.3H309c1,0,1.8-1.5,1.8-3.3v-29
				C310.8-53.9,310-55.4,309-55.4z"/>
		</g>
	</g>
	<g id="_x32___x23_724fa5_3_">
		<g>
			<path class="st47" d="M317.8-55.4h-16.7c-1,0-1.9,1.5-1.9,3.3v29c0,1.8,0.8,3.3,1.9,3.3h16.7c1,0,1.9-1.5,1.9-3.3v-29
				C319.7-53.9,318.9-55.4,317.8-55.4z"/>
		</g>
	</g>
	<g id="_x31___x23_7f52a5_1_">
		<g>
			<path class="st59" d="M289.5-55.4h-17.7c-1.1,0-2,1.5-2,3.3v29c0,1.8,0.9,3.3,2,3.3h17.7c1.1,0,2-1.5,2-3.3v-29
				C291.5-53.9,290.6-55.4,289.5-55.4z"/>
		</g>
	</g>
	<g id="_x34___x23_a66ad7_5_">
		<g>
			<path class="st35" d="M227.4-55.4h-16.5c-1,0-1.9,1.5-1.9,3.3v29c0,1.8,0.8,3.3,1.9,3.3h16.5c1,0,1.9-1.5,1.9-3.3v-29
				C229.2-53.9,228.4-55.4,227.4-55.4z"/>
		</g>
	</g>
	<g id="_x33___x23_ba6ed7_6_">
		<g>
			<path class="st48" d="M249.8-55.4h-16.4c-1,0-1.9,1.5-1.9,3.3v29c0,1.8,0.8,3.3,1.9,3.3h16.5c1,0,1.9-1.5,1.9-3.3v-29
				C251.7-53.9,250.9-55.4,249.8-55.4z"/>
		</g>
	</g>
	<g id="_x32___x23_a569d7_6_">
		<g>
			<path class="st60" d="M254.5-55.4H238c-1,0-1.9,1.5-1.9,3.3v29c0,1.8,0.8,3.3,1.9,3.3h16.5c1,0,1.9-1.5,1.9-3.3v-29
				C256.3-53.9,255.5-55.4,254.5-55.4z"/>
		</g>
	</g>
	<g id="_x31___x23_b96ed5_5_">
		<g>
			<path class="st37" d="M232-55.4h-16.4c-1,0-1.9,1.5-1.9,3.3v29c0,1.8,0.8,3.3,1.9,3.3H232c1,0,1.9-1.5,1.9-3.3v-29
				C233.9-53.9,233-55.4,232-55.4z"/>
		</g>
	</g>
	<g id="_x34___x23_e480ee_1_">
		<g>
			<path class="st61" d="M177.3-55.4h-16.4c-1,0-1.9,1.5-1.9,3.3v29c0,1.8,0.8,3.3,1.9,3.3h16.5c1,0,1.9-1.5,1.9-3.3v-29
				C179.2-53.9,178.4-55.4,177.3-55.4z"/>
		</g>
	</g>
	<g id="_x33___x23_dc82fd_3_">
		<g>
			<path class="st39" d="M204.4-55.4H188c-1,0-1.9,1.5-1.9,3.3v29c0,1.8,0.8,3.3,1.9,3.3h16.5c1,0,1.9-1.5,1.9-3.3v-29
				C206.3-53.9,205.5-55.4,204.4-55.4z"/>
		</g>
	</g>
	<g id="_x32___x23_c174e0_1_">
		<g>
			<path class="st40" d="M195.3-55.4h-8.2c-0.5,0-0.9,1.5-0.9,3.3v29c0,1.8,0.4,3.3,0.9,3.3h8.2c0.5,0,0.9-1.5,0.9-3.3v-29
				C196.2-53.9,195.8-55.4,195.3-55.4z"/>
		</g>
	</g>
	<g id="_x31___x23_f286fc_1_">
		<g>
			<path class="st51" d="M182-55.4h-16.5c-1,0-1.9,1.5-1.9,3.3V-23c0,1.8,0.8,3.3,1.9,3.3H182c1,0,1.9-1.5,1.9-3.3v-29.1
				C183.8-53.9,183-55.4,182-55.4z"/>
		</g>
	</g>
	<g id="_x34___x23_7250b0_5_">
		<g>
			<path class="st31" d="M450.6-55.4h-12.5c-0.8,0-1.4,1.5-1.4,3.3v29c0,1.8,0.6,3.3,1.4,3.3h12.5c0.8,0,1.4-1.5,1.4-3.3v-29
				C452-53.9,451.4-55.4,450.6-55.4z"/>
		</g>
	</g>
	<g id="_x33___x23_7450b0_3_" class="st1">
		<g>
			<path class="st62" d="M474.3-55.4h-17.8c-1.1,0-2,1.5-2,3.3v29c0,1.8,0.9,3.3,2,3.3h17.8c1.1,0,2-1.5,2-3.3v-29
				C476.3-53.9,475.4-55.4,474.3-55.4z"/>
		</g>
	</g>
	<g id="_x32___x23_8a62d7_4_" class="st63">
		<g>
			<path class="st24" d="M483.4-55.4h-25.5c-1.6,0-2.9,1.5-2.9,3.3v29c0,1.8,1.3,3.3,2.9,3.3h25.5c1.6,0,2.9-1.5,2.9-3.3v-29
				C486.3-53.9,485-55.4,483.4-55.4z"/>
		</g>
	</g>
	<g id="_x34___x23_7250b0_2_">
		<g>
			<path class="st33" d="M390.3-55.4h-15.2c-0.9,0-1.7,1.5-1.7,3.3v29c0,1.8,0.8,3.3,1.7,3.3h15.2c0.9,0,1.7-1.5,1.7-3.3v-29
				C392-53.9,391.3-55.4,390.3-55.4z"/>
		</g>
	</g>
	<g id="_x33___x23_7551b1_1_" class="st64">
		<g>
			<path class="st43" d="M398.3-55.4h-17.8c-1.1,0-2,1.5-2,3.3v29c0,1.8,0.9,3.3,2,3.3h17.8c1.1,0,2-1.5,2-3.3v-29
				C400.3-53.9,399.4-55.4,398.3-55.4z"/>
		</g>
	</g>
	<g id="_x32___x23_7250b0_1_" class="st1">
		<g>
			<path class="st52" d="M489.3-55.4h-17.8c-1.1,0-2,1.5-2,3.3v29c0,1.8,0.9,3.3,2,3.3h17.8c1.1,0,2-1.5,2-3.3v-29
				C491.3-53.9,490.4-55.4,489.3-55.4z"/>
		</g>
	</g>
	<g id="_x31___x23_7450b0_1_">
		<g>
			<path class="st53" d="M382.6-55.4H376c-0.4,0-0.7,1.5-0.7,3.3V-23c0,1.8,0.3,3.3,0.7,3.3h6.6c0.4,0,0.7-1.5,0.7-3.3v-29.1
				C383.4-53.9,383-55.4,382.6-55.4z"/>
		</g>
	</g>
	<g id="_x33___x23_6b489b_3_" class="st65">
		<g>
			<path class="st66" d="M356.9-55.4h-12c-0.7,0-1.4,1.5-1.4,3.3v29c0,1.8,0.6,3.3,1.4,3.3h12c0.7,0,1.4-1.5,1.4-3.3v-29
				C358.3-53.9,357.7-55.4,356.9-55.4z"/>
		</g>
	</g>
	<g id="_x34___x23_6c4ca4_2_">
		<g>
			<path class="st31" d="M333-55.4h-17.8c-1.1,0-2,1.5-2,3.3v29c0,1.8,0.9,3.3,2,3.3H333c1.1,0,2-1.5,2-3.3v-29
				C335-53.9,334.1-55.4,333-55.4z"/>
		</g>
	</g>
	<g id="_x32___x23_6c4ca4_4_">
		<g>
			<path class="st31" d="M354.8-55.4h-5c-0.3,0-0.6,1.5-0.6,3.3v29c0,1.8,0.3,3.3,0.6,3.3h5c0.3,0,0.6-1.5,0.6-3.3v-29
				C355.4-53.9,355.1-55.4,354.8-55.4z"/>
		</g>
	</g>
	<g id="_x31___x23_724da4_4_" class="st46">
		<g>
			<path class="st60" d="M324.7-55.4h-5.8c-0.4,0-0.7,1.5-0.7,3.3v29c0,1.8,0.3,3.3,0.7,3.3h5.8c0.4,0,0.7-1.5,0.7-3.3v-29
				C325.4-53.9,325.1-55.4,324.7-55.4z"/>
		</g>
	</g>
	<g id="_x34___x23_7b52b0_1_">
		<g>
			<path class="st58" d="M260.6-55.4h-24c-1.5,0-2.7,1.5-2.7,3.3V-23c0,1.8,1.2,3.3,2.7,3.3h24c1.5,0,2.7-1.5,2.7-3.3v-29.1
				C263.3-53.9,262.1-55.4,260.6-55.4z"/>
		</g>
	</g>
	<g id="_x33___x23_8856b0_1_">
		<g>
			<path class="st67" d="M293.3-55.4h-14.1c-0.9,0-1.6,1.5-1.6,3.3v29c0,1.8,0.7,3.3,1.6,3.3h14.1c0.9,0,1.6-1.5,1.6-3.3v-29
				C294.9-53.9,294.2-55.4,293.3-55.4z"/>
		</g>
	</g>
	<g id="_x32___x23_724fa5_1_" class="st46">
		<g>
			<path class="st47" d="M290.1-55.4h-6.8c-0.4,0-0.8,1.5-0.8,3.3v29c0,1.8,0.3,3.3,0.8,3.3h6.8c0.4,0,0.8-1.5,0.8-3.3v-29
				C290.9-53.9,290.5-55.4,290.1-55.4z"/>
		</g>
	</g>
	<g id="_x34___x23_a66ad7_3_">
		<g>
			<path class="st35" d="M216.7-55.4h-16.4c-1,0-1.9,1.5-1.9,3.3v29c0,1.8,0.8,3.3,1.9,3.3h16.5c1,0,1.9-1.5,1.9-3.3v-29
				C218.6-53.9,217.7-55.4,216.7-55.4z"/>
		</g>
	</g>
	<g id="_x33___x23_ba6ed7_4_">
		<g>
			<path class="st48" d="M239.2-55.4h-16.5c-1,0-1.9,1.5-1.9,3.3v29c0,1.8,0.8,3.3,1.9,3.3h16.5c1,0,1.9-1.5,1.9-3.3v-29
				C241-53.9,240.2-55.4,239.2-55.4z"/>
		</g>
	</g>
	<g id="_x32___x23_a569d7_4_" class="st46">
		<g>
			<path class="st60" d="M243.8-55.4h-16.4c-1,0-1.9,1.5-1.9,3.3v29c0,1.8,0.8,3.3,1.9,3.3h16.5c1,0,1.9-1.5,1.9-3.3v-29
				C245.7-53.9,244.8-55.4,243.8-55.4z"/>
		</g>
	</g>
	<g id="_x31___x23_b96ed5_3_">
		<g>
			<path class="st37" d="M221.3-55.4h-16.4c-1,0-1.9,1.5-1.9,3.3V-23c0,1.8,0.8,3.3,1.9,3.3h16.5c1,0,1.9-1.5,1.9-3.3v-29.1
				C223.2-53.9,222.4-55.4,221.3-55.4z"/>
		</g>
	</g>
	<g id="_x33___x23_dc82fd_1_">
		<g>
			<path class="st39" d="M189.4-55.4h-14.1c-0.9,0-1.6,1.5-1.6,3.3v29c0,1.8,0.7,3.3,1.6,3.3h14.1c0.9,0,1.6-1.5,1.6-3.3v-29
				C191-53.9,190.3-55.4,189.4-55.4z"/>
		</g>
	</g>
</g>
<g>
	<g class="st68">
		<path class="st69" d="M492.8-65.1H154.1v2.9h-0.7v-3.6h339.4"/>
		<path class="st69" d="M323.8-65.1v2.9h-0.7v-2.9L323.8-65.1z"/>
	</g>
</g>
<g id="_x31___x23_724da4_2_" class="st64">
	<g>
		<path class="st43" d="M325-55.4h-2.9c-0.2,0-0.3,1.5-0.3,3.3v29c0,1.8,0.1,3.3,0.3,3.3h2.9c0.2,0,0.3-1.5,0.3-3.3v-29
			C325.4-53.9,325.2-55.4,325-55.4z"/>
	</g>
</g>
<rect x="279.3" y="-97.1" class="st70" width="0" height="187.7"/>
<linearGradient id="SVGID_1_" gradientUnits="userSpaceOnUse" x1="221.1" y1="48.8" x2="521.3" y2="48.8" gradientTransform="matrix(1 0 0 -1 0 38.4)">
	<stop  offset="0" style="stop-color:#FFFFFF;stop-opacity:0"/>
	<stop  offset="0.9979" style="stop-color:#F5F5F5"/>
</linearGradient>
<rect x="221.1" y="-117.8" class="st71" width="300.2" height="214.8"/>
<path class="st72" d="M203.4,76.6c2.5-1.3,5.1-2,7.8-2.7c1-0.2,0.9-0.9-0.2-0.8c-3.7,0.4-6.2,0.9-9.4,2.7c-0.6,0.4-0.8,1.4-0.2,1.9
	c2.7,2.2,5,2.5,8.5,3.2c2.1,0.1,1.9-0.7,0.3-0.9c-1.4-0.3-5-1.6-6.2-2.2l46.1-0.4c6.5-0.2,6.6-0.8,0-0.9
	C232,76.6,219.7,76.5,203.4,76.6"/>
</svg>
