<?xml version="1.0" encoding="utf-8"?>
<!-- Generator: Adobe Illustrator 18.1.0, SVG Export Plug-In . SVG Version: 6.00 Build 0)  -->
<!DOCTYPE svg PUBLIC "-//W3C//DTD SVG 1.1//EN" "http://www.w3.org/Graphics/SVG/1.1/DTD/svg11.dtd">
<svg version="1.1" id="Layer_1" xmlns="http://www.w3.org/2000/svg" xmlns:xlink="http://www.w3.org/1999/xlink" x="0px" y="0px"
	 viewBox="35.5 -38.5 77.5 124.5" enable-background="new 35.5 -38.5 77.5 124.5" xml:space="preserve">
<ellipse fill="none" stroke="#288FEB" stroke-width="2" stroke-miterlimit="10" cx="74.5" cy="69.5" rx="36.8" ry="15"/>
<g>
	<path fill="#288FEB" d="M77.5-20.5v32.2l-3.2,1.9l-3.2-1.9v-32.2L63-15.4v27.5l11.4,7l11.5-7v-27.5L77.5-20.5z M74.3-37.4
		L50.4-22.9V4.6l6.2,3.7v-27.5l17.7-10.8l17.7,10.8l0.1,0l0,27.5l6.2-3.6v-27.5L74.3-37.4z"/>
	<path fill="#56ADEF" d="M98.3-22.9L74.3-37.4L50.4-22.9l6.2,3.7l17.7-10.8l17.8,10.8L98.3-22.9z M77.5-20.5v10.2l8.3-5.1L77.5-20.5
		z M63-15.4l8.2,5v-10.1L63-15.4z"/>
</g>
<g>
	<polyline fill="#288FEB" points="111.3,36.5 111.3,51.5 37.7,51.5 37.7,36.5 	"/>
	<ellipse fill="#288FEB" cx="74.5" cy="51.5" rx="36.8" ry="15"/>
	<ellipse fill="#56ADEF" cx="74.5" cy="36.5" rx="36.8" ry="15"/>
</g>
<ellipse fill="none" stroke="#288FEB" stroke-width="2" stroke-miterlimit="10" cx="74.5" cy="16.5" rx="36.8" ry="15"/>
</svg>
