<svg id="Layer_1" xmlns="http://www.w3.org/2000/svg" viewBox="518 -118.4 1074 275.4"><style>.st0{fill:#288FEB;}</style><path class="st0" d="M518 97.9V57.7h71.4c4.4-.8 7-2.9 7.8-6.2.2-.4.3-.9.3-1.5v-3.2c0-4.1-2.2-6.7-6.6-7.7h-34.7c-6 0-11.7-1.5-17.2-4.5-13.5-7.6-20.2-17.3-20.2-29.1v-29.4c0-2.8.4-5.9 1.2-9.3 4.2-17.6 16.6-26.4 37.3-26.4h80l.9 40.2h-72.5c-.8.2-1.8.6-3 1.2-3 3-4.5 5-4.5 6.2v3.5c0 3.9 3.2 6.4 9.5 7.4h35.4c8.9 0 16.9 3.6 24 10.8 7 7.2 10.5 15.3 10.3 24.3v28.8c-.2 6.4-2.1 12.6-5.6 18.4-3.5 5.9-7.9 10.3-13.4 13.1-4.6 2.4-10.7 3.6-18.3 3.6H518zm145.8 0v-120c0-2 .2-4.4.6-7.2 3-20.2 15.3-30.3 36.9-30.3h55.5c21.6 0 33.9 10.1 36.9 30.3.4 2.8.6 5.2.6 7.2v120h-39.9V-8.3c0-1-.1-1.8-.3-2.4-.8-5.8-5.1-8.7-12.9-8.7h-24.6c-7.8 0-12.1 2.9-12.9 8.7V97.9h-39.9zm158.1-35.7V30.1c0-11.8 3.4-20.9 10.3-27.5 6.9-6.5 16.2-9.8 28-9.8h53.2v-8.4c-.2-3.4-3-5.5-8.5-6.3h-83v-37.7h91.5c1.2 0 3.5.2 6.8.6 18.7 2.2 29.5 12 32.5 29.4.4 2.4.6 4.7.6 6.9V61c0 2.8-.2 5.2-.6 7.2-1.8 9-5.9 16.2-12.3 21.6-6.4 5.4-14.1 8.1-23.1 8.1h-54.9c-23.2 0-36.5-9.5-39.9-28.5.2-1.4 0-3.8-.6-7.2zm41.8-6.8c1.3 1.7 3.3 2.9 6.1 3.5.6.2 1.3.3 2.1.3h31.2c6.8 0 10.2-3 10.2-9V39.1c0-3.8-1.7-6.5-5.1-8.1-.8-.8-2.6-1.2-5.4-1.2h-35.1c-3.4.6-5.4 3.2-6 7.9v12.4c.1 1.8.7 3.6 2 5.3zM980.9 157V-17.5c0-2 .2-4.7.6-8.1 2.2-19 12.1-30.1 29.7-33.3 2.2-.4 4-.6 5.4-.6h57.3c2.2 0 4.9.3 8.1.9 20.2 3.8 30.3 16.9 30.3 39.3v81.6c0 7-2.4 13.7-7.2 20.1-1 1.2-2.5 2.8-4.5 4.8-7.6 7.2-16.1 10.8-25.5 10.8h-54.3v59.1h-10.2c-6.6-.1-16.5-.1-29.7-.1zm40.2-108.8c.8 5.4 4.1 8.4 9.9 9.2.4.2 1.2.3 2.4.3h30.3c2.6-.6 4.7-1.8 6.3-3.6 1.6-2.6 2.4-4.5 2.4-5.7v-59.8c-.8-4.2-3.3-6.7-7.5-7.7-.4-.2-.9-.3-1.5-.3h-31.2c-4.6 0-7.9 2.3-9.9 6.8-1 1.8-1.5 3.5-1.5 5.1v53.3c0 1 .1 1.8.3 2.4zm118.8 49.7V-82.4c0-11.2 4.4-20.1 13.2-26.7 8-6 17.8-9 29.4-9h25.2V-80h-15.9c-.6.2-1 .3-1.2.3-7.2 1.2-10.8 5.1-10.8 11.7v8.4h27.9v40.2h-27.9V97.9h-39.9zm82.8-35.7V30.1c0-11.8 3.4-20.9 10.3-27.5 6.9-6.5 16.2-9.8 28-9.8h53.2v-8.4c-.2-3.4-3-5.5-8.5-6.3h-83v-37.7h91.5c1.2 0 3.5.2 6.8.6 18.7 2.2 29.5 12 32.5 29.4.4 2.4.6 4.7.6 6.9V61c0 2.8-.2 5.2-.6 7.2-1.8 9-5.9 16.2-12.3 21.6-6.4 5.4-14.1 8.1-23.1 8.1h-54.9c-23.2 0-36.5-9.5-39.9-28.5.2-1.4 0-3.8-.6-7.2zm41.8-6.8c1.3 1.7 3.3 2.9 6.1 3.5.6.2 1.3.3 2.1.3h31.3c6.8 0 10.2-3 10.2-9V39.1c0-3.8-1.7-6.5-5.1-8.1-.8-.8-2.6-1.2-5.4-1.2h-35.1c-3.4.6-5.4 3.2-6 7.9v12.4c0 1.8.6 3.6 1.9 5.3zm115.1 42.5V57.7h71.4c4.4-.8 7-2.9 7.8-6.2.2-.4.3-.9.3-1.5v-3.2c0-4.1-2.2-6.7-6.6-7.7h-34.6c-6 0-11.7-1.5-17.2-4.5-13.5-7.6-20.2-17.3-20.2-29.1v-29.4c0-2.8.4-5.9 1.2-9.3 4.2-17.6 16.6-26.4 37.3-26.4h80l.9 40.2h-72.6c-.8.2-1.8.6-3 1.2-3 3-4.5 5-4.5 6.2v3.5c0 3.9 3.2 6.4 9.5 7.4h35.4c8.9 0 16.9 3.6 24 10.8 7 7.2 10.5 15.3 10.3 24.3v28.8c-.2 6.4-2.1 12.6-5.5 18.4-3.5 5.9-8 10.3-13.4 13.1-4.6 2.4-10.7 3.6-18.3 3.6h-82.2zm145.8 0v-216.3h39.9v58.8h26.7v40.2h-26.7V97.9h-39.9z"/></svg>