<svg id="Layer_1" xmlns="http://www.w3.org/2000/svg" viewBox="518 -272.4 1074 583.4"><style>.st0{fill:#288FEB;}</style><g id="Text_1_"><path class="st0" d="M518 251.9v-40.2h71.4c4.4-.8 7-2.9 7.8-6.2.2-.4.3-.9.3-1.5v-3.2c0-4.1-2.2-6.7-6.6-7.7h-34.7c-6 0-11.7-1.5-17.2-4.5-13.5-7.6-20.2-17.3-20.2-29.1v-29.4c0-2.8.4-5.9 1.2-9.3 4.2-17.6 16.6-26.4 37.3-26.4h80l.9 40.2h-72.5c-.8.2-1.8.6-3 1.2-3 3-4.5 5-4.5 6.2v3.5c0 3.9 3.2 6.4 9.5 7.4h35.4c8.9 0 16.9 3.6 24 10.8 7 7.2 10.5 15.3 10.3 24.3v28.8c-.2 6.4-2.1 12.6-5.6 18.4-3.5 5.9-7.9 10.3-13.4 13.1-4.6 2.4-10.7 3.6-18.3 3.6H518zm145.8 0v-120c0-2 .2-4.4.6-7.2 3-20.2 15.3-30.3 36.9-30.3h55.5c21.6 0 33.9 10.1 36.9 30.3.4 2.8.6 5.2.6 7.2v120h-39.9V145.7c0-1-.1-1.8-.3-2.4-.8-5.8-5.1-8.7-12.9-8.7h-24.6c-7.8 0-12.1 2.9-12.9 8.7v108.6h-39.9zm158.1-35.7v-32.1c0-11.8 3.4-20.9 10.3-27.5 6.9-6.5 16.2-9.8 28-9.8h53.2v-8.4c-.2-3.4-3-5.5-8.5-6.3h-83V94.3h91.5c1.2 0 3.5.2 6.8.6 18.7 2.2 29.5 12 32.5 29.4.4 2.4.6 4.7.6 6.9v83.7c0 2.8-.2 5.2-.6 7.2-1.8 9-5.9 16.2-12.3 21.6-6.4 5.4-14.1 8.1-23.1 8.1h-54.9c-23.2 0-36.5-9.5-39.9-28.5.2-1.3 0-3.7-.6-7.1zm41.8-6.8c1.3 1.7 3.3 2.9 6.1 3.5.6.2 1.3.3 2.1.3h31.2c6.8 0 10.2-3 10.2-9v-11.1c0-3.8-1.7-6.5-5.1-8.1-.8-.8-2.6-1.2-5.4-1.2h-35.1c-3.4.6-5.4 3.2-6 7.9v12.4c.1 1.8.7 3.6 2 5.3zM980.9 311V136.4c0-2 .2-4.7.6-8.1 2.2-19 12.1-30.1 29.7-33.3 2.2-.4 4-.6 5.4-.6h57.3c2.2 0 4.9.3 8.1.9 20.2 3.8 30.3 16.9 30.3 39.3v81.6c0 7-2.4 13.7-7.2 20.1-1 1.2-2.5 2.8-4.5 4.8-7.6 7.2-16.1 10.8-25.5 10.8h-54.3V311h-39.9zm40.2-108.8c.8 5.4 4.1 8.4 9.9 9.2.4.2 1.2.3 2.4.3h30.3c2.6-.6 4.7-1.8 6.3-3.6 1.6-2.6 2.4-4.5 2.4-5.7v-59.8c-.8-4.2-3.3-6.7-7.5-7.7-.4-.2-.9-.3-1.5-.3h-31.2c-4.6 0-7.9 2.3-9.9 6.8-1 1.8-1.5 3.5-1.5 5.1v53.3c0 1 .1 1.8.3 2.4zm118.8 49.7V71.6c0-11.2 4.4-20.1 13.2-26.7 8-6 17.8-9 29.4-9h25.2V74h-15.9c-.6.2-1 .3-1.2.3-7.2 1.2-10.8 5.1-10.8 11.7v8.4h27.9v40.2h-27.9v117.3h-39.9zm82.8-35.7v-32.1c0-11.8 3.4-20.9 10.3-27.5 6.9-6.5 16.2-9.8 28-9.8h53.2v-8.4c-.2-3.4-3-5.5-8.5-6.3h-83V94.3h91.5c1.2 0 3.5.2 6.8.6 18.7 2.2 29.5 12 32.5 29.4.4 2.4.6 4.7.6 6.9v83.7c0 2.8-.2 5.2-.6 7.2-1.8 9-5.9 16.2-12.3 21.6-6.4 5.4-14.1 8.1-23.1 8.1h-54.9c-23.2 0-36.5-9.5-39.9-28.5.2-1.3 0-3.7-.6-7.1zm41.8-6.8c1.3 1.7 3.3 2.9 6.1 3.5.6.2 1.3.3 2.1.3h31.3c6.8 0 10.2-3 10.2-9v-11.1c0-3.8-1.7-6.5-5.1-8.1-.8-.8-2.6-1.2-5.4-1.2h-35.1c-3.4.6-5.4 3.2-6 7.9v12.4c0 1.8.6 3.6 1.9 5.3zm115.1 42.5v-40.2h71.4c4.4-.8 7-2.9 7.8-6.2.2-.4.3-.9.3-1.5v-3.2c0-4.1-2.2-6.7-6.6-7.7h-34.6c-6 0-11.7-1.5-17.2-4.5-13.5-7.6-20.2-17.3-20.2-29.1v-29.4c0-2.8.4-5.9 1.2-9.3 4.2-17.6 16.6-26.4 37.3-26.4h80l.9 40.2h-72.6c-.8.2-1.8.6-3 1.2-3 3-4.5 5-4.5 6.2v3.5c0 3.9 3.2 6.4 9.5 7.4h35.4c8.9 0 16.9 3.6 24 10.8 7 7.2 10.5 15.3 10.3 24.3v28.8c-.2 6.4-2.1 12.6-5.5 18.4-3.5 5.9-8 10.3-13.4 13.1-4.6 2.4-10.7 3.6-18.3 3.6h-82.2zm145.8 0V35.6h39.9v58.8h26.7v40.2h-26.7v117.3h-39.9z" id="snapfast"/></g><path class="st0" d="M1252.6-106L970.2 78.6c1.3.2 9.1 1.4 16.4 9.9 5.2 6 6.6 16 6.6 16l263.7-205.1 1.7-5.3-6-.1zm294.6 63.6c-1.6-5-11.2-6.9-21.2-4.3L1381.7-9.9c-8.2 2.1-13.7 7.4-12.3 11.8 1.4 4.4 9.2 6.4 17.4 4.4l145-35.3c10-2.5 17-8.5 15.4-13.4zm-46.1-81.6c-3.3-4.3-13.4-4.6-22.5-.8l-185.2 76.6c-7 2.9-10.5 8.3-8 12 2.6 3.8 10.3 4.6 17.4 1.7l187.4-75c9.2-3.7 14.2-10.2 10.9-14.5zm-70.7-65.6c-4.5-3.3-14.5-2.1-22.3 2.6l-113.3 67.6c-6.5 3.9-8.7 9.6-4.9 12.7 3.8 3.1 12.2 2.6 18.9-1.3l115.5-67.3c7.8-4.6 10.7-11 6.1-14.3zm-88.5-47.1c5.3 2.2 4.5 8.1-1.9 13.2l-92.9 75.4c-5.4 4.4-13.4 6.1-18 3.9-4.5-2.2-3.9-7.5 1.4-11.9l90.6-75.2c6.3-5 15.6-7.5 20.8-5.4zm-97.9-26.9c5.6 1 6.4 6.2 1.8 11.4l-68.9 78c-4.1 4.6-11.4 7.3-16.3 6s-5.6-6-1.7-10.6l66.9-77.3c4.5-5.2 12.7-8.6 18.2-7.5zm-99.5-8.8c5.5.1 7.5 4.2 4.5 9.3l-65.9 108.5c-2.6 4.4-8.7 7.5-13.5 6.9-4.8-.5-6.6-4.4-4-8.7l63.7-107.1c2.9-5 9.7-9 15.2-8.9zm-94.1 7.2c5.1-.7 8 2.5 6.3 7.1l-26.2 70.9c-1.6 4.3-6.8 8.1-11.6 8.4-4.8.3-7.4-2.8-5.9-7l25.2-69.8c1.6-4.6 7.1-8.9 12.2-9.6zM964-246c4.6-1.3 7.9.9 7.3 5l-9.6 63.8c-.6 3.9-4.7 7.9-9.2 8.9-4.4 1-7.5-1.4-7-5.2l9.1-62.7c.6-4.2 4.8-8.5 9.4-9.8zm-76.4 28.3c4-1.8 7.5-.3 7.7 3.2l3.6 55.6c.2 3.5-2.9 7.5-6.9 9s-7.4-.1-7.6-3.5l-3.7-54.8c-.1-3.5 2.9-7.8 6.9-9.5zm-66.1 34.9c-3.4 2-5.4 6.1-4.6 9l19.7 68c.9 3 4.4 3.9 7.9 2.2 3.5-1.8 5.7-5.6 4.8-8.6l-20-68.9c-.9-3-4.4-3.7-7.8-1.7zm-50 37.4c-2.4 1.9-3.4 5-2.4 7l17 33.5c1.1 2.2 4.1 2.5 6.6.6s3.7-5.2 2.5-7.4l-17.5-33.4c-1.1-2.1-3.8-2.2-6.2-.3zM732.3-111c-2 2.1-2.7 5.1-1.4 6.9l21.2 28.7c1.4 1.9 4.3 1.7 6.5-.5s2.8-5.5 1.4-7.3l-21.7-28.4c-1.3-1.8-4-1.5-6 .6zm-33.9 38.2c-1.7 2.3-2 5.3-.5 6.7l24.9 23.8c1.6 1.6 4.5.9 6.4-1.5 1.9-2.4 2-5.6.4-7.2l-25.3-23.4c-1.5-1.4-4.1-.7-5.9 1.6zm-28.5 41.5c-1.5 2.5-1.3 5.4.4 6.5l41.8 28.1c1.9 1.3 4.8.2 6.4-2.5s1.3-5.9-.7-7.2l-42.2-27.4c-1.7-1.1-4.2 0-5.7 2.5zM646.5 14c-1.2 2.7-.6 5.5 1.2 6.3l30.8 13.6c2 .9 4.7-.6 5.9-3.5 1.2-2.8.5-5.8-1.5-6.7l-31-13.1c-1.8-.8-4.3.8-5.4 3.4zm-18.1 48.3c-.8 2.8.1 5.5 2.1 6l33.2 8.1c2.2.5 4.7-1.5 5.5-4.5.9-3-.3-5.8-2.4-6.3L633.6 58c-2.1-.4-4.4 1.5-5.2 4.3z" id="Tachometer_1_"/></svg>