<svg xmlns="http://www.w3.org/2000/svg" viewBox="0 0 186.5 213.6"><path d="M186.4 106.6c0 24.7-.1 49.3.1 74 0 6.6-2.6 11.5-7.6 15.5-6.8 5.4-14.9 8.2-23.1 10.4-22.9 6-46.1 7.9-69.8 6.8-18.6-.9-36.9-2.8-54.5-8.8-6.8-2.3-13.3-5.2-18.7-10.3-3.7-3.6-5.6-7.8-5.5-12.9 0-8-.1-16 0-24 0-3-.5-5.6-2.9-7.6-3.4-3-4.4-6.8-4.4-11.3.1-15 .1-30 0-45 0-3.4.6-5.8 4.2-6.9 3.1-.9 3-3.6 3-6.1 0-15 .4-30-.1-45-.3-9.8 4.2-16.1 12.1-20.7 11.2-6.5 23.5-9.4 36-11.4 33.2-5.2 66.4-4.9 99.1 3.5 8.7 2.2 17.3 5.1 24.5 10.9 5 4 7.6 8.7 7.6 15.4-.2 24.6 0 49 0 73.5zM176.3 166v-12.5c0-7.6 0-7.5-7-4.3-1.7.8-3.4 1.5-5.1 2.1-28.6 9.9-58.1 10.9-87.9 9-7.7-.5-14.8-1.2-20.7 5.1-2.6 2.7-5.8 2.7-9.3 1.9-8.3-1.9-16.7-3.5-24.5-6.8-3.9-1.6-4.6-.1-4.6 3.4.1 5.3.2 10.7 0 16-.2 4.3 1.5 7.3 5 9.6 7.6 4.8 16 7.4 24.7 9.2 30.1 6.5 60.5 6.9 90.8 1.9 11-1.8 21.9-4.3 31.8-9.9 4.5-2.5 7.1-5.7 6.7-11.2-.2-4.5.1-9 .1-13.5zm-111-35.8c0 5.5.2 11-.1 16.5-.2 4 .9 6 5.4 6.4 22.7 2 45.2 1.7 67.7-2.1 11-1.9 22-4.3 31.9-9.7 2.9-1.6 6-3.4 6-7.3.1-11.8.1-23.7.1-35.5 0-2.6-1-3.2-3.4-2-20.4 10.1-42.3 12.6-64.6 13.3-12.6.4-25.3.8-37.9-1-4.1-.6-5.3.9-5.1 4.9.2 5.5 0 11 0 16.5zM17.4 65.8c0 5 .2 10-.1 15-.2 4 1.5 6.6 4.7 8.6 5.6 3.5 11.7 5.6 17.9 7.4 17.8 4.9 36 6.4 54.3 6.9 10.3.3 20.6-.6 30.8-1.7 1.8-.2 3.6-.2 3.6-3 0-12.1.1-24.2.2-36.3 0-2.4-.6-3.7-3.5-3.3-16.7 1.9-33.5 2.3-50.3.7-18.8-1.7-37.4-4.3-54.5-13-3-1.5-3.3-.3-3.3 2.3.2 5.4.2 10.9.2 16.4zM175.7 28c-5.6-5.8-12.1-8.2-18.6-10-33.9-9.8-68.3-10-102.9-4.3C43.5 15.4 33 18 23.5 23.6c-8.1 4.7-7.9 9.5.4 14.1 5.7 3.2 11.8 5.5 18.1 7.1 24 6.2 48.4 6.8 72.9 5.8 1.3-.1 3.1.2 3.9-1.9C109 41.8 99.1 35 89.3 28.1c.1-.5.3-1 .4-1.5 28.4 1.4 56.7 1.2 86 1.4zM6.4 101.4c0 12.2.2 23.4-.1 34.5-.1 5.8 2.3 9.8 7.1 12.8 8.5 5.2 17.9 8 27.4 10.4 4.3 1.1 5.3-.5 5.3-4.4-.1-11.2-.1-22.3 0-33.5 0-3.4-1.1-5-4.6-5.8-12-2.5-23.8-6-35.1-14zM176 85c-10.7 0-20.2-.1-29.8 0-12 .2-10.8-2.3-10.9 11.3 0 3.1 1 4.1 4.1 3.6 9.5-1.7 18.8-3.9 27.6-8 3.1-1.4 6.1-2.8 9-6.9zM53.3 158.1c3.9-1 4.9-3.4 4.9-6.8-.1-11.3 0-22.6-.1-33.9 0-1.4 1.1-4-1.3-4-2 0-3.9 1.7-3.8 4.4.5 13.3-.8 26.6.3 40.3zm-1.2-50.7c-2-1.9-4.6-1.8-7-2.3-10.1-2.4-20-5.4-28.5-11.5-2.4-1.7-4.9-4.4-7-1.2-1.8 2.7 1.9 4.2 3.7 5.4 10.2 6.7 21.9 9.5 33.7 11.9 2 .3 3.9-.1 5.1-2.3z"/></svg>