<?xml version="1.0" encoding="utf-8"?>
<!-- Generator: Adobe Illustrator 19.0.0, SVG Export Plug-In . SVG Version: 6.00 Build 0)  -->
<!DOCTYPE svg PUBLIC "-//W3C//DTD SVG 1.1//EN" "http://www.w3.org/Graphics/SVG/1.1/DTD/svg11.dtd">
<svg version="1.1" id="Layer_1" xmlns="http://www.w3.org/2000/svg" xmlns:xlink="http://www.w3.org/1999/xlink" x="0px" y="0px"
	 viewBox="0 0 1000 1000" style="enable-background:new 0 0 1000 1000;" xml:space="preserve">
<style type="text/css">
	.st0{clip-path:url(#XMLID_5_);fill:#288FEB;stroke:#FFFFFF;stroke-width:31;stroke-miterlimit:10;}
	.st1{clip-path:url(#XMLID_39_);fill:#288FEB;}
	.st2{clip-path:url(#XMLID_39_);fill:#929292;}
	.st3{clip-path:url(#XMLID_39_);fill:#288FEB;stroke:#FFFFFF;stroke-width:6;stroke-miterlimit:10;}
	.st4{clip-path:url(#XMLID_41_);fill:#929292;}
	.st5{clip-path:url(#XMLID_41_);fill:#ADADAD;stroke:#FFFFFF;stroke-width:6;stroke-miterlimit:10;}
	.st6{fill:#288FEB;}
	.st7{fill:#ADADAD;}
	.st8{fill:#28CB75;}
	.st9{fill:#FF6C6A;}
	.st10{font-family:'Roboto-Black';}
	.st11{font-size:33px;}
	.st12{letter-spacing:2;}
</style>
<g id="File_5_">
	<defs>
		<rect id="XMLID_40_" x="135.7" y="29.1" width="712.5" height="937.5"/>
	</defs>
	<clipPath id="XMLID_5_">
		<use xlink:href="#XMLID_40_"  style="overflow:visible;"/>
	</clipPath>
	<path id="XMLID_60_" class="st0" d="M623.2,29.1H210.7c-40.6,0-75,33.6-75,75v787.5c0,41.4,34.4,75,75,75h562.5
		c40.6,0,75-33.6,75-75V254.1L623.2,29.1z M623.2,82.1l172,172H660.7c-20.2,0-37.5-16.8-37.5-37.5V85.4V82.1z M810.6,891.6
		c0,20.7-17.3,37.5-37.5,37.5H210.7c-20.2,0-37.5-16.8-37.5-37.5V104.1c0-20.7,17.3-37.5,37.5-37.5h375v150c0,41.4,34.4,75,75,75
		h150V891.6z"/>
</g>
<g id="List_1_">
	<defs>
		<rect id="XMLID_7_" x="273.2" y="262.6" width="284.4" height="242.3"/>
	</defs>
	<clipPath id="XMLID_39_">
		<use xlink:href="#XMLID_7_"  style="overflow:visible;"/>
	</clipPath>
	<rect id="XMLID_19_" x="357.4" y="283.6" class="st1" width="200.1" height="10.5"/>
	<rect id="XMLID_18_" x="357.4" y="378.4" class="st2" width="200.1" height="10.5"/>
	<rect id="XMLID_17_" x="357.4" y="473.2" class="st2" width="200.1" height="10.5"/>
	<path id="XMLID_14_" class="st3" d="M299.5,271c9.9,0,17.9,8,17.9,17.9s-8,17.9-17.9,17.9s-17.9-8-17.9-17.9S289.6,271,299.5,271
		 M299.5,262.6c-14.5,0-26.3,11.8-26.3,26.3c0,14.6,11.8,26.3,26.3,26.3s26.3-11.8,26.3-26.3C325.8,274.4,314,262.6,299.5,262.6
		L299.5,262.6z"/>
	<path id="XMLID_11_" class="st3" d="M299.5,365.8c9.9,0,17.9,8,17.9,17.9s-8,17.9-17.9,17.9s-17.9-8-17.9-17.9
		S289.6,365.8,299.5,365.8 M299.5,357.4c-14.5,0-26.3,11.8-26.3,26.3c0,14.6,11.8,26.3,26.3,26.3s26.3-11.8,26.3-26.3
		C325.8,369.2,314,357.4,299.5,357.4L299.5,357.4z"/>
	<path id="XMLID_8_" class="st3" d="M299.5,460.6c9.9,0,17.9,8,17.9,17.9s-8,17.9-17.9,17.9s-17.9-8-17.9-17.9
		S289.6,460.6,299.5,460.6 M299.5,452.2c-14.5,0-26.3,11.8-26.3,26.3c0,14.6,11.8,26.3,26.3,26.3s26.3-11.8,26.3-26.3
		C325.8,464,314,452.2,299.5,452.2L299.5,452.2z"/>
</g>
<g id="List_2_">
	<defs>
		<rect id="XMLID_20_" x="273.2" y="545.1" width="284.4" height="242.3"/>
	</defs>
	<clipPath id="XMLID_41_">
		<use xlink:href="#XMLID_20_"  style="overflow:visible;"/>
	</clipPath>
	<rect id="XMLID_32_" x="357.4" y="566.2" class="st4" width="200.1" height="10.5"/>
	<rect id="XMLID_31_" x="357.4" y="661" class="st4" width="200.1" height="10.5"/>
	<rect id="XMLID_30_" x="357.4" y="755.8" class="st4" width="200.1" height="10.5"/>
	<path id="XMLID_27_" class="st5" d="M299.5,553.5c9.9,0,17.9,8,17.9,17.9s-8,17.9-17.9,17.9s-17.9-8-17.9-17.9
		S289.6,553.5,299.5,553.5 M299.5,545.1c-14.5,0-26.3,11.8-26.3,26.3c0,14.6,11.8,26.3,26.3,26.3s26.3-11.8,26.3-26.3
		C325.8,556.9,314,545.1,299.5,545.1L299.5,545.1z"/>
	<path id="XMLID_24_" class="st5" d="M299.5,648.3c9.9,0,17.9,8,17.9,17.9s-8,17.9-17.9,17.9s-17.9-8-17.9-17.9
		S289.6,648.3,299.5,648.3 M299.5,639.9c-14.5,0-26.3,11.8-26.3,26.3c0,14.6,11.8,26.3,26.3,26.3s26.3-11.8,26.3-26.3
		C325.8,651.7,314,639.9,299.5,639.9L299.5,639.9z"/>
	<path id="XMLID_21_" class="st5" d="M299.5,743.1c9.9,0,17.9,8,17.9,17.9s-8,17.9-17.9,17.9s-17.9-8-17.9-17.9
		S289.6,743.1,299.5,743.1 M299.5,734.7c-14.5,0-26.3,11.8-26.3,26.3c0,14.6,11.8,26.3,26.3,26.3s26.3-11.8,26.3-26.3
		C325.8,746.5,314,734.7,299.5,734.7L299.5,734.7z"/>
</g>
<rect id="XMLID_6_" x="357.4" y="378.4" class="st6" width="328.8" height="10.6"/>
<rect id="XMLID_34_" x="357.4" y="473.1" class="st6" width="328.8" height="10.6"/>
<rect id="XMLID_35_" x="357.4" y="565.9" class="st7" width="328.8" height="10.8"/>
<rect id="XMLID_36_" x="357.4" y="660.9" class="st7" width="328.8" height="10.6"/>
<rect id="XMLID_37_" x="357.4" y="755.8" class="st7" width="328.8" height="11.1"/>
<polygon id="XMLID_33_" class="st8" points="310.3,280.5 296.9,293.8 291.4,288.3 289.1,290.5 296.9,298.3 312.6,282.7 "/>
<polygon id="XMLID_4_" class="st8" points="310.3,469.5 296.9,482.8 291.4,477.3 289.1,479.5 296.9,487.3 312.6,471.7 "/>
<polygon id="XMLID_3_" class="st8" points="310.3,374.8 296.9,388.2 291.4,382.6 289.1,384.8 296.9,392.6 312.6,377 "/>
<polygon id="XMLID_47_" class="st9" points="310,579.1 302.2,571.3 310,563.5 307.4,561 299.6,568.7 291.8,561 289.2,563.5 
	297,571.3 289.2,579.1 291.8,581.7 299.6,573.9 307.4,581.7 "/>
<polygon id="XMLID_48_" class="st9" points="310,674 302.2,666.2 310,658.5 307.4,655.9 299.6,663.6 291.8,655.9 289.2,658.5 
	297,666.2 289.2,674 291.8,676.6 299.6,668.8 307.4,676.6 "/>
<polygon id="XMLID_49_" class="st9" points="310,769.1 302.2,761.3 310,753.5 307.4,750.9 299.6,758.7 291.8,750.9 289.2,753.5 
	297,761.3 289.2,769.1 291.8,771.7 299.6,763.9 307.4,771.7 "/>
<text id="XMLID_1_" transform="matrix(1 0 0 1 273.5115 177.6068)" class="st6 st10 st11 st12">SPEED ANALYSIS</text>
</svg>
